<svg version="1.1" xmlns="http://www.w3.org/2000/svg" width="600" height="400"><defs><clipPath id="rTTetnSzTMiC"><path fill="none" stroke="none" d="M 65.5 31.5 L 570.5 31.5 L 570.5 355.5 L 65.5 355.5 L 65.5 31.5"/></clipPath><clipPath id="KCLVKcRtKQKd"><path fill="none" stroke="none" d="M 65.5 31.5 L 570.5 31.5 L 570.5 355.5 L 65.5 355.5 L 65.5 31.5"/></clipPath><clipPath id="ELvKxfzmidyu"><path fill="none" stroke="none" d="M 65.5 31.5 L 570.5 31.5 L 570.5 355.5 L 65.5 355.5 L 65.5 31.5"/></clipPath><clipPath id="uibCbelKmFzK"><path fill="none" stroke="none" d="M 65.5 31.5 L 570.5 31.5 L 570.5 355.5 L 65.5 355.5 L 65.5 31.5"/></clipPath><clipPath id="cMvelAuCZUOu"><path fill="none" stroke="none" d="M 65.5 31.5 L 570.5 31.5 L 570.5 355.5 L 65.5 355.5 L 65.5 31.5"/></clipPath><clipPath id="OJxCKhJXDeEc"><path fill="none" stroke="none" d="M 65.5 31.5 L 570.5 31.5 L 570.5 355.5 L 65.5 355.5 L 65.5 31.5"/></clipPath><clipPath id="AAUlktdtuRsA"><path fill="none" stroke="none" d="M 65.5 31.5 L 570.5 31.5 L 570.5 355.5 L 65.5 355.5 L 65.5 31.5"/></clipPath><clipPath id="lalQltUMXmXw"><path fill="none" stroke="none" d="M 65.5 31.5 L 570.5 31.5 L 570.5 355.5 L 65.5 355.5 L 65.5 31.5"/></clipPath></defs><path fill="rgb(255,255,255)" stroke="none" paint-order="stroke" d="M 0.5 0.5 L 600.5 0.5 L 600.5 400.5 L 0.5 400.5 L 0.5 0.5" fill-opacity="1"/><rect fill="#FFFFFF" stroke="none" x="65" y="31" width="505" height="324" transform="matrix(1, 0, 0, 1, 0.5, 0.5)"/><path fill="rgb(255,255,255)" stroke="none" paint-order="stroke" d="M 65.5 31.5 L 570.5 31.5 L 570.5 355.5 L 65.5 355.5 L 65.5 31.5" fill-opacity="1"/><path fill="none" stroke="rgb(229,229,229)" paint-order="fill" d="M 65.5 31.5 L 570.5 31.5 L 570.5 355.5 L 65.5 355.5 L 65.5 31.5" stroke-opacity="1" stroke-linejoin="bevel" stroke-miterlimit="10" stroke-dasharray=""/><path fill="none" stroke="rgb(229,229,229)" paint-order="fill" d="M 88.5 355.5 L 88.5 31.5 M 180.5 355.5 L 180.5 31.5 M 272.5 355.5 L 272.5 31.5 M 363.5 355.5 L 363.5 31.5 M 455.5 355.5 L 455.5 31.5 M 547.5 355.5 L 547.5 31.5" stroke-opacity="1" stroke-linejoin="bevel" stroke-miterlimit="10" stroke-dasharray="" clip-path="url(#rTTetnSzTMiC)"/><path fill="none" stroke="rgb(229,229,229)" paint-order="fill" d="M 65.5 340.5 L 570.5 340.5 M 65.5 290.5 L 570.5 290.5 M 65.5 239.5 L 570.5 239.5 M 65.5 188.5 L 570.5 188.5 M 65.5 137.5 L 570.5 137.5 M 65.5 87.5 L 570.5 87.5 M 65.5 36.5 L 570.5 36.5" stroke-opacity="1" stroke-linejoin="bevel" stroke-miterlimit="10" stroke-dasharray="" clip-path="url(#KCLVKcRtKQKd)"/><path fill="none" stroke="rgb(220,20,60)" paint-order="fill" d="M 88.45454406738281 340.7727355957031 L 106.81818389892578 340.7727355957031 L 125.18181610107422 340.7727355957031 L 143.5454559326172 340.7727355957031 L 161.90908813476562 340.5190124511719 L 180.27272033691406 332.90802001953125 L 198.63636779785156 322.7600402832031 L 217 306.015869140625 L 235.36363220214844 286.73468017578125 L 253.72727966308594 256.5444030761719 L 272.0909118652344 227.62261962890625 L 290.4545593261719 200.98414611816406 L 308.81817626953125 180.94186401367188 L 327.18182373046875 160.8995819091797 L 345.5454406738281 147.70718383789062 L 363.9090881347656 135.78329467773438 L 382.2727355957031 125.88900756835938 L 400.6363525390625 118.5317153930664 L 419 108.63742065429688 L 437.3636474609375 100.26532745361328 L 455.7272644042969 87.83403778076172 L 474.0909118652344 75.91014862060547 L 492.4545593261719 66.7769546508789 L 510.81817626953125 59.16596221923828 L 529.1818237304688 52.569766998291016 L 547.5454711914062 46.227272033691406" stroke-opacity="1" stroke-linejoin="bevel" stroke-miterlimit="10" stroke-dasharray="" clip-path="url(#ELvKxfzmidyu)"/><path fill="rgb(255,255,255)" stroke="rgb(220,20,60)" paint-order="fill" d="M 90.45454406738281 340.7727355957031 A 2 2 0 0 1 86.45454406738281 340.7727355957031 A 2 2 0 0 1 90.45454406738281 340.7727355957031" fill-opacity="1" clip-path="url(#uibCbelKmFzK)" stroke-opacity="1" stroke-linejoin="bevel" stroke-miterlimit="10" stroke-dasharray=""/><path fill="rgb(255,255,255)" stroke="rgb(220,20,60)" paint-order="fill" d="M 108.81818389892578 340.7727355957031 A 2 2 0 0 1 104.81818389892578 340.7727355957031 A 2 2 0 0 1 108.81818389892578 340.7727355957031" fill-opacity="1" clip-path="url(#uibCbelKmFzK)" stroke-opacity="1" stroke-linejoin="bevel" stroke-miterlimit="10" stroke-dasharray=""/><path fill="rgb(255,255,255)" stroke="rgb(220,20,60)" paint-order="fill" d="M 127.18181610107422 340.7727355957031 A 2 2 0 0 1 123.18181610107422 340.7727355957031 A 2 2 0 0 1 127.18181610107422 340.7727355957031" fill-opacity="1" clip-path="url(#uibCbelKmFzK)" stroke-opacity="1" stroke-linejoin="bevel" stroke-miterlimit="10" stroke-dasharray=""/><path fill="rgb(255,255,255)" stroke="rgb(220,20,60)" paint-order="fill" d="M 145.5454559326172 340.7727355957031 A 2 2 0 0 1 141.5454559326172 340.7727355957031 A 2 2 0 0 1 145.5454559326172 340.7727355957031" fill-opacity="1" clip-path="url(#uibCbelKmFzK)" stroke-opacity="1" stroke-linejoin="bevel" stroke-miterlimit="10" stroke-dasharray=""/><path fill="rgb(255,255,255)" stroke="rgb(220,20,60)" paint-order="fill" d="M 163.90908813476562 340.5190124511719 A 2 2 0 0 1 159.90908813476562 340.5190124511719 A 2 2 0 0 1 163.90908813476562 340.5190124511719" fill-opacity="1" clip-path="url(#uibCbelKmFzK)" stroke-opacity="1" stroke-linejoin="bevel" stroke-miterlimit="10" stroke-dasharray=""/><path fill="rgb(255,255,255)" stroke="rgb(220,20,60)" paint-order="fill" d="M 182.27272033691406 332.90802001953125 A 2 2 0 0 1 178.27272033691406 332.90802001953125 A 2 2 0 0 1 182.27272033691406 332.90802001953125" fill-opacity="1" clip-path="url(#uibCbelKmFzK)" stroke-opacity="1" stroke-linejoin="bevel" stroke-miterlimit="10" stroke-dasharray=""/><path fill="rgb(255,255,255)" stroke="rgb(220,20,60)" paint-order="fill" d="M 200.63636779785156 322.7600402832031 A 2 2 0 0 1 196.63636779785156 322.7600402832031 A 2 2 0 0 1 200.63636779785156 322.7600402832031" fill-opacity="1" clip-path="url(#uibCbelKmFzK)" stroke-opacity="1" stroke-linejoin="bevel" stroke-miterlimit="10" stroke-dasharray=""/><path fill="rgb(255,255,255)" stroke="rgb(220,20,60)" paint-order="fill" d="M 219 306.015869140625 A 2 2 0 0 1 215 306.015869140625 A 2 2 0 0 1 219 306.015869140625" fill-opacity="1" clip-path="url(#uibCbelKmFzK)" stroke-opacity="1" stroke-linejoin="bevel" stroke-miterlimit="10" stroke-dasharray=""/><path fill="rgb(255,255,255)" stroke="rgb(220,20,60)" paint-order="fill" d="M 237.36363220214844 286.73468017578125 A 2 2 0 0 1 233.36363220214844 286.73468017578125 A 2 2 0 0 1 237.36363220214844 286.73468017578125" fill-opacity="1" clip-path="url(#uibCbelKmFzK)" stroke-opacity="1" stroke-linejoin="bevel" stroke-miterlimit="10" stroke-dasharray=""/><path fill="rgb(255,255,255)" stroke="rgb(220,20,60)" paint-order="fill" d="M 255.72727966308594 256.5444030761719 A 2 2 0 0 1 251.72727966308594 256.5444030761719 A 2 2 0 0 1 255.72727966308594 256.5444030761719" fill-opacity="1" clip-path="url(#uibCbelKmFzK)" stroke-opacity="1" stroke-linejoin="bevel" stroke-miterlimit="10" stroke-dasharray=""/><path fill="rgb(255,255,255)" stroke="rgb(220,20,60)" paint-order="fill" d="M 274.0909118652344 227.62261962890625 A 2 2 0 0 1 270.0909118652344 227.62261962890625 A 2 2 0 0 1 274.0909118652344 227.62261962890625" fill-opacity="1" clip-path="url(#uibCbelKmFzK)" stroke-opacity="1" stroke-linejoin="bevel" stroke-miterlimit="10" stroke-dasharray=""/><path fill="rgb(255,255,255)" stroke="rgb(220,20,60)" paint-order="fill" d="M 292.4545593261719 200.98414611816406 A 2 2 0 0 1 288.4545593261719 200.98414611816406 A 2 2 0 0 1 292.4545593261719 200.98414611816406" fill-opacity="1" clip-path="url(#uibCbelKmFzK)" stroke-opacity="1" stroke-linejoin="bevel" stroke-miterlimit="10" stroke-dasharray=""/><path fill="rgb(255,255,255)" stroke="rgb(220,20,60)" paint-order="fill" d="M 310.81817626953125 180.94186401367188 A 2 2 0 0 1 306.81817626953125 180.94186401367188 A 2 2 0 0 1 310.81817626953125 180.94186401367188" fill-opacity="1" clip-path="url(#uibCbelKmFzK)" stroke-opacity="1" stroke-linejoin="bevel" stroke-miterlimit="10" stroke-dasharray=""/><path fill="rgb(255,255,255)" stroke="rgb(220,20,60)" paint-order="fill" d="M 329.18182373046875 160.8995819091797 A 2 2 0 0 1 325.18182373046875 160.8995819091797 A 2 2 0 0 1 329.18182373046875 160.8995819091797" fill-opacity="1" clip-path="url(#uibCbelKmFzK)" stroke-opacity="1" stroke-linejoin="bevel" stroke-miterlimit="10" stroke-dasharray=""/><path fill="rgb(255,255,255)" stroke="rgb(220,20,60)" paint-order="fill" d="M 347.5454406738281 147.70718383789062 A 2 2 0 0 1 343.5454406738281 147.70718383789062 A 2 2 0 0 1 347.5454406738281 147.70718383789062" fill-opacity="1" clip-path="url(#uibCbelKmFzK)" stroke-opacity="1" stroke-linejoin="bevel" stroke-miterlimit="10" stroke-dasharray=""/><path fill="rgb(255,255,255)" stroke="rgb(220,20,60)" paint-order="fill" d="M 365.9090881347656 135.78329467773438 A 2 2 0 0 1 361.9090881347656 135.78329467773438 A 2 2 0 0 1 365.9090881347656 135.78329467773438" fill-opacity="1" clip-path="url(#uibCbelKmFzK)" stroke-opacity="1" stroke-linejoin="bevel" stroke-miterlimit="10" stroke-dasharray=""/><path fill="rgb(255,255,255)" stroke="rgb(220,20,60)" paint-order="fill" d="M 384.2727355957031 125.88900756835938 A 2 2 0 0 1 380.2727355957031 125.88900756835938 A 2 2 0 0 1 384.2727355957031 125.88900756835938" fill-opacity="1" clip-path="url(#uibCbelKmFzK)" stroke-opacity="1" stroke-linejoin="bevel" stroke-miterlimit="10" stroke-dasharray=""/><path fill="rgb(255,255,255)" stroke="rgb(220,20,60)" paint-order="fill" d="M 402.6363525390625 118.5317153930664 A 2 2 0 0 1 398.6363525390625 118.5317153930664 A 2 2 0 0 1 402.6363525390625 118.5317153930664" fill-opacity="1" clip-path="url(#uibCbelKmFzK)" stroke-opacity="1" stroke-linejoin="bevel" stroke-miterlimit="10" stroke-dasharray=""/><path fill="rgb(255,255,255)" stroke="rgb(220,20,60)" paint-order="fill" d="M 421 108.63742065429688 A 2 2 0 0 1 417 108.63742065429688 A 2 2 0 0 1 421 108.63742065429688" fill-opacity="1" clip-path="url(#uibCbelKmFzK)" stroke-opacity="1" stroke-linejoin="bevel" stroke-miterlimit="10" stroke-dasharray=""/><path fill="rgb(255,255,255)" stroke="rgb(220,20,60)" paint-order="fill" d="M 439.3636474609375 100.26532745361328 A 2 2 0 0 1 435.3636474609375 100.26532745361328 A 2 2 0 0 1 439.3636474609375 100.26532745361328" fill-opacity="1" clip-path="url(#uibCbelKmFzK)" stroke-opacity="1" stroke-linejoin="bevel" stroke-miterlimit="10" stroke-dasharray=""/><path fill="rgb(255,255,255)" stroke="rgb(220,20,60)" paint-order="fill" d="M 457.7272644042969 87.83403778076172 A 2 2 0 0 1 453.7272644042969 87.83403778076172 A 2 2 0 0 1 457.7272644042969 87.83403778076172" fill-opacity="1" clip-path="url(#uibCbelKmFzK)" stroke-opacity="1" stroke-linejoin="bevel" stroke-miterlimit="10" stroke-dasharray=""/><path fill="rgb(255,255,255)" stroke="rgb(220,20,60)" paint-order="fill" d="M 476.0909118652344 75.91014862060547 A 2 2 0 0 1 472.0909118652344 75.91014862060547 A 2 2 0 0 1 476.0909118652344 75.91014862060547" fill-opacity="1" clip-path="url(#uibCbelKmFzK)" stroke-opacity="1" stroke-linejoin="bevel" stroke-miterlimit="10" stroke-dasharray=""/><path fill="rgb(255,255,255)" stroke="rgb(220,20,60)" paint-order="fill" d="M 494.4545593261719 66.7769546508789 A 2 2 0 0 1 490.4545593261719 66.7769546508789 A 2 2 0 0 1 494.4545593261719 66.7769546508789" fill-opacity="1" clip-path="url(#uibCbelKmFzK)" stroke-opacity="1" stroke-linejoin="bevel" stroke-miterlimit="10" stroke-dasharray=""/><path fill="rgb(255,255,255)" stroke="rgb(220,20,60)" paint-order="fill" d="M 512.8181762695312 59.16596221923828 A 2 2 0 0 1 508.81817626953125 59.16596221923828 A 2 2 0 0 1 512.8181762695312 59.16596221923828" fill-opacity="1" clip-path="url(#uibCbelKmFzK)" stroke-opacity="1" stroke-linejoin="bevel" stroke-miterlimit="10" stroke-dasharray=""/><path fill="rgb(255,255,255)" stroke="rgb(220,20,60)" paint-order="fill" d="M 531.1818237304688 52.569766998291016 A 2 2 0 0 1 527.1818237304688 52.569766998291016 A 2 2 0 0 1 531.1818237304688 52.569766998291016" fill-opacity="1" clip-path="url(#uibCbelKmFzK)" stroke-opacity="1" stroke-linejoin="bevel" stroke-miterlimit="10" stroke-dasharray=""/><path fill="rgb(255,255,255)" stroke="rgb(220,20,60)" paint-order="fill" d="M 549.5454711914062 46.227272033691406 A 2 2 0 0 1 545.5454711914062 46.227272033691406 A 2 2 0 0 1 549.5454711914062 46.227272033691406" fill-opacity="1" clip-path="url(#uibCbelKmFzK)" stroke-opacity="1" stroke-linejoin="bevel" stroke-miterlimit="10" stroke-dasharray=""/><path fill="none" stroke="rgb(75,0,130)" paint-order="fill" d="M 88.45454406738281 134.0074005126953 L 106.81818389892578 136.03700256347656 L 125.18181610107422 148.46829223632812 L 143.5454559326172 172.06236267089844 L 161.90908813476562 221.28012084960938 L 180.27272033691406 259.58880615234375 L 198.63636779785156 290.2864685058594 L 217 306.52325439453125 L 235.36363220214844 319.71563720703125 L 253.72727966308594 325.5507507324219 L 272.0909118652344 327.5803527832031 L 290.4545593261719 328.5951232910156 L 308.81817626953125 330.8784484863281 L 327.18182373046875 333.1617431640625 L 345.5454406738281 334.1765441894531 L 363.9090881347656 336.4598388671875 L 382.2727355957031 336.7135314941406 L 400.6363525390625 337.2209167480469 L 419 337.72833251953125 L 437.3636474609375 338.48944091796875 L 455.7272644042969 338.996826171875 L 474.0909118652344 339.5042419433594 L 492.4545593261719 340.0116271972656 L 510.81817626953125 340.0116271972656 L 529.1818237304688 340.26531982421875 L 547.5454711914062 340.26531982421875" stroke-opacity="1" stroke-linejoin="bevel" stroke-miterlimit="10" stroke-dasharray="" clip-path="url(#cMvelAuCZUOu)"/><path fill="rgb(255,255,255)" stroke="rgb(75,0,130)" paint-order="fill" d="M 90.45454406738281 134.0074005126953 A 2 2 0 0 1 86.45454406738281 134.0074005126953 A 2 2 0 0 1 90.45454406738281 134.0074005126953" fill-opacity="1" clip-path="url(#OJxCKhJXDeEc)" stroke-opacity="1" stroke-linejoin="bevel" stroke-miterlimit="10" stroke-dasharray=""/><path fill="rgb(255,255,255)" stroke="rgb(75,0,130)" paint-order="fill" d="M 108.81818389892578 136.03700256347656 A 2 2 0 0 1 104.81818389892578 136.03700256347656 A 2 2 0 0 1 108.81818389892578 136.03700256347656" fill-opacity="1" clip-path="url(#OJxCKhJXDeEc)" stroke-opacity="1" stroke-linejoin="bevel" stroke-miterlimit="10" stroke-dasharray=""/><path fill="rgb(255,255,255)" stroke="rgb(75,0,130)" paint-order="fill" d="M 127.18181610107422 148.46829223632812 A 2 2 0 0 1 123.18181610107422 148.46829223632812 A 2 2 0 0 1 127.18181610107422 148.46829223632812" fill-opacity="1" clip-path="url(#OJxCKhJXDeEc)" stroke-opacity="1" stroke-linejoin="bevel" stroke-miterlimit="10" stroke-dasharray=""/><path fill="rgb(255,255,255)" stroke="rgb(75,0,130)" paint-order="fill" d="M 145.5454559326172 172.06236267089844 A 2 2 0 0 1 141.5454559326172 172.06236267089844 A 2 2 0 0 1 145.5454559326172 172.06236267089844" fill-opacity="1" clip-path="url(#OJxCKhJXDeEc)" stroke-opacity="1" stroke-linejoin="bevel" stroke-miterlimit="10" stroke-dasharray=""/><path fill="rgb(255,255,255)" stroke="rgb(75,0,130)" paint-order="fill" d="M 163.90908813476562 221.28012084960938 A 2 2 0 0 1 159.90908813476562 221.28012084960938 A 2 2 0 0 1 163.90908813476562 221.28012084960938" fill-opacity="1" clip-path="url(#OJxCKhJXDeEc)" stroke-opacity="1" stroke-linejoin="bevel" stroke-miterlimit="10" stroke-dasharray=""/><path fill="rgb(255,255,255)" stroke="rgb(75,0,130)" paint-order="fill" d="M 182.27272033691406 259.58880615234375 A 2 2 0 0 1 178.27272033691406 259.58880615234375 A 2 2 0 0 1 182.27272033691406 259.58880615234375" fill-opacity="1" clip-path="url(#OJxCKhJXDeEc)" stroke-opacity="1" stroke-linejoin="bevel" stroke-miterlimit="10" stroke-dasharray=""/><path fill="rgb(255,255,255)" stroke="rgb(75,0,130)" paint-order="fill" d="M 200.63636779785156 290.2864685058594 A 2 2 0 0 1 196.63636779785156 290.2864685058594 A 2 2 0 0 1 200.63636779785156 290.2864685058594" fill-opacity="1" clip-path="url(#OJxCKhJXDeEc)" stroke-opacity="1" stroke-linejoin="bevel" stroke-miterlimit="10" stroke-dasharray=""/><path fill="rgb(255,255,255)" stroke="rgb(75,0,130)" paint-order="fill" d="M 219 306.52325439453125 A 2 2 0 0 1 215 306.52325439453125 A 2 2 0 0 1 219 306.52325439453125" fill-opacity="1" clip-path="url(#OJxCKhJXDeEc)" stroke-opacity="1" stroke-linejoin="bevel" stroke-miterlimit="10" stroke-dasharray=""/><path fill="rgb(255,255,255)" stroke="rgb(75,0,130)" paint-order="fill" d="M 237.36363220214844 319.71563720703125 A 2 2 0 0 1 233.36363220214844 319.71563720703125 A 2 2 0 0 1 237.36363220214844 319.71563720703125" fill-opacity="1" clip-path="url(#OJxCKhJXDeEc)" stroke-opacity="1" stroke-linejoin="bevel" stroke-miterlimit="10" stroke-dasharray=""/><path fill="rgb(255,255,255)" stroke="rgb(75,0,130)" paint-order="fill" d="M 255.72727966308594 325.5507507324219 A 2 2 0 0 1 251.72727966308594 325.5507507324219 A 2 2 0 0 1 255.72727966308594 325.5507507324219" fill-opacity="1" clip-path="url(#OJxCKhJXDeEc)" stroke-opacity="1" stroke-linejoin="bevel" stroke-miterlimit="10" stroke-dasharray=""/><path fill="rgb(255,255,255)" stroke="rgb(75,0,130)" paint-order="fill" d="M 274.0909118652344 327.5803527832031 A 2 2 0 0 1 270.0909118652344 327.5803527832031 A 2 2 0 0 1 274.0909118652344 327.5803527832031" fill-opacity="1" clip-path="url(#OJxCKhJXDeEc)" stroke-opacity="1" stroke-linejoin="bevel" stroke-miterlimit="10" stroke-dasharray=""/><path fill="rgb(255,255,255)" stroke="rgb(75,0,130)" paint-order="fill" d="M 292.4545593261719 328.5951232910156 A 2 2 0 0 1 288.4545593261719 328.5951232910156 A 2 2 0 0 1 292.4545593261719 328.5951232910156" fill-opacity="1" clip-path="url(#OJxCKhJXDeEc)" stroke-opacity="1" stroke-linejoin="bevel" stroke-miterlimit="10" stroke-dasharray=""/><path fill="rgb(255,255,255)" stroke="rgb(75,0,130)" paint-order="fill" d="M 310.81817626953125 330.8784484863281 A 2 2 0 0 1 306.81817626953125 330.8784484863281 A 2 2 0 0 1 310.81817626953125 330.8784484863281" fill-opacity="1" clip-path="url(#OJxCKhJXDeEc)" stroke-opacity="1" stroke-linejoin="bevel" stroke-miterlimit="10" stroke-dasharray=""/><path fill="rgb(255,255,255)" stroke="rgb(75,0,130)" paint-order="fill" d="M 329.18182373046875 333.1617431640625 A 2 2 0 0 1 325.18182373046875 333.1617431640625 A 2 2 0 0 1 329.18182373046875 333.1617431640625" fill-opacity="1" clip-path="url(#OJxCKhJXDeEc)" stroke-opacity="1" stroke-linejoin="bevel" stroke-miterlimit="10" stroke-dasharray=""/><path fill="rgb(255,255,255)" stroke="rgb(75,0,130)" paint-order="fill" d="M 347.5454406738281 334.1765441894531 A 2 2 0 0 1 343.5454406738281 334.1765441894531 A 2 2 0 0 1 347.5454406738281 334.1765441894531" fill-opacity="1" clip-path="url(#OJxCKhJXDeEc)" stroke-opacity="1" stroke-linejoin="bevel" stroke-miterlimit="10" stroke-dasharray=""/><path fill="rgb(255,255,255)" stroke="rgb(75,0,130)" paint-order="fill" d="M 365.9090881347656 336.4598388671875 A 2 2 0 0 1 361.9090881347656 336.4598388671875 A 2 2 0 0 1 365.9090881347656 336.4598388671875" fill-opacity="1" clip-path="url(#OJxCKhJXDeEc)" stroke-opacity="1" stroke-linejoin="bevel" stroke-miterlimit="10" stroke-dasharray=""/><path fill="rgb(255,255,255)" stroke="rgb(75,0,130)" paint-order="fill" d="M 384.2727355957031 336.7135314941406 A 2 2 0 0 1 380.2727355957031 336.7135314941406 A 2 2 0 0 1 384.2727355957031 336.7135314941406" fill-opacity="1" clip-path="url(#OJxCKhJXDeEc)" stroke-opacity="1" stroke-linejoin="bevel" stroke-miterlimit="10" stroke-dasharray=""/><path fill="rgb(255,255,255)" stroke="rgb(75,0,130)" paint-order="fill" d="M 402.6363525390625 337.2209167480469 A 2 2 0 0 1 398.6363525390625 337.2209167480469 A 2 2 0 0 1 402.6363525390625 337.2209167480469" fill-opacity="1" clip-path="url(#OJxCKhJXDeEc)" stroke-opacity="1" stroke-linejoin="bevel" stroke-miterlimit="10" stroke-dasharray=""/><path fill="rgb(255,255,255)" stroke="rgb(75,0,130)" paint-order="fill" d="M 421 337.72833251953125 A 2 2 0 0 1 417 337.72833251953125 A 2 2 0 0 1 421 337.72833251953125" fill-opacity="1" clip-path="url(#OJxCKhJXDeEc)" stroke-opacity="1" stroke-linejoin="bevel" stroke-miterlimit="10" stroke-dasharray=""/><path fill="rgb(255,255,255)" stroke="rgb(75,0,130)" paint-order="fill" d="M 439.3636474609375 338.48944091796875 A 2 2 0 0 1 435.3636474609375 338.48944091796875 A 2 2 0 0 1 439.3636474609375 338.48944091796875" fill-opacity="1" clip-path="url(#OJxCKhJXDeEc)" stroke-opacity="1" stroke-linejoin="bevel" stroke-miterlimit="10" stroke-dasharray=""/><path fill="rgb(255,255,255)" stroke="rgb(75,0,130)" paint-order="fill" d="M 457.7272644042969 338.996826171875 A 2 2 0 0 1 453.7272644042969 338.996826171875 A 2 2 0 0 1 457.7272644042969 338.996826171875" fill-opacity="1" clip-path="url(#OJxCKhJXDeEc)" stroke-opacity="1" stroke-linejoin="bevel" stroke-miterlimit="10" stroke-dasharray=""/><path fill="rgb(255,255,255)" stroke="rgb(75,0,130)" paint-order="fill" d="M 476.0909118652344 339.5042419433594 A 2 2 0 0 1 472.0909118652344 339.5042419433594 A 2 2 0 0 1 476.0909118652344 339.5042419433594" fill-opacity="1" clip-path="url(#OJxCKhJXDeEc)" stroke-opacity="1" stroke-linejoin="bevel" stroke-miterlimit="10" stroke-dasharray=""/><path fill="rgb(255,255,255)" stroke="rgb(75,0,130)" paint-order="fill" d="M 494.4545593261719 340.0116271972656 A 2 2 0 0 1 490.4545593261719 340.0116271972656 A 2 2 0 0 1 494.4545593261719 340.0116271972656" fill-opacity="1" clip-path="url(#OJxCKhJXDeEc)" stroke-opacity="1" stroke-linejoin="bevel" stroke-miterlimit="10" stroke-dasharray=""/><path fill="rgb(255,255,255)" stroke="rgb(75,0,130)" paint-order="fill" d="M 512.8181762695312 340.0116271972656 A 2 2 0 0 1 508.81817626953125 340.0116271972656 A 2 2 0 0 1 512.8181762695312 340.0116271972656" fill-opacity="1" clip-path="url(#OJxCKhJXDeEc)" stroke-opacity="1" stroke-linejoin="bevel" stroke-miterlimit="10" stroke-dasharray=""/><path fill="rgb(255,255,255)" stroke="rgb(75,0,130)" paint-order="fill" d="M 531.1818237304688 340.26531982421875 A 2 2 0 0 1 527.1818237304688 340.26531982421875 A 2 2 0 0 1 531.1818237304688 340.26531982421875" fill-opacity="1" clip-path="url(#OJxCKhJXDeEc)" stroke-opacity="1" stroke-linejoin="bevel" stroke-miterlimit="10" stroke-dasharray=""/><path fill="rgb(255,255,255)" stroke="rgb(75,0,130)" paint-order="fill" d="M 549.5454711914062 340.26531982421875 A 2 2 0 0 1 545.5454711914062 340.26531982421875 A 2 2 0 0 1 549.5454711914062 340.26531982421875" fill-opacity="1" clip-path="url(#OJxCKhJXDeEc)" stroke-opacity="1" stroke-linejoin="bevel" stroke-miterlimit="10" stroke-dasharray=""/><path fill="none" stroke="rgb(0,0,0)" paint-order="fill" d="M 65.5 355.5 L 570.5 355.5" stroke-opacity="1" stroke-linejoin="bevel" stroke-miterlimit="10" stroke-dasharray=""/><path fill="none" stroke="rgb(0,0,0)" paint-order="fill" d="M 88.5 361.5 L 88.5 353.5 M 180.5 361.5 L 180.5 353.5 M 272.5 361.5 L 272.5 353.5 M 363.5 361.5 L 363.5 353.5 M 455.5 361.5 L 455.5 353.5 M 547.5 361.5 L 547.5 353.5" stroke-opacity="1" stroke-linejoin="bevel" stroke-miterlimit="10" stroke-dasharray=""/><path fill="none" stroke="rgb(0,0,0)" paint-order="fill" d="M 70.5 359.5 L 70.5 355.5 M 88.5 359.5 L 88.5 355.5 M 106.5 359.5 L 106.5 355.5 M 125.5 359.5 L 125.5 355.5 M 143.5 359.5 L 143.5 355.5 M 161.5 359.5 L 161.5 355.5 M 180.5 359.5 L 180.5 355.5 M 198.5 359.5 L 198.5 355.5 M 217.5 359.5 L 217.5 355.5 M 235.5 359.5 L 235.5 355.5 M 253.5 359.5 L 253.5 355.5 M 272.5 359.5 L 272.5 355.5 M 290.5 359.5 L 290.5 355.5 M 308.5 359.5 L 308.5 355.5 M 327.5 359.5 L 327.5 355.5 M 345.5 359.5 L 345.5 355.5 M 363.5 359.5 L 363.5 355.5 M 382.5 359.5 L 382.5 355.5 M 400.5 359.5 L 400.5 355.5 M 419.5 359.5 L 419.5 355.5 M 437.5 359.5 L 437.5 355.5 M 455.5 359.5 L 455.5 355.5 M 474.5 359.5 L 474.5 355.5 M 492.5 359.5 L 492.5 355.5 M 510.5 359.5 L 510.5 355.5 M 529.5 359.5 L 529.5 355.5 M 547.5 359.5 L 547.5 355.5 M 565.5 359.5 L 565.5 355.5" stroke-opacity="1" stroke-linejoin="bevel" stroke-miterlimit="10" stroke-dasharray=""/><text fill="rgb(68,68,68)" stroke="none" font-family="helvetica" font-size="11px" font-style="normal" font-weight="normal" text-decoration="normal" x="84.45454406738281" y="374" text-anchor="start" dominant-baseline="alphabetic" transform="matrix(1, 0, 0, 1, 0.5, 0.5)" fill-opacity="1">2</text><text fill="rgb(68,68,68)" stroke="none" font-family="helvetica" font-size="11px" font-style="normal" font-weight="normal" text-decoration="normal" x="176.27272033691406" y="374" text-anchor="start" dominant-baseline="alphabetic" transform="matrix(1, 0, 0, 1, 0.5, 0.5)" fill-opacity="1">3</text><text fill="rgb(68,68,68)" stroke="none" font-family="helvetica" font-size="11px" font-style="normal" font-weight="normal" text-decoration="normal" x="268.0909118652344" y="374" text-anchor="start" dominant-baseline="alphabetic" transform="matrix(1, 0, 0, 1, 0.5, 0.5)" fill-opacity="1">4</text><text fill="rgb(68,68,68)" stroke="none" font-family="helvetica" font-size="11px" font-style="normal" font-weight="normal" text-decoration="normal" x="359.9090881347656" y="374" text-anchor="start" dominant-baseline="alphabetic" transform="matrix(1, 0, 0, 1, 0.5, 0.5)" fill-opacity="1">5</text><text fill="rgb(68,68,68)" stroke="none" font-family="helvetica" font-size="11px" font-style="normal" font-weight="normal" text-decoration="normal" x="451.7272644042969" y="374" text-anchor="start" dominant-baseline="alphabetic" transform="matrix(1, 0, 0, 1, 0.5, 0.5)" fill-opacity="1">6</text><text fill="rgb(68,68,68)" stroke="none" font-family="helvetica" font-size="11px" font-style="normal" font-weight="normal" text-decoration="normal" x="543.5454711914062" y="374" text-anchor="start" dominant-baseline="alphabetic" transform="matrix(1, 0, 0, 1, 0.5, 0.5)" fill-opacity="1">7</text><text fill="rgb(68,68,68)" stroke="none" font-family="helvetica" font-size="13px" font-style="italic" font-weight="normal" text-decoration="normal" x="205" y="394" text-anchor="start" dominant-baseline="alphabetic" transform="matrix(1, 0, 0, 1, 0.5, 0.5)" fill-opacity="1">Reconstruction Error Threshold (%)</text><path fill="none" stroke="rgb(0,0,0)" paint-order="fill" d="M 65.5 355.5 L 65.5 31.5" stroke-opacity="1" stroke-linejoin="bevel" stroke-miterlimit="10" stroke-dasharray=""/><path fill="none" stroke="rgb(0,0,0)" paint-order="fill" d="M 59.5 340.5 L 67.5 340.5 M 59.5 290.5 L 67.5 290.5 M 59.5 239.5 L 67.5 239.5 M 59.5 188.5 L 67.5 188.5 M 59.5 137.5 L 67.5 137.5 M 59.5 87.5 L 67.5 87.5 M 59.5 36.5 L 67.5 36.5" stroke-opacity="1" stroke-linejoin="bevel" stroke-miterlimit="10" stroke-dasharray=""/><path fill="none" stroke="rgb(0,0,0)" paint-order="fill" d="M 61.5 350.5 L 65.5 350.5 M 61.5 340.5 L 65.5 340.5 M 61.5 330.5 L 65.5 330.5 M 61.5 320.5 L 65.5 320.5 M 61.5 310.5 L 65.5 310.5 M 61.5 300.5 L 65.5 300.5 M 61.5 290.5 L 65.5 290.5 M 61.5 279.5 L 65.5 279.5 M 61.5 269.5 L 65.5 269.5 M 61.5 259.5 L 65.5 259.5 M 61.5 249.5 L 65.5 249.5 M 61.5 239.5 L 65.5 239.5 M 61.5 229.5 L 65.5 229.5 M 61.5 218.5 L 65.5 218.5 M 61.5 208.5 L 65.5 208.5 M 61.5 198.5 L 65.5 198.5 M 61.5 188.5 L 65.5 188.5 M 61.5 178.5 L 65.5 178.5 M 61.5 168.5 L 65.5 168.5 M 61.5 158.5 L 65.5 158.5 M 61.5 147.5 L 65.5 147.5 M 61.5 137.5 L 65.5 137.5 M 61.5 127.5 L 65.5 127.5 M 61.5 117.5 L 65.5 117.5 M 61.5 107.5 L 65.5 107.5 M 61.5 97.5 L 65.5 97.5 M 61.5 87.5 L 65.5 87.5 M 61.5 76.5 L 65.5 76.5 M 61.5 66.5 L 65.5 66.5 M 61.5 56.5 L 65.5 56.5 M 61.5 46.5 L 65.5 46.5 M 61.5 36.5 L 65.5 36.5" stroke-opacity="1" stroke-linejoin="bevel" stroke-miterlimit="10" stroke-dasharray=""/><text fill="rgb(68,68,68)" stroke="none" font-family="helvetica" font-size="11px" font-style="normal" font-weight="normal" text-decoration="normal" x="47" y="344.2727355957031" text-anchor="start" dominant-baseline="alphabetic" transform="matrix(1, 0, 0, 1, 0.5, 0.5)" fill-opacity="1">0</text><text fill="rgb(68,68,68)" stroke="none" font-family="helvetica" font-size="11px" font-style="normal" font-weight="normal" text-decoration="normal" x="33" y="293.53277587890625" text-anchor="start" dominant-baseline="alphabetic" transform="matrix(1, 0, 0, 1, 0.5, 0.5)" fill-opacity="1">200</text><text fill="rgb(68,68,68)" stroke="none" font-family="helvetica" font-size="11px" font-style="normal" font-weight="normal" text-decoration="normal" x="33" y="242.79281616210938" text-anchor="start" dominant-baseline="alphabetic" transform="matrix(1, 0, 0, 1, 0.5, 0.5)" fill-opacity="1">400</text><text fill="rgb(68,68,68)" stroke="none" font-family="helvetica" font-size="11px" font-style="normal" font-weight="normal" text-decoration="normal" x="33" y="192.0528564453125" text-anchor="start" dominant-baseline="alphabetic" transform="matrix(1, 0, 0, 1, 0.5, 0.5)" fill-opacity="1">600</text><text fill="rgb(68,68,68)" stroke="none" font-family="helvetica" font-size="11px" font-style="normal" font-weight="normal" text-decoration="normal" x="33" y="141.31289672851562" text-anchor="start" dominant-baseline="alphabetic" transform="matrix(1, 0, 0, 1, 0.5, 0.5)" fill-opacity="1">800</text><text fill="rgb(68,68,68)" stroke="none" font-family="helvetica" font-size="11px" font-style="normal" font-weight="normal" text-decoration="normal" x="26" y="90.57293701171875" text-anchor="start" dominant-baseline="alphabetic" transform="matrix(1, 0, 0, 1, 0.5, 0.5)" fill-opacity="1">1000</text><text fill="rgb(68,68,68)" stroke="none" font-family="helvetica" font-size="11px" font-style="normal" font-weight="normal" text-decoration="normal" x="26" y="39.83298110961914" text-anchor="start" dominant-baseline="alphabetic" transform="matrix(1, 0, 0, 1, 0.5, 0.5)" fill-opacity="1">1200</text><text fill="rgb(68,68,68)" stroke="none" font-family="helvetica" font-size="13px" font-style="italic" font-weight="normal" text-decoration="normal" x="-17.5" y="190" text-anchor="start" dominant-baseline="alphabetic" transform="matrix(6.123233995736766e-17, -1, 1, 6.123233995736766e-17, -174.5, 211.5)" fill-opacity="1"># Samples</text><path fill="rgb(255,255,255)" stroke="rgb(229,229,229)" paint-order="fill" d="M 75.5 41.5 L 202.5 41.5 L 202.5 104.5 L 75.5 104.5 L 75.5 41.5" fill-opacity="0.9490196078431372" clip-path="url(#AAUlktdtuRsA)" stroke-opacity="0.5019607843137255" stroke-linejoin="bevel" stroke-miterlimit="10" stroke-dasharray=""/><g clip-path="url(#AAUlktdtuRsA)"><text fill="rgb(68,68,68)" stroke="none" font-family="helvetica" font-size="8pt" font-style="normal" font-weight="normal" text-decoration="normal" x="110" y="61" text-anchor="start" dominant-baseline="central" transform="matrix(1, 0, 0, 1, 0.5, 0.5)" fill-opacity="1">False Negative</text></g><path fill="none" stroke="rgb(220,20,60)" paint-order="fill" d="M 85.5 61.5 L 105.5 61.5" stroke-opacity="1" stroke-linejoin="bevel" stroke-miterlimit="10" stroke-dasharray="" clip-path="url(#AAUlktdtuRsA)"/><g clip-path="url(#AAUlktdtuRsA)"><text fill="rgb(68,68,68)" stroke="none" font-family="helvetica" font-size="8pt" font-style="normal" font-weight="normal" text-decoration="normal" x="110" y="84" text-anchor="start" dominant-baseline="central" transform="matrix(1, 0, 0, 1, 0.5, 0.5)" fill-opacity="1">False Positive</text></g><path fill="none" stroke="rgb(75,0,130)" paint-order="fill" d="M 85.5 84.5 L 105.5 84.5" stroke-opacity="1" stroke-linejoin="bevel" stroke-miterlimit="10" stroke-dasharray="" clip-path="url(#AAUlktdtuRsA)"/><text fill="rgb(68,68,68)" stroke="none" font-family="helvetica" font-size="12pt" font-style="normal" font-weight="bold" text-decoration="normal" x="132.5" y="22" text-anchor="start" dominant-baseline="alphabetic" transform="matrix(1, 0, 0, 1, 0.5, 0.5)" fill-opacity="1">AutoEncoder: Best Threshold Exploration</text></svg>