<svg version="1.1" xmlns="http://www.w3.org/2000/svg" width="600" height="400"><defs><clipPath id="GFcvEgTwdzMo"><path fill="none" stroke="none" d="M 65.5 31.5 L 570.5 31.5 L 570.5 355.5 L 65.5 355.5 L 65.5 31.5"/></clipPath><clipPath id="JZdiMcSdQTcs"><path fill="none" stroke="none" d="M 65.5 31.5 L 570.5 31.5 L 570.5 355.5 L 65.5 355.5 L 65.5 31.5"/></clipPath><clipPath id="DNpGTGTbTkzz"><path fill="none" stroke="none" d="M 65.5 31.5 L 570.5 31.5 L 570.5 355.5 L 65.5 355.5 L 65.5 31.5"/></clipPath><clipPath id="vFmBQrMepXOK"><path fill="none" stroke="none" d="M 65.5 31.5 L 570.5 31.5 L 570.5 355.5 L 65.5 355.5 L 65.5 31.5"/></clipPath><clipPath id="ShhvanRlTiCs"><path fill="none" stroke="none" d="M 65.5 31.5 L 570.5 31.5 L 570.5 355.5 L 65.5 355.5 L 65.5 31.5"/></clipPath><clipPath id="TaBPQmFPOzWs"><path fill="none" stroke="none" d="M 65.5 31.5 L 570.5 31.5 L 570.5 355.5 L 65.5 355.5 L 65.5 31.5"/></clipPath><clipPath id="VZdZXFOhkJXq"><path fill="none" stroke="none" d="M 65.5 31.5 L 570.5 31.5 L 570.5 355.5 L 65.5 355.5 L 65.5 31.5"/></clipPath><clipPath id="wfZcsRRMJVsR"><path fill="none" stroke="none" d="M 65.5 31.5 L 570.5 31.5 L 570.5 355.5 L 65.5 355.5 L 65.5 31.5"/></clipPath></defs><path fill="rgb(255,255,255)" stroke="none" paint-order="stroke" d="M 0.5 0.5 L 600.5 0.5 L 600.5 400.5 L 0.5 400.5 L 0.5 0.5" fill-opacity="1"/><rect fill="#FFFFFF" stroke="none" x="65" y="31" width="505" height="324" transform="matrix(1, 0, 0, 1, 0.5, 0.5)"/><path fill="rgb(255,255,255)" stroke="none" paint-order="stroke" d="M 65.5 31.5 L 570.5 31.5 L 570.5 355.5 L 65.5 355.5 L 65.5 31.5" fill-opacity="1"/><path fill="none" stroke="rgb(229,229,229)" paint-order="fill" d="M 65.5 31.5 L 570.5 31.5 L 570.5 355.5 L 65.5 355.5 L 65.5 31.5" stroke-opacity="1" stroke-linejoin="bevel" stroke-miterlimit="10" stroke-dasharray=""/><path fill="none" stroke="rgb(229,229,229)" paint-order="fill" d="M 88.5 355.5 L 88.5 31.5 M 180.5 355.5 L 180.5 31.5 M 272.5 355.5 L 272.5 31.5 M 363.5 355.5 L 363.5 31.5 M 455.5 355.5 L 455.5 31.5 M 547.5 355.5 L 547.5 31.5" stroke-opacity="1" stroke-linejoin="bevel" stroke-miterlimit="10" stroke-dasharray="" clip-path="url(#GFcvEgTwdzMo)"/><path fill="none" stroke="rgb(229,229,229)" paint-order="fill" d="M 65.5 340.5 L 570.5 340.5 M 65.5 291.5 L 570.5 291.5 M 65.5 241.5 L 570.5 241.5 M 65.5 191.5 L 570.5 191.5 M 65.5 141.5 L 570.5 141.5 M 65.5 92.5 L 570.5 92.5 M 65.5 42.5 L 570.5 42.5" stroke-opacity="1" stroke-linejoin="bevel" stroke-miterlimit="10" stroke-dasharray="" clip-path="url(#JZdiMcSdQTcs)"/><path fill="none" stroke="rgb(220,20,60)" paint-order="fill" d="M 88.45454406738281 340.7727355957031 L 106.81818389892578 340.7727355957031 L 125.18181610107422 340.7727355957031 L 143.5454559326172 340.7727355957031 L 161.90908813476562 340.7727355957031 L 180.27272033691406 340.02703857421875 L 198.63636779785156 333.81298828125 L 217 321.3849182128906 L 235.36363220214844 299.5115051269531 L 253.72727966308594 277.6380920410156 L 272.0909118652344 252.28480529785156 L 290.4545593261719 221.21461486816406 L 308.81817626953125 197.84982299804688 L 327.18182373046875 181.19619750976562 L 345.5454406738281 160.06846618652344 L 363.9090881347656 144.1605224609375 L 382.2727355957031 131.73245239257812 L 400.6363525390625 119.80149841308594 L 419 110.35615539550781 L 437.3636474609375 101.15937805175781 L 455.7272644042969 92.70828247070312 L 474.0909118652344 82.51725769042969 L 492.4545593261719 72.32624053955078 L 510.81817626953125 63.378021240234375 L 529.1818237304688 55.17548751831055 L 547.5454711914062 46.227272033691406" stroke-opacity="1" stroke-linejoin="bevel" stroke-miterlimit="10" stroke-dasharray="" clip-path="url(#DNpGTGTbTkzz)"/><path fill="rgb(255,255,255)" stroke="rgb(220,20,60)" paint-order="fill" d="M 90.45454406738281 340.7727355957031 A 2 2 0 0 1 86.45454406738281 340.7727355957031 A 2 2 0 0 1 90.45454406738281 340.7727355957031" fill-opacity="1" clip-path="url(#vFmBQrMepXOK)" stroke-opacity="1" stroke-linejoin="bevel" stroke-miterlimit="10" stroke-dasharray=""/><path fill="rgb(255,255,255)" stroke="rgb(220,20,60)" paint-order="fill" d="M 108.81818389892578 340.7727355957031 A 2 2 0 0 1 104.81818389892578 340.7727355957031 A 2 2 0 0 1 108.81818389892578 340.7727355957031" fill-opacity="1" clip-path="url(#vFmBQrMepXOK)" stroke-opacity="1" stroke-linejoin="bevel" stroke-miterlimit="10" stroke-dasharray=""/><path fill="rgb(255,255,255)" stroke="rgb(220,20,60)" paint-order="fill" d="M 127.18181610107422 340.7727355957031 A 2 2 0 0 1 123.18181610107422 340.7727355957031 A 2 2 0 0 1 127.18181610107422 340.7727355957031" fill-opacity="1" clip-path="url(#vFmBQrMepXOK)" stroke-opacity="1" stroke-linejoin="bevel" stroke-miterlimit="10" stroke-dasharray=""/><path fill="rgb(255,255,255)" stroke="rgb(220,20,60)" paint-order="fill" d="M 145.5454559326172 340.7727355957031 A 2 2 0 0 1 141.5454559326172 340.7727355957031 A 2 2 0 0 1 145.5454559326172 340.7727355957031" fill-opacity="1" clip-path="url(#vFmBQrMepXOK)" stroke-opacity="1" stroke-linejoin="bevel" stroke-miterlimit="10" stroke-dasharray=""/><path fill="rgb(255,255,255)" stroke="rgb(220,20,60)" paint-order="fill" d="M 163.90908813476562 340.7727355957031 A 2 2 0 0 1 159.90908813476562 340.7727355957031 A 2 2 0 0 1 163.90908813476562 340.7727355957031" fill-opacity="1" clip-path="url(#vFmBQrMepXOK)" stroke-opacity="1" stroke-linejoin="bevel" stroke-miterlimit="10" stroke-dasharray=""/><path fill="rgb(255,255,255)" stroke="rgb(220,20,60)" paint-order="fill" d="M 182.27272033691406 340.02703857421875 A 2 2 0 0 1 178.27272033691406 340.02703857421875 A 2 2 0 0 1 182.27272033691406 340.02703857421875" fill-opacity="1" clip-path="url(#vFmBQrMepXOK)" stroke-opacity="1" stroke-linejoin="bevel" stroke-miterlimit="10" stroke-dasharray=""/><path fill="rgb(255,255,255)" stroke="rgb(220,20,60)" paint-order="fill" d="M 200.63636779785156 333.81298828125 A 2 2 0 0 1 196.63636779785156 333.81298828125 A 2 2 0 0 1 200.63636779785156 333.81298828125" fill-opacity="1" clip-path="url(#vFmBQrMepXOK)" stroke-opacity="1" stroke-linejoin="bevel" stroke-miterlimit="10" stroke-dasharray=""/><path fill="rgb(255,255,255)" stroke="rgb(220,20,60)" paint-order="fill" d="M 219 321.3849182128906 A 2 2 0 0 1 215 321.3849182128906 A 2 2 0 0 1 219 321.3849182128906" fill-opacity="1" clip-path="url(#vFmBQrMepXOK)" stroke-opacity="1" stroke-linejoin="bevel" stroke-miterlimit="10" stroke-dasharray=""/><path fill="rgb(255,255,255)" stroke="rgb(220,20,60)" paint-order="fill" d="M 237.36363220214844 299.5115051269531 A 2 2 0 0 1 233.36363220214844 299.5115051269531 A 2 2 0 0 1 237.36363220214844 299.5115051269531" fill-opacity="1" clip-path="url(#vFmBQrMepXOK)" stroke-opacity="1" stroke-linejoin="bevel" stroke-miterlimit="10" stroke-dasharray=""/><path fill="rgb(255,255,255)" stroke="rgb(220,20,60)" paint-order="fill" d="M 255.72727966308594 277.6380920410156 A 2 2 0 0 1 251.72727966308594 277.6380920410156 A 2 2 0 0 1 255.72727966308594 277.6380920410156" fill-opacity="1" clip-path="url(#vFmBQrMepXOK)" stroke-opacity="1" stroke-linejoin="bevel" stroke-miterlimit="10" stroke-dasharray=""/><path fill="rgb(255,255,255)" stroke="rgb(220,20,60)" paint-order="fill" d="M 274.0909118652344 252.28480529785156 A 2 2 0 0 1 270.0909118652344 252.28480529785156 A 2 2 0 0 1 274.0909118652344 252.28480529785156" fill-opacity="1" clip-path="url(#vFmBQrMepXOK)" stroke-opacity="1" stroke-linejoin="bevel" stroke-miterlimit="10" stroke-dasharray=""/><path fill="rgb(255,255,255)" stroke="rgb(220,20,60)" paint-order="fill" d="M 292.4545593261719 221.21461486816406 A 2 2 0 0 1 288.4545593261719 221.21461486816406 A 2 2 0 0 1 292.4545593261719 221.21461486816406" fill-opacity="1" clip-path="url(#vFmBQrMepXOK)" stroke-opacity="1" stroke-linejoin="bevel" stroke-miterlimit="10" stroke-dasharray=""/><path fill="rgb(255,255,255)" stroke="rgb(220,20,60)" paint-order="fill" d="M 310.81817626953125 197.84982299804688 A 2 2 0 0 1 306.81817626953125 197.84982299804688 A 2 2 0 0 1 310.81817626953125 197.84982299804688" fill-opacity="1" clip-path="url(#vFmBQrMepXOK)" stroke-opacity="1" stroke-linejoin="bevel" stroke-miterlimit="10" stroke-dasharray=""/><path fill="rgb(255,255,255)" stroke="rgb(220,20,60)" paint-order="fill" d="M 329.18182373046875 181.19619750976562 A 2 2 0 0 1 325.18182373046875 181.19619750976562 A 2 2 0 0 1 329.18182373046875 181.19619750976562" fill-opacity="1" clip-path="url(#vFmBQrMepXOK)" stroke-opacity="1" stroke-linejoin="bevel" stroke-miterlimit="10" stroke-dasharray=""/><path fill="rgb(255,255,255)" stroke="rgb(220,20,60)" paint-order="fill" d="M 347.5454406738281 160.06846618652344 A 2 2 0 0 1 343.5454406738281 160.06846618652344 A 2 2 0 0 1 347.5454406738281 160.06846618652344" fill-opacity="1" clip-path="url(#vFmBQrMepXOK)" stroke-opacity="1" stroke-linejoin="bevel" stroke-miterlimit="10" stroke-dasharray=""/><path fill="rgb(255,255,255)" stroke="rgb(220,20,60)" paint-order="fill" d="M 365.9090881347656 144.1605224609375 A 2 2 0 0 1 361.9090881347656 144.1605224609375 A 2 2 0 0 1 365.9090881347656 144.1605224609375" fill-opacity="1" clip-path="url(#vFmBQrMepXOK)" stroke-opacity="1" stroke-linejoin="bevel" stroke-miterlimit="10" stroke-dasharray=""/><path fill="rgb(255,255,255)" stroke="rgb(220,20,60)" paint-order="fill" d="M 384.2727355957031 131.73245239257812 A 2 2 0 0 1 380.2727355957031 131.73245239257812 A 2 2 0 0 1 384.2727355957031 131.73245239257812" fill-opacity="1" clip-path="url(#vFmBQrMepXOK)" stroke-opacity="1" stroke-linejoin="bevel" stroke-miterlimit="10" stroke-dasharray=""/><path fill="rgb(255,255,255)" stroke="rgb(220,20,60)" paint-order="fill" d="M 402.6363525390625 119.80149841308594 A 2 2 0 0 1 398.6363525390625 119.80149841308594 A 2 2 0 0 1 402.6363525390625 119.80149841308594" fill-opacity="1" clip-path="url(#vFmBQrMepXOK)" stroke-opacity="1" stroke-linejoin="bevel" stroke-miterlimit="10" stroke-dasharray=""/><path fill="rgb(255,255,255)" stroke="rgb(220,20,60)" paint-order="fill" d="M 421 110.35615539550781 A 2 2 0 0 1 417 110.35615539550781 A 2 2 0 0 1 421 110.35615539550781" fill-opacity="1" clip-path="url(#vFmBQrMepXOK)" stroke-opacity="1" stroke-linejoin="bevel" stroke-miterlimit="10" stroke-dasharray=""/><path fill="rgb(255,255,255)" stroke="rgb(220,20,60)" paint-order="fill" d="M 439.3636474609375 101.15937805175781 A 2 2 0 0 1 435.3636474609375 101.15937805175781 A 2 2 0 0 1 439.3636474609375 101.15937805175781" fill-opacity="1" clip-path="url(#vFmBQrMepXOK)" stroke-opacity="1" stroke-linejoin="bevel" stroke-miterlimit="10" stroke-dasharray=""/><path fill="rgb(255,255,255)" stroke="rgb(220,20,60)" paint-order="fill" d="M 457.7272644042969 92.70828247070312 A 2 2 0 0 1 453.7272644042969 92.70828247070312 A 2 2 0 0 1 457.7272644042969 92.70828247070312" fill-opacity="1" clip-path="url(#vFmBQrMepXOK)" stroke-opacity="1" stroke-linejoin="bevel" stroke-miterlimit="10" stroke-dasharray=""/><path fill="rgb(255,255,255)" stroke="rgb(220,20,60)" paint-order="fill" d="M 476.0909118652344 82.51725769042969 A 2 2 0 0 1 472.0909118652344 82.51725769042969 A 2 2 0 0 1 476.0909118652344 82.51725769042969" fill-opacity="1" clip-path="url(#vFmBQrMepXOK)" stroke-opacity="1" stroke-linejoin="bevel" stroke-miterlimit="10" stroke-dasharray=""/><path fill="rgb(255,255,255)" stroke="rgb(220,20,60)" paint-order="fill" d="M 494.4545593261719 72.32624053955078 A 2 2 0 0 1 490.4545593261719 72.32624053955078 A 2 2 0 0 1 494.4545593261719 72.32624053955078" fill-opacity="1" clip-path="url(#vFmBQrMepXOK)" stroke-opacity="1" stroke-linejoin="bevel" stroke-miterlimit="10" stroke-dasharray=""/><path fill="rgb(255,255,255)" stroke="rgb(220,20,60)" paint-order="fill" d="M 512.8181762695312 63.378021240234375 A 2 2 0 0 1 508.81817626953125 63.378021240234375 A 2 2 0 0 1 512.8181762695312 63.378021240234375" fill-opacity="1" clip-path="url(#vFmBQrMepXOK)" stroke-opacity="1" stroke-linejoin="bevel" stroke-miterlimit="10" stroke-dasharray=""/><path fill="rgb(255,255,255)" stroke="rgb(220,20,60)" paint-order="fill" d="M 531.1818237304688 55.17548751831055 A 2 2 0 0 1 527.1818237304688 55.17548751831055 A 2 2 0 0 1 531.1818237304688 55.17548751831055" fill-opacity="1" clip-path="url(#vFmBQrMepXOK)" stroke-opacity="1" stroke-linejoin="bevel" stroke-miterlimit="10" stroke-dasharray=""/><path fill="rgb(255,255,255)" stroke="rgb(220,20,60)" paint-order="fill" d="M 549.5454711914062 46.227272033691406 A 2 2 0 0 1 545.5454711914062 46.227272033691406 A 2 2 0 0 1 549.5454711914062 46.227272033691406" fill-opacity="1" clip-path="url(#vFmBQrMepXOK)" stroke-opacity="1" stroke-linejoin="bevel" stroke-miterlimit="10" stroke-dasharray=""/><path fill="none" stroke="rgb(75,0,130)" paint-order="fill" d="M 88.45454406738281 138.19505310058594 L 106.81818389892578 138.19505310058594 L 125.18181610107422 149.1317596435547 L 143.5454559326172 157.8314208984375 L 161.90908813476562 202.07537841796875 L 180.27272033691406 234.3883819580078 L 198.63636779785156 266.45281982421875 L 217 287.08343505859375 L 235.36363220214844 306.71978759765625 L 253.72727966308594 315.91656494140625 L 272.0909118652344 322.130615234375 L 290.4545593261719 325.11334228515625 L 308.81817626953125 326.3561706542969 L 327.18182373046875 329.58746337890625 L 345.5454406738281 331.327392578125 L 363.9090881347656 333.81298828125 L 382.2727355957031 334.8072509765625 L 400.6363525390625 335.5529479980469 L 419 336.7957458496094 L 437.3636474609375 337.2928771972656 L 455.7272644042969 337.5414123535156 L 474.0909118652344 338.5356750488281 L 492.4545593261719 340.02703857421875 L 510.81817626953125 340.2756042480469 L 529.1818237304688 340.2756042480469 L 547.5454711914062 340.2756042480469" stroke-opacity="1" stroke-linejoin="bevel" stroke-miterlimit="10" stroke-dasharray="" clip-path="url(#ShhvanRlTiCs)"/><path fill="rgb(255,255,255)" stroke="rgb(75,0,130)" paint-order="fill" d="M 90.45454406738281 138.19505310058594 A 2 2 0 0 1 86.45454406738281 138.19505310058594 A 2 2 0 0 1 90.45454406738281 138.19505310058594" fill-opacity="1" clip-path="url(#TaBPQmFPOzWs)" stroke-opacity="1" stroke-linejoin="bevel" stroke-miterlimit="10" stroke-dasharray=""/><path fill="rgb(255,255,255)" stroke="rgb(75,0,130)" paint-order="fill" d="M 108.81818389892578 138.19505310058594 A 2 2 0 0 1 104.81818389892578 138.19505310058594 A 2 2 0 0 1 108.81818389892578 138.19505310058594" fill-opacity="1" clip-path="url(#TaBPQmFPOzWs)" stroke-opacity="1" stroke-linejoin="bevel" stroke-miterlimit="10" stroke-dasharray=""/><path fill="rgb(255,255,255)" stroke="rgb(75,0,130)" paint-order="fill" d="M 127.18181610107422 149.1317596435547 A 2 2 0 0 1 123.18181610107422 149.1317596435547 A 2 2 0 0 1 127.18181610107422 149.1317596435547" fill-opacity="1" clip-path="url(#TaBPQmFPOzWs)" stroke-opacity="1" stroke-linejoin="bevel" stroke-miterlimit="10" stroke-dasharray=""/><path fill="rgb(255,255,255)" stroke="rgb(75,0,130)" paint-order="fill" d="M 145.5454559326172 157.8314208984375 A 2 2 0 0 1 141.5454559326172 157.8314208984375 A 2 2 0 0 1 145.5454559326172 157.8314208984375" fill-opacity="1" clip-path="url(#TaBPQmFPOzWs)" stroke-opacity="1" stroke-linejoin="bevel" stroke-miterlimit="10" stroke-dasharray=""/><path fill="rgb(255,255,255)" stroke="rgb(75,0,130)" paint-order="fill" d="M 163.90908813476562 202.07537841796875 A 2 2 0 0 1 159.90908813476562 202.07537841796875 A 2 2 0 0 1 163.90908813476562 202.07537841796875" fill-opacity="1" clip-path="url(#TaBPQmFPOzWs)" stroke-opacity="1" stroke-linejoin="bevel" stroke-miterlimit="10" stroke-dasharray=""/><path fill="rgb(255,255,255)" stroke="rgb(75,0,130)" paint-order="fill" d="M 182.27272033691406 234.3883819580078 A 2 2 0 0 1 178.27272033691406 234.3883819580078 A 2 2 0 0 1 182.27272033691406 234.3883819580078" fill-opacity="1" clip-path="url(#TaBPQmFPOzWs)" stroke-opacity="1" stroke-linejoin="bevel" stroke-miterlimit="10" stroke-dasharray=""/><path fill="rgb(255,255,255)" stroke="rgb(75,0,130)" paint-order="fill" d="M 200.63636779785156 266.45281982421875 A 2 2 0 0 1 196.63636779785156 266.45281982421875 A 2 2 0 0 1 200.63636779785156 266.45281982421875" fill-opacity="1" clip-path="url(#TaBPQmFPOzWs)" stroke-opacity="1" stroke-linejoin="bevel" stroke-miterlimit="10" stroke-dasharray=""/><path fill="rgb(255,255,255)" stroke="rgb(75,0,130)" paint-order="fill" d="M 219 287.08343505859375 A 2 2 0 0 1 215 287.08343505859375 A 2 2 0 0 1 219 287.08343505859375" fill-opacity="1" clip-path="url(#TaBPQmFPOzWs)" stroke-opacity="1" stroke-linejoin="bevel" stroke-miterlimit="10" stroke-dasharray=""/><path fill="rgb(255,255,255)" stroke="rgb(75,0,130)" paint-order="fill" d="M 237.36363220214844 306.71978759765625 A 2 2 0 0 1 233.36363220214844 306.71978759765625 A 2 2 0 0 1 237.36363220214844 306.71978759765625" fill-opacity="1" clip-path="url(#TaBPQmFPOzWs)" stroke-opacity="1" stroke-linejoin="bevel" stroke-miterlimit="10" stroke-dasharray=""/><path fill="rgb(255,255,255)" stroke="rgb(75,0,130)" paint-order="fill" d="M 255.72727966308594 315.91656494140625 A 2 2 0 0 1 251.72727966308594 315.91656494140625 A 2 2 0 0 1 255.72727966308594 315.91656494140625" fill-opacity="1" clip-path="url(#TaBPQmFPOzWs)" stroke-opacity="1" stroke-linejoin="bevel" stroke-miterlimit="10" stroke-dasharray=""/><path fill="rgb(255,255,255)" stroke="rgb(75,0,130)" paint-order="fill" d="M 274.0909118652344 322.130615234375 A 2 2 0 0 1 270.0909118652344 322.130615234375 A 2 2 0 0 1 274.0909118652344 322.130615234375" fill-opacity="1" clip-path="url(#TaBPQmFPOzWs)" stroke-opacity="1" stroke-linejoin="bevel" stroke-miterlimit="10" stroke-dasharray=""/><path fill="rgb(255,255,255)" stroke="rgb(75,0,130)" paint-order="fill" d="M 292.4545593261719 325.11334228515625 A 2 2 0 0 1 288.4545593261719 325.11334228515625 A 2 2 0 0 1 292.4545593261719 325.11334228515625" fill-opacity="1" clip-path="url(#TaBPQmFPOzWs)" stroke-opacity="1" stroke-linejoin="bevel" stroke-miterlimit="10" stroke-dasharray=""/><path fill="rgb(255,255,255)" stroke="rgb(75,0,130)" paint-order="fill" d="M 310.81817626953125 326.3561706542969 A 2 2 0 0 1 306.81817626953125 326.3561706542969 A 2 2 0 0 1 310.81817626953125 326.3561706542969" fill-opacity="1" clip-path="url(#TaBPQmFPOzWs)" stroke-opacity="1" stroke-linejoin="bevel" stroke-miterlimit="10" stroke-dasharray=""/><path fill="rgb(255,255,255)" stroke="rgb(75,0,130)" paint-order="fill" d="M 329.18182373046875 329.58746337890625 A 2 2 0 0 1 325.18182373046875 329.58746337890625 A 2 2 0 0 1 329.18182373046875 329.58746337890625" fill-opacity="1" clip-path="url(#TaBPQmFPOzWs)" stroke-opacity="1" stroke-linejoin="bevel" stroke-miterlimit="10" stroke-dasharray=""/><path fill="rgb(255,255,255)" stroke="rgb(75,0,130)" paint-order="fill" d="M 347.5454406738281 331.327392578125 A 2 2 0 0 1 343.5454406738281 331.327392578125 A 2 2 0 0 1 347.5454406738281 331.327392578125" fill-opacity="1" clip-path="url(#TaBPQmFPOzWs)" stroke-opacity="1" stroke-linejoin="bevel" stroke-miterlimit="10" stroke-dasharray=""/><path fill="rgb(255,255,255)" stroke="rgb(75,0,130)" paint-order="fill" d="M 365.9090881347656 333.81298828125 A 2 2 0 0 1 361.9090881347656 333.81298828125 A 2 2 0 0 1 365.9090881347656 333.81298828125" fill-opacity="1" clip-path="url(#TaBPQmFPOzWs)" stroke-opacity="1" stroke-linejoin="bevel" stroke-miterlimit="10" stroke-dasharray=""/><path fill="rgb(255,255,255)" stroke="rgb(75,0,130)" paint-order="fill" d="M 384.2727355957031 334.8072509765625 A 2 2 0 0 1 380.2727355957031 334.8072509765625 A 2 2 0 0 1 384.2727355957031 334.8072509765625" fill-opacity="1" clip-path="url(#TaBPQmFPOzWs)" stroke-opacity="1" stroke-linejoin="bevel" stroke-miterlimit="10" stroke-dasharray=""/><path fill="rgb(255,255,255)" stroke="rgb(75,0,130)" paint-order="fill" d="M 402.6363525390625 335.5529479980469 A 2 2 0 0 1 398.6363525390625 335.5529479980469 A 2 2 0 0 1 402.6363525390625 335.5529479980469" fill-opacity="1" clip-path="url(#TaBPQmFPOzWs)" stroke-opacity="1" stroke-linejoin="bevel" stroke-miterlimit="10" stroke-dasharray=""/><path fill="rgb(255,255,255)" stroke="rgb(75,0,130)" paint-order="fill" d="M 421 336.7957458496094 A 2 2 0 0 1 417 336.7957458496094 A 2 2 0 0 1 421 336.7957458496094" fill-opacity="1" clip-path="url(#TaBPQmFPOzWs)" stroke-opacity="1" stroke-linejoin="bevel" stroke-miterlimit="10" stroke-dasharray=""/><path fill="rgb(255,255,255)" stroke="rgb(75,0,130)" paint-order="fill" d="M 439.3636474609375 337.2928771972656 A 2 2 0 0 1 435.3636474609375 337.2928771972656 A 2 2 0 0 1 439.3636474609375 337.2928771972656" fill-opacity="1" clip-path="url(#TaBPQmFPOzWs)" stroke-opacity="1" stroke-linejoin="bevel" stroke-miterlimit="10" stroke-dasharray=""/><path fill="rgb(255,255,255)" stroke="rgb(75,0,130)" paint-order="fill" d="M 457.7272644042969 337.5414123535156 A 2 2 0 0 1 453.7272644042969 337.5414123535156 A 2 2 0 0 1 457.7272644042969 337.5414123535156" fill-opacity="1" clip-path="url(#TaBPQmFPOzWs)" stroke-opacity="1" stroke-linejoin="bevel" stroke-miterlimit="10" stroke-dasharray=""/><path fill="rgb(255,255,255)" stroke="rgb(75,0,130)" paint-order="fill" d="M 476.0909118652344 338.5356750488281 A 2 2 0 0 1 472.0909118652344 338.5356750488281 A 2 2 0 0 1 476.0909118652344 338.5356750488281" fill-opacity="1" clip-path="url(#TaBPQmFPOzWs)" stroke-opacity="1" stroke-linejoin="bevel" stroke-miterlimit="10" stroke-dasharray=""/><path fill="rgb(255,255,255)" stroke="rgb(75,0,130)" paint-order="fill" d="M 494.4545593261719 340.02703857421875 A 2 2 0 0 1 490.4545593261719 340.02703857421875 A 2 2 0 0 1 494.4545593261719 340.02703857421875" fill-opacity="1" clip-path="url(#TaBPQmFPOzWs)" stroke-opacity="1" stroke-linejoin="bevel" stroke-miterlimit="10" stroke-dasharray=""/><path fill="rgb(255,255,255)" stroke="rgb(75,0,130)" paint-order="fill" d="M 512.8181762695312 340.2756042480469 A 2 2 0 0 1 508.81817626953125 340.2756042480469 A 2 2 0 0 1 512.8181762695312 340.2756042480469" fill-opacity="1" clip-path="url(#TaBPQmFPOzWs)" stroke-opacity="1" stroke-linejoin="bevel" stroke-miterlimit="10" stroke-dasharray=""/><path fill="rgb(255,255,255)" stroke="rgb(75,0,130)" paint-order="fill" d="M 531.1818237304688 340.2756042480469 A 2 2 0 0 1 527.1818237304688 340.2756042480469 A 2 2 0 0 1 531.1818237304688 340.2756042480469" fill-opacity="1" clip-path="url(#TaBPQmFPOzWs)" stroke-opacity="1" stroke-linejoin="bevel" stroke-miterlimit="10" stroke-dasharray=""/><path fill="rgb(255,255,255)" stroke="rgb(75,0,130)" paint-order="fill" d="M 549.5454711914062 340.2756042480469 A 2 2 0 0 1 545.5454711914062 340.2756042480469 A 2 2 0 0 1 549.5454711914062 340.2756042480469" fill-opacity="1" clip-path="url(#TaBPQmFPOzWs)" stroke-opacity="1" stroke-linejoin="bevel" stroke-miterlimit="10" stroke-dasharray=""/><path fill="none" stroke="rgb(0,0,0)" paint-order="fill" d="M 65.5 355.5 L 570.5 355.5" stroke-opacity="1" stroke-linejoin="bevel" stroke-miterlimit="10" stroke-dasharray=""/><path fill="none" stroke="rgb(0,0,0)" paint-order="fill" d="M 88.5 361.5 L 88.5 353.5 M 180.5 361.5 L 180.5 353.5 M 272.5 361.5 L 272.5 353.5 M 363.5 361.5 L 363.5 353.5 M 455.5 361.5 L 455.5 353.5 M 547.5 361.5 L 547.5 353.5" stroke-opacity="1" stroke-linejoin="bevel" stroke-miterlimit="10" stroke-dasharray=""/><path fill="none" stroke="rgb(0,0,0)" paint-order="fill" d="M 70.5 359.5 L 70.5 355.5 M 88.5 359.5 L 88.5 355.5 M 106.5 359.5 L 106.5 355.5 M 125.5 359.5 L 125.5 355.5 M 143.5 359.5 L 143.5 355.5 M 161.5 359.5 L 161.5 355.5 M 180.5 359.5 L 180.5 355.5 M 198.5 359.5 L 198.5 355.5 M 217.5 359.5 L 217.5 355.5 M 235.5 359.5 L 235.5 355.5 M 253.5 359.5 L 253.5 355.5 M 272.5 359.5 L 272.5 355.5 M 290.5 359.5 L 290.5 355.5 M 308.5 359.5 L 308.5 355.5 M 327.5 359.5 L 327.5 355.5 M 345.5 359.5 L 345.5 355.5 M 363.5 359.5 L 363.5 355.5 M 382.5 359.5 L 382.5 355.5 M 400.5 359.5 L 400.5 355.5 M 419.5 359.5 L 419.5 355.5 M 437.5 359.5 L 437.5 355.5 M 455.5 359.5 L 455.5 355.5 M 474.5 359.5 L 474.5 355.5 M 492.5 359.5 L 492.5 355.5 M 510.5 359.5 L 510.5 355.5 M 529.5 359.5 L 529.5 355.5 M 547.5 359.5 L 547.5 355.5 M 565.5 359.5 L 565.5 355.5" stroke-opacity="1" stroke-linejoin="bevel" stroke-miterlimit="10" stroke-dasharray=""/><text fill="rgb(68,68,68)" stroke="none" font-family="helvetica" font-size="11px" font-style="normal" font-weight="normal" text-decoration="normal" x="84.45454406738281" y="374" text-anchor="start" dominant-baseline="alphabetic" transform="matrix(1, 0, 0, 1, 0.5, 0.5)" fill-opacity="1">2</text><text fill="rgb(68,68,68)" stroke="none" font-family="helvetica" font-size="11px" font-style="normal" font-weight="normal" text-decoration="normal" x="176.27272033691406" y="374" text-anchor="start" dominant-baseline="alphabetic" transform="matrix(1, 0, 0, 1, 0.5, 0.5)" fill-opacity="1">3</text><text fill="rgb(68,68,68)" stroke="none" font-family="helvetica" font-size="11px" font-style="normal" font-weight="normal" text-decoration="normal" x="268.0909118652344" y="374" text-anchor="start" dominant-baseline="alphabetic" transform="matrix(1, 0, 0, 1, 0.5, 0.5)" fill-opacity="1">4</text><text fill="rgb(68,68,68)" stroke="none" font-family="helvetica" font-size="11px" font-style="normal" font-weight="normal" text-decoration="normal" x="359.9090881347656" y="374" text-anchor="start" dominant-baseline="alphabetic" transform="matrix(1, 0, 0, 1, 0.5, 0.5)" fill-opacity="1">5</text><text fill="rgb(68,68,68)" stroke="none" font-family="helvetica" font-size="11px" font-style="normal" font-weight="normal" text-decoration="normal" x="451.7272644042969" y="374" text-anchor="start" dominant-baseline="alphabetic" transform="matrix(1, 0, 0, 1, 0.5, 0.5)" fill-opacity="1">6</text><text fill="rgb(68,68,68)" stroke="none" font-family="helvetica" font-size="11px" font-style="normal" font-weight="normal" text-decoration="normal" x="543.5454711914062" y="374" text-anchor="start" dominant-baseline="alphabetic" transform="matrix(1, 0, 0, 1, 0.5, 0.5)" fill-opacity="1">7</text><text fill="rgb(68,68,68)" stroke="none" font-family="helvetica" font-size="13px" font-style="italic" font-weight="normal" text-decoration="normal" x="205" y="394" text-anchor="start" dominant-baseline="alphabetic" transform="matrix(1, 0, 0, 1, 0.5, 0.5)" fill-opacity="1">Reconstruction Error Threshold (%)</text><path fill="none" stroke="rgb(0,0,0)" paint-order="fill" d="M 65.5 355.5 L 65.5 31.5" stroke-opacity="1" stroke-linejoin="bevel" stroke-miterlimit="10" stroke-dasharray=""/><path fill="none" stroke="rgb(0,0,0)" paint-order="fill" d="M 59.5 340.5 L 67.5 340.5 M 59.5 291.5 L 67.5 291.5 M 59.5 241.5 L 67.5 241.5 M 59.5 191.5 L 67.5 191.5 M 59.5 141.5 L 67.5 141.5 M 59.5 92.5 L 67.5 92.5 M 59.5 42.5 L 67.5 42.5" stroke-opacity="1" stroke-linejoin="bevel" stroke-miterlimit="10" stroke-dasharray=""/><path fill="none" stroke="rgb(0,0,0)" paint-order="fill" d="M 61.5 350.5 L 65.5 350.5 M 61.5 340.5 L 65.5 340.5 M 61.5 330.5 L 65.5 330.5 M 61.5 320.5 L 65.5 320.5 M 61.5 310.5 L 65.5 310.5 M 61.5 301.5 L 65.5 301.5 M 61.5 291.5 L 65.5 291.5 M 61.5 281.5 L 65.5 281.5 M 61.5 271.5 L 65.5 271.5 M 61.5 261.5 L 65.5 261.5 M 61.5 251.5 L 65.5 251.5 M 61.5 241.5 L 65.5 241.5 M 61.5 231.5 L 65.5 231.5 M 61.5 221.5 L 65.5 221.5 M 61.5 211.5 L 65.5 211.5 M 61.5 201.5 L 65.5 201.5 M 61.5 191.5 L 65.5 191.5 M 61.5 181.5 L 65.5 181.5 M 61.5 171.5 L 65.5 171.5 M 61.5 161.5 L 65.5 161.5 M 61.5 151.5 L 65.5 151.5 M 61.5 141.5 L 65.5 141.5 M 61.5 131.5 L 65.5 131.5 M 61.5 122.5 L 65.5 122.5 M 61.5 112.5 L 65.5 112.5 M 61.5 102.5 L 65.5 102.5 M 61.5 92.5 L 65.5 92.5 M 61.5 82.5 L 65.5 82.5 M 61.5 72.5 L 65.5 72.5 M 61.5 62.5 L 65.5 62.5 M 61.5 52.5 L 65.5 52.5 M 61.5 42.5 L 65.5 42.5 M 61.5 32.5 L 65.5 32.5" stroke-opacity="1" stroke-linejoin="bevel" stroke-miterlimit="10" stroke-dasharray=""/><text fill="rgb(68,68,68)" stroke="none" font-family="helvetica" font-size="11px" font-style="normal" font-weight="normal" text-decoration="normal" x="47" y="344.2727355957031" text-anchor="start" dominant-baseline="alphabetic" transform="matrix(1, 0, 0, 1, 0.5, 0.5)" fill-opacity="1">0</text><text fill="rgb(68,68,68)" stroke="none" font-family="helvetica" font-size="11px" font-style="normal" font-weight="normal" text-decoration="normal" x="33" y="294.5604248046875" text-anchor="start" dominant-baseline="alphabetic" transform="matrix(1, 0, 0, 1, 0.5, 0.5)" fill-opacity="1">200</text><text fill="rgb(68,68,68)" stroke="none" font-family="helvetica" font-size="11px" font-style="normal" font-weight="normal" text-decoration="normal" x="33" y="244.8480987548828" text-anchor="start" dominant-baseline="alphabetic" transform="matrix(1, 0, 0, 1, 0.5, 0.5)" fill-opacity="1">400</text><text fill="rgb(68,68,68)" stroke="none" font-family="helvetica" font-size="11px" font-style="normal" font-weight="normal" text-decoration="normal" x="33" y="195.1357879638672" text-anchor="start" dominant-baseline="alphabetic" transform="matrix(1, 0, 0, 1, 0.5, 0.5)" fill-opacity="1">600</text><text fill="rgb(68,68,68)" stroke="none" font-family="helvetica" font-size="11px" font-style="normal" font-weight="normal" text-decoration="normal" x="33" y="145.42347717285156" text-anchor="start" dominant-baseline="alphabetic" transform="matrix(1, 0, 0, 1, 0.5, 0.5)" fill-opacity="1">800</text><text fill="rgb(68,68,68)" stroke="none" font-family="helvetica" font-size="11px" font-style="normal" font-weight="normal" text-decoration="normal" x="26" y="95.7111587524414" text-anchor="start" dominant-baseline="alphabetic" transform="matrix(1, 0, 0, 1, 0.5, 0.5)" fill-opacity="1">1000</text><text fill="rgb(68,68,68)" stroke="none" font-family="helvetica" font-size="11px" font-style="normal" font-weight="normal" text-decoration="normal" x="26" y="45.99884796142578" text-anchor="start" dominant-baseline="alphabetic" transform="matrix(1, 0, 0, 1, 0.5, 0.5)" fill-opacity="1">1200</text><text fill="rgb(68,68,68)" stroke="none" font-family="helvetica" font-size="13px" font-style="italic" font-weight="normal" text-decoration="normal" x="-17.5" y="190" text-anchor="start" dominant-baseline="alphabetic" transform="matrix(6.123233995736766e-17, -1, 1, 6.123233995736766e-17, -174.5, 211.5)" fill-opacity="1"># Samples</text><path fill="rgb(255,255,255)" stroke="rgb(229,229,229)" paint-order="fill" d="M 75.5 41.5 L 202.5 41.5 L 202.5 104.5 L 75.5 104.5 L 75.5 41.5" fill-opacity="0.9490196078431372" clip-path="url(#VZdZXFOhkJXq)" stroke-opacity="0.5019607843137255" stroke-linejoin="bevel" stroke-miterlimit="10" stroke-dasharray=""/><g clip-path="url(#VZdZXFOhkJXq)"><text fill="rgb(68,68,68)" stroke="none" font-family="helvetica" font-size="8pt" font-style="normal" font-weight="normal" text-decoration="normal" x="110" y="61" text-anchor="start" dominant-baseline="central" transform="matrix(1, 0, 0, 1, 0.5, 0.5)" fill-opacity="1">False Negative</text></g><path fill="none" stroke="rgb(220,20,60)" paint-order="fill" d="M 85.5 61.5 L 105.5 61.5" stroke-opacity="1" stroke-linejoin="bevel" stroke-miterlimit="10" stroke-dasharray="" clip-path="url(#VZdZXFOhkJXq)"/><g clip-path="url(#VZdZXFOhkJXq)"><text fill="rgb(68,68,68)" stroke="none" font-family="helvetica" font-size="8pt" font-style="normal" font-weight="normal" text-decoration="normal" x="110" y="84" text-anchor="start" dominant-baseline="central" transform="matrix(1, 0, 0, 1, 0.5, 0.5)" fill-opacity="1">False Positive</text></g><path fill="none" stroke="rgb(75,0,130)" paint-order="fill" d="M 85.5 84.5 L 105.5 84.5" stroke-opacity="1" stroke-linejoin="bevel" stroke-miterlimit="10" stroke-dasharray="" clip-path="url(#VZdZXFOhkJXq)"/><text fill="rgb(68,68,68)" stroke="none" font-family="helvetica" font-size="12pt" font-style="normal" font-weight="bold" text-decoration="normal" x="132.5" y="22" text-anchor="start" dominant-baseline="alphabetic" transform="matrix(1, 0, 0, 1, 0.5, 0.5)" fill-opacity="1">AutoEncoder: Best Threshold Exploration</text></svg>