<svg version="1.1" xmlns="http://www.w3.org/2000/svg" width="330" height="300"><defs><clipPath id="zbmWzxgiaceS"><path fill="none" stroke="none" d="M 65.5 27.5 L 300.5 27.5 L 300.5 250.5 L 65.5 250.5 L 65.5 27.5"/></clipPath><clipPath id="wyWIDdIdEeoT"><path fill="none" stroke="none" d="M 65.5 27.5 L 300.5 27.5 L 300.5 250.5 L 65.5 250.5 L 65.5 27.5"/></clipPath><clipPath id="hBnJgeSTBwgv"><path fill="none" stroke="none" d="M 65.5 27.5 L 300.5 27.5 L 300.5 250.5 L 65.5 250.5 L 65.5 27.5"/></clipPath><clipPath id="gTWcpKrhlADF"><path fill="none" stroke="none" d="M 65.5 27.5 L 300.5 27.5 L 300.5 250.5 L 65.5 250.5 L 65.5 27.5"/></clipPath><clipPath id="UmXisDTvohLR"><path fill="none" stroke="none" d="M 65.5 27.5 L 300.5 27.5 L 300.5 250.5 L 65.5 250.5 L 65.5 27.5"/></clipPath><clipPath id="wUEziyTTNEzA"><path fill="none" stroke="none" d="M 65.5 27.5 L 300.5 27.5 L 300.5 250.5 L 65.5 250.5 L 65.5 27.5"/></clipPath><clipPath id="tqNOkWMNgXzF"><path fill="none" stroke="none" d="M 65.5 27.5 L 300.5 27.5 L 300.5 250.5 L 65.5 250.5 L 65.5 27.5"/></clipPath><clipPath id="wJqwiclxNldB"><path fill="none" stroke="none" d="M 65.5 27.5 L 300.5 27.5 L 300.5 250.5 L 65.5 250.5 L 65.5 27.5"/></clipPath></defs><path fill="rgb(255,255,255)" stroke="none" paint-order="stroke" d="M 0.5 0.5 L 330.5 0.5 L 330.5 300.5 L 0.5 300.5 L 0.5 0.5" fill-opacity="1"/><rect fill="#FFFFFF" stroke="none" x="65" y="27" width="235" height="223" transform="matrix(1, 0, 0, 1, 0.5, 0.5)"/><path fill="rgb(255,255,255)" stroke="none" paint-order="stroke" d="M 65.5 27.5 L 300.5 27.5 L 300.5 250.5 L 65.5 250.5 L 65.5 27.5" fill-opacity="1"/><path fill="none" stroke="rgb(229,229,229)" paint-order="fill" d="M 65.5 27.5 L 300.5 27.5 L 300.5 250.5 L 65.5 250.5 L 65.5 27.5" stroke-opacity="1" stroke-linejoin="bevel" stroke-miterlimit="10" stroke-dasharray=""/><path fill="rgb(115,115,115)" stroke="rgb(255,255,255)" paint-order="fill" d="M 76.18181610107422 139 L 183 139 L 183 240.36363983154297 L 76.18181610107422 240.36363983154297 L 76.18181610107422 139" fill-opacity="0.6" clip-path="url(#hBnJgeSTBwgv)" stroke-opacity="0.6" stroke-linejoin="bevel" stroke-miterlimit="10" stroke-width="1.5" stroke-dasharray=""/><path fill="rgb(0,0,0)" stroke="rgb(255,255,255)" paint-order="fill" d="M 183 139 L 289.8181838989258 139 L 289.8181838989258 240.36363983154297 L 183 240.36363983154297 L 183 139" fill-opacity="0.6" clip-path="url(#hBnJgeSTBwgv)" stroke-opacity="0.6" stroke-linejoin="bevel" stroke-miterlimit="10" stroke-width="1.5" stroke-dasharray=""/><path fill="rgb(0,0,0)" stroke="rgb(255,255,255)" paint-order="fill" d="M 76.18181610107422 37.6363639831543 L 183 37.6363639831543 L 183 139.00000381469727 L 76.18181610107422 139.00000381469727 L 76.18181610107422 37.6363639831543" fill-opacity="0.6" clip-path="url(#hBnJgeSTBwgv)" stroke-opacity="0.6" stroke-linejoin="bevel" stroke-miterlimit="10" stroke-width="1.5" stroke-dasharray=""/><path fill="rgb(255,255,255)" stroke="rgb(255,255,255)" paint-order="fill" d="M 183 37.6363639831543 L 289.8181838989258 37.6363639831543 L 289.8181838989258 139.00000381469727 L 183 139.00000381469727 L 183 37.6363639831543" fill-opacity="0.6" clip-path="url(#hBnJgeSTBwgv)" stroke-opacity="0.6" stroke-linejoin="bevel" stroke-miterlimit="10" stroke-width="1.5" stroke-dasharray=""/><text fill="rgb(68,68,68)" stroke="none" font-family="helvetica" font-size="11px" font-style="normal" font-weight="normal" text-decoration="normal" x="115.09091186523438" y="271" text-anchor="start" dominant-baseline="alphabetic" transform="matrix(1, 0, 0, 1, 0.5, 0.5)" fill-opacity="1">False</text><text fill="rgb(68,68,68)" stroke="none" font-family="helvetica" font-size="11px" font-style="normal" font-weight="normal" text-decoration="normal" x="223.90908813476562" y="271" text-anchor="start" dominant-baseline="alphabetic" transform="matrix(1, 0, 0, 1, 0.5, 0.5)" fill-opacity="1">True</text><text fill="rgb(68,68,68)" stroke="none" font-family="helvetica" font-size="13px" font-style="italic" font-weight="normal" text-decoration="normal" x="149.5" y="294" text-anchor="start" dominant-baseline="alphabetic" transform="matrix(1, 0, 0, 1, 0.5, 0.5)" fill-opacity="1">True Class</text><text fill="rgb(68,68,68)" stroke="none" font-family="helvetica" font-size="11px" font-style="normal" font-weight="normal" text-decoration="normal" x="26" y="192.68182373046875" text-anchor="start" dominant-baseline="alphabetic" transform="matrix(1, 0, 0, 1, 0.5, 0.5)" fill-opacity="1">False</text><text fill="rgb(68,68,68)" stroke="none" font-family="helvetica" font-size="11px" font-style="normal" font-weight="normal" text-decoration="normal" x="30" y="91.31818389892578" text-anchor="start" dominant-baseline="alphabetic" transform="matrix(1, 0, 0, 1, 0.5, 0.5)" fill-opacity="1">True</text><text fill="rgb(68,68,68)" stroke="none" font-family="helvetica" font-size="13px" font-style="italic" font-weight="normal" text-decoration="normal" x="-32" y="135.5" text-anchor="start" dominant-baseline="alphabetic" transform="matrix(6.123233995736766e-17, -1, 1, 6.123233995736766e-17, -120, 157)" fill-opacity="1">Predicted Class</text><g clip-path="url(#gTWcpKrhlADF)"><text fill="rgb(255,255,255)" stroke="none" font-family="helvetica" font-size="10px" font-style="normal" font-weight="bold" text-decoration="normal" x="122.5909090909091" y="192.6818181818182" text-anchor="start" dominant-baseline="alphabetic" transform="matrix(1, 0, 0, 1, 0.5, 0.5)" fill-opacity="1">680</text></g><g clip-path="url(#UmXisDTvohLR)"><text fill="rgb(255,255,255)" stroke="none" font-family="helvetica" font-size="10px" font-style="normal" font-weight="bold" text-decoration="normal" x="122.5909090909091" y="91.31818181818183" text-anchor="start" dominant-baseline="alphabetic" transform="matrix(1, 0, 0, 1, 0.5, 0.5)" fill-opacity="1">135</text></g><g clip-path="url(#wUEziyTTNEzA)"><text fill="rgb(255,255,255)" stroke="none" font-family="helvetica" font-size="10px" font-style="normal" font-weight="bold" text-decoration="normal" x="229.4090909090909" y="192.6818181818182" text-anchor="start" dominant-baseline="alphabetic" transform="matrix(1, 0, 0, 1, 0.5, 0.5)" fill-opacity="1">137</text></g><g clip-path="url(#tqNOkWMNgXzF)"><text fill="rgb(0,0,0)" stroke="none" font-family="helvetica" font-size="10px" font-style="normal" font-weight="bold" text-decoration="normal" x="228.4090909090909" y="91.31818181818183" text-anchor="start" dominant-baseline="alphabetic" transform="matrix(1, 0, 0, 1, 0.5, 0.5)" fill-opacity="1">1338</text></g><text fill="rgb(68,68,68)" stroke="none" font-family="helvetica" font-size="13px" font-style="normal" font-weight="bold" text-decoration="normal" x="69" y="19" text-anchor="start" dominant-baseline="alphabetic" transform="matrix(1, 0, 0, 1, 0.5, 0.5)" fill-opacity="1">AutoEncoder: Confusion Matrix</text></svg>