<svg version="1.1" xmlns="http://www.w3.org/2000/svg" width="600" height="400"><defs><clipPath id="UmXpTCvDPqln"><path fill="none" stroke="none" d="M 44.5 31.5 L 570.5 31.5 L 570.5 355.5 L 44.5 355.5 L 44.5 31.5"/></clipPath><clipPath id="pEnAlzQeuitR"><path fill="none" stroke="none" d="M 44.5 31.5 L 570.5 31.5 L 570.5 355.5 L 44.5 355.5 L 44.5 31.5"/></clipPath><clipPath id="qCikHmbIZlIO"><path fill="none" stroke="none" d="M 44.5 31.5 L 570.5 31.5 L 570.5 355.5 L 44.5 355.5 L 44.5 31.5"/></clipPath><clipPath id="GesWwOLymzix"><path fill="none" stroke="none" d="M 44.5 31.5 L 570.5 31.5 L 570.5 355.5 L 44.5 355.5 L 44.5 31.5"/></clipPath><clipPath id="oTEgWLqMNcsW"><path fill="none" stroke="none" d="M 44.5 31.5 L 570.5 31.5 L 570.5 355.5 L 44.5 355.5 L 44.5 31.5"/></clipPath><clipPath id="TStPrIghFxCP"><path fill="none" stroke="none" d="M 44.5 31.5 L 570.5 31.5 L 570.5 355.5 L 44.5 355.5 L 44.5 31.5"/></clipPath></defs><path fill="rgb(255,255,255)" stroke="none" paint-order="stroke" d="M 0.5 0.5 L 600.5 0.5 L 600.5 400.5 L 0.5 400.5 L 0.5 0.5" fill-opacity="1"/><rect fill="#FFFFFF" stroke="none" x="44" y="31" width="526" height="324" transform="matrix(1, 0, 0, 1, 0.5, 0.5)"/><path fill="rgb(255,255,255)" stroke="none" paint-order="stroke" d="M 44.5 31.5 L 570.5 31.5 L 570.5 355.5 L 44.5 355.5 L 44.5 31.5" fill-opacity="1"/><path fill="none" stroke="rgb(229,229,229)" paint-order="fill" d="M 44.5 31.5 L 570.5 31.5 L 570.5 355.5 L 44.5 355.5 L 44.5 31.5" stroke-opacity="1" stroke-linejoin="bevel" stroke-miterlimit="10" stroke-dasharray=""/><path fill="none" stroke="rgb(229,229,229)" paint-order="fill" d="M 44.5 353.5 L 570.5 353.5 M 44.5 288.5 L 570.5 288.5 M 44.5 223.5 L 570.5 223.5 M 44.5 158.5 L 570.5 158.5 M 44.5 93.5 L 570.5 93.5" stroke-opacity="1" stroke-linejoin="bevel" stroke-miterlimit="10" stroke-dasharray="" clip-path="url(#pEnAlzQeuitR)"/><path fill="none" stroke="rgb(0,0,0)" paint-order="fill" d="M 68.40908813476562 46.227272033691406 L 93.57655334472656 303.1643371582031 L 118.7440185546875 308.0391845703125 L 143.91148376464844 317.4942626953125 L 169.07894897460938 321.59490966796875 L 194.2464141845703 323.48828125 L 219.41387939453125 325.95928955078125 L 244.5813446044922 329.359619140625 L 269.7488098144531 331.507080078125 L 294.916259765625 333.0894775390625 L 320.083740234375 334.50067138671875 L 345.2511901855469 335.8580627441406 L 370.4186706542969 336.9705810546875 L 395.58612060546875 337.7698669433594 L 420.75360107421875 338.51214599609375 L 445.9210510253906 339.203369140625 L 471.0885314941406 339.67626953125 L 496.2559814453125 340.08172607421875 L 521.4234619140625 340.4647216796875 L 546.5908813476562 340.7727355957031" stroke-opacity="1" stroke-linejoin="bevel" stroke-miterlimit="10" stroke-dasharray="2,4" clip-path="url(#qCikHmbIZlIO)"/><path fill="none" stroke="rgb(255,127,80)" paint-order="fill" d="M 68.40908813476562 294.2622985839844 L 93.57655334472656 299.21051025390625 L 118.7440185546875 306.8333740234375 L 143.91148376464844 314.545166015625 L 169.07894897460938 314.68536376953125 L 194.2464141845703 318.1683654785156 L 219.41387939453125 321.64306640625 L 244.5813446044922 324.9354248046875 L 269.7488098144531 326.8216857910156 L 294.916259765625 327.19805908203125 L 320.083740234375 327.0477294921875 L 345.2511901855469 330.61956787109375 L 370.4186706542969 331.89093017578125 L 395.58612060546875 332.5799560546875 L 420.75360107421875 333.6865234375 L 445.9210510253906 333.7720947265625 L 471.0885314941406 333.0001220703125 L 496.2559814453125 335.51861572265625 L 521.4234619140625 329.653076171875 L 546.5908813476562 336.2232360839844" stroke-opacity="1" stroke-linejoin="bevel" stroke-miterlimit="10" stroke-width="1.5" stroke-dasharray="" clip-path="url(#GesWwOLymzix)"/><path fill="none" stroke="rgb(0,0,0)" paint-order="fill" d="M 44.5 355.5 L 570.5 355.5" stroke-opacity="1" stroke-linejoin="bevel" stroke-miterlimit="10" stroke-dasharray=""/><path fill="none" stroke="rgb(0,0,0)" paint-order="fill" d="M 68.5 361.5 L 68.5 353.5 M 194.5 361.5 L 194.5 353.5 M 320.5 361.5 L 320.5 353.5 M 445.5 361.5 L 445.5 353.5" stroke-opacity="1" stroke-linejoin="bevel" stroke-miterlimit="10" stroke-dasharray=""/><path fill="none" stroke="rgb(0,0,0)" paint-order="fill" d="M 68.5 359.5 L 68.5 355.5 M 93.5 359.5 L 93.5 355.5 M 118.5 359.5 L 118.5 355.5 M 143.5 359.5 L 143.5 355.5 M 169.5 359.5 L 169.5 355.5 M 194.5 359.5 L 194.5 355.5 M 219.5 359.5 L 219.5 355.5 M 244.5 359.5 L 244.5 355.5 M 269.5 359.5 L 269.5 355.5 M 294.5 359.5 L 294.5 355.5 M 320.5 359.5 L 320.5 355.5 M 345.5 359.5 L 345.5 355.5 M 370.5 359.5 L 370.5 355.5 M 395.5 359.5 L 395.5 355.5 M 420.5 359.5 L 420.5 355.5 M 445.5 359.5 L 445.5 355.5 M 471.5 359.5 L 471.5 355.5 M 496.5 359.5 L 496.5 355.5 M 521.5 359.5 L 521.5 355.5 M 546.5 359.5 L 546.5 355.5" stroke-opacity="1" stroke-linejoin="bevel" stroke-miterlimit="10" stroke-dasharray=""/><text fill="rgb(68,68,68)" stroke="none" font-family="helvetica" font-size="11px" font-style="normal" font-weight="normal" text-decoration="normal" x="64.40908813476562" y="374" text-anchor="start" dominant-baseline="alphabetic" transform="matrix(1, 0, 0, 1, 0.5, 0.5)" fill-opacity="1">0</text><text fill="rgb(68,68,68)" stroke="none" font-family="helvetica" font-size="11px" font-style="normal" font-weight="normal" text-decoration="normal" x="190.2464141845703" y="374" text-anchor="start" dominant-baseline="alphabetic" transform="matrix(1, 0, 0, 1, 0.5, 0.5)" fill-opacity="1">5</text><text fill="rgb(68,68,68)" stroke="none" font-family="helvetica" font-size="11px" font-style="normal" font-weight="normal" text-decoration="normal" x="312.583740234375" y="374" text-anchor="start" dominant-baseline="alphabetic" transform="matrix(1, 0, 0, 1, 0.5, 0.5)" fill-opacity="1">10</text><text fill="rgb(68,68,68)" stroke="none" font-family="helvetica" font-size="11px" font-style="normal" font-weight="normal" text-decoration="normal" x="438.4210510253906" y="374" text-anchor="start" dominant-baseline="alphabetic" transform="matrix(1, 0, 0, 1, 0.5, 0.5)" fill-opacity="1">15</text><text fill="rgb(68,68,68)" stroke="none" font-family="helvetica" font-size="13px" font-style="italic" font-weight="normal" text-decoration="normal" x="276.5" y="394" text-anchor="start" dominant-baseline="alphabetic" transform="matrix(1, 0, 0, 1, 0.5, 0.5)" fill-opacity="1"># Epochs</text><path fill="none" stroke="rgb(0,0,0)" paint-order="fill" d="M 44.5 355.5 L 44.5 31.5" stroke-opacity="1" stroke-linejoin="bevel" stroke-miterlimit="10" stroke-dasharray=""/><path fill="none" stroke="rgb(0,0,0)" paint-order="fill" d="M 38.5 353.5 L 46.5 353.5 M 38.5 288.5 L 46.5 288.5 M 38.5 223.5 L 46.5 223.5 M 38.5 158.5 L 46.5 158.5 M 38.5 93.5 L 46.5 93.5" stroke-opacity="1" stroke-linejoin="bevel" stroke-miterlimit="10" stroke-dasharray=""/><path fill="none" stroke="rgb(0,0,0)" paint-order="fill" d="M 40.5 353.5 L 44.5 353.5 M 40.5 340.5 L 44.5 340.5 M 40.5 327.5 L 44.5 327.5 M 40.5 314.5 L 44.5 314.5 M 40.5 301.5 L 44.5 301.5 M 40.5 288.5 L 44.5 288.5 M 40.5 275.5 L 44.5 275.5 M 40.5 262.5 L 44.5 262.5 M 40.5 249.5 L 44.5 249.5 M 40.5 236.5 L 44.5 236.5 M 40.5 223.5 L 44.5 223.5 M 40.5 210.5 L 44.5 210.5 M 40.5 197.5 L 44.5 197.5 M 40.5 184.5 L 44.5 184.5 M 40.5 171.5 L 44.5 171.5 M 40.5 158.5 L 44.5 158.5 M 40.5 145.5 L 44.5 145.5 M 40.5 132.5 L 44.5 132.5 M 40.5 119.5 L 44.5 119.5 M 40.5 106.5 L 44.5 106.5 M 40.5 93.5 L 44.5 93.5 M 40.5 80.5 L 44.5 80.5 M 40.5 67.5 L 44.5 67.5 M 40.5 54.5 L 44.5 54.5 M 40.5 41.5 L 44.5 41.5" stroke-opacity="1" stroke-linejoin="bevel" stroke-miterlimit="10" stroke-dasharray=""/><text fill="rgb(68,68,68)" stroke="none" font-family="helvetica" font-size="11px" font-style="normal" font-weight="normal" text-decoration="normal" x="26" y="356.51214599609375" text-anchor="start" dominant-baseline="alphabetic" transform="matrix(1, 0, 0, 1, 0.5, 0.5)" fill-opacity="1">3</text><text fill="rgb(68,68,68)" stroke="none" font-family="helvetica" font-size="11px" font-style="normal" font-weight="normal" text-decoration="normal" x="26" y="291.5574951171875" text-anchor="start" dominant-baseline="alphabetic" transform="matrix(1, 0, 0, 1, 0.5, 0.5)" fill-opacity="1">4</text><text fill="rgb(68,68,68)" stroke="none" font-family="helvetica" font-size="11px" font-style="normal" font-weight="normal" text-decoration="normal" x="26" y="226.60284423828125" text-anchor="start" dominant-baseline="alphabetic" transform="matrix(1, 0, 0, 1, 0.5, 0.5)" fill-opacity="1">5</text><text fill="rgb(68,68,68)" stroke="none" font-family="helvetica" font-size="11px" font-style="normal" font-weight="normal" text-decoration="normal" x="26" y="161.648193359375" text-anchor="start" dominant-baseline="alphabetic" transform="matrix(1, 0, 0, 1, 0.5, 0.5)" fill-opacity="1">6</text><text fill="rgb(68,68,68)" stroke="none" font-family="helvetica" font-size="11px" font-style="normal" font-weight="normal" text-decoration="normal" x="26" y="96.69355010986328" text-anchor="start" dominant-baseline="alphabetic" transform="matrix(1, 0, 0, 1, 0.5, 0.5)" fill-opacity="1">7</text><text fill="rgb(68,68,68)" stroke="none" font-family="helvetica" font-size="13px" font-style="italic" font-weight="normal" text-decoration="normal" x="3.5" y="190" text-anchor="start" dominant-baseline="alphabetic" transform="matrix(6.123233995736766e-17, -1, 1, 6.123233995736766e-17, -174.5, 211.5)" fill-opacity="1">Loss</text><path fill="rgb(255,255,255)" stroke="rgb(229,229,229)" paint-order="fill" d="M 431.5 41.5 L 560.5 41.5 L 560.5 104.5 L 431.5 104.5 L 431.5 41.5" fill-opacity="0.9490196078431372" clip-path="url(#oTEgWLqMNcsW)" stroke-opacity="0.5019607843137255" stroke-linejoin="bevel" stroke-miterlimit="10" stroke-dasharray=""/><g clip-path="url(#oTEgWLqMNcsW)"><text fill="rgb(68,68,68)" stroke="none" font-family="helvetica" font-size="8pt" font-style="normal" font-weight="normal" text-decoration="normal" x="466" y="61" text-anchor="start" dominant-baseline="central" transform="matrix(1, 0, 0, 1, 0.5, 0.5)" fill-opacity="1">Training Loss</text></g><path fill="none" stroke="rgb(0,0,0)" paint-order="fill" d="M 441.5 61.5 L 461.5 61.5" stroke-opacity="1" stroke-linejoin="bevel" stroke-miterlimit="10" stroke-dasharray="2,4" clip-path="url(#oTEgWLqMNcsW)"/><g clip-path="url(#oTEgWLqMNcsW)"><text fill="rgb(68,68,68)" stroke="none" font-family="helvetica" font-size="8pt" font-style="normal" font-weight="normal" text-decoration="normal" x="466" y="84" text-anchor="start" dominant-baseline="central" transform="matrix(1, 0, 0, 1, 0.5, 0.5)" fill-opacity="1">Validation Loss</text></g><path fill="none" stroke="rgb(255,127,80)" paint-order="fill" d="M 441.5 84.5 L 461.5 84.5" stroke-opacity="1" stroke-linejoin="bevel" stroke-miterlimit="10" stroke-width="1.5" stroke-dasharray="" clip-path="url(#oTEgWLqMNcsW)"/><text fill="rgb(68,68,68)" stroke="none" font-family="helvetica" font-size="12pt" font-style="normal" font-weight="bold" text-decoration="normal" x="176" y="22" text-anchor="start" dominant-baseline="alphabetic" transform="matrix(1, 0, 0, 1, 0.5, 0.5)" fill-opacity="1">AutoEncoder: Loss per Epoch</text></svg>