<svg version="1.1" xmlns="http://www.w3.org/2000/svg" width="600" height="400"><defs><clipPath id="ZuxVRXpRlMpB"><path fill="none" stroke="none" d="M 51.5 31.5 L 570.5 31.5 L 570.5 355.5 L 51.5 355.5 L 51.5 31.5"/></clipPath><clipPath id="lcqBVcBFunMZ"><path fill="none" stroke="none" d="M 51.5 31.5 L 570.5 31.5 L 570.5 355.5 L 51.5 355.5 L 51.5 31.5"/></clipPath><clipPath id="JLNxmURrNOCs"><path fill="none" stroke="none" d="M 51.5 31.5 L 570.5 31.5 L 570.5 355.5 L 51.5 355.5 L 51.5 31.5"/></clipPath><clipPath id="UOTXETkIRWfK"><path fill="none" stroke="none" d="M 51.5 31.5 L 570.5 31.5 L 570.5 355.5 L 51.5 355.5 L 51.5 31.5"/></clipPath><clipPath id="JaTiDqwqhmEX"><path fill="none" stroke="none" d="M 51.5 31.5 L 570.5 31.5 L 570.5 355.5 L 51.5 355.5 L 51.5 31.5"/></clipPath><clipPath id="vPIRBkJqnftb"><path fill="none" stroke="none" d="M 51.5 31.5 L 570.5 31.5 L 570.5 355.5 L 51.5 355.5 L 51.5 31.5"/></clipPath></defs><path fill="rgb(255,255,255)" stroke="none" paint-order="stroke" d="M 0.5 0.5 L 600.5 0.5 L 600.5 400.5 L 0.5 400.5 L 0.5 0.5" fill-opacity="1"/><rect fill="#FFFFFF" stroke="none" x="51" y="31" width="519" height="324" transform="matrix(1, 0, 0, 1, 0.5, 0.5)"/><path fill="rgb(255,255,255)" stroke="none" paint-order="stroke" d="M 51.5 31.5 L 570.5 31.5 L 570.5 355.5 L 51.5 355.5 L 51.5 31.5" fill-opacity="1"/><path fill="none" stroke="rgb(229,229,229)" paint-order="fill" d="M 51.5 31.5 L 570.5 31.5 L 570.5 355.5 L 51.5 355.5 L 51.5 31.5" stroke-opacity="1" stroke-linejoin="bevel" stroke-miterlimit="10" stroke-dasharray=""/><path fill="none" stroke="rgb(229,229,229)" paint-order="fill" d="M 51.5 305.5 L 570.5 305.5 M 51.5 238.5 L 570.5 238.5 M 51.5 170.5 L 570.5 170.5 M 51.5 102.5 L 570.5 102.5 M 51.5 34.5 L 570.5 34.5" stroke-opacity="1" stroke-linejoin="bevel" stroke-miterlimit="10" stroke-dasharray="" clip-path="url(#lcqBVcBFunMZ)"/><path fill="none" stroke="rgb(0,0,0)" paint-order="fill" d="M 75.09091186523438 46.227272033691406 L 78.4371337890625 305.9658203125 L 81.78336334228516 313.1439208984375 L 85.12959289550781 317.37005615234375 L 88.47582244873047 320.84014892578125 L 91.82205200195312 323.00335693359375 L 95.16828155517578 324.933349609375 L 98.5145034790039 326.19219970703125 L 101.86073303222656 327.0114440917969 L 105.20696258544922 328.0699768066406 L 108.55319213867188 329.2823486328125 L 111.89942169189453 330.1809387207031 L 115.24565124511719 330.7098693847656 L 118.59187316894531 331.13739013671875 L 121.93810272216797 331.50079345703125 L 125.28433227539062 331.858642578125 L 128.63055419921875 332.253173828125 L 131.97679138183594 332.5974426269531 L 135.32301330566406 332.8453369140625 L 138.66925048828125 333.059326171875 L 142.01547241210938 333.3077087402344 L 145.36170959472656 333.5788879394531 L 148.7079315185547 333.80426025390625 L 152.0541534423828 334.0252380371094 L 155.400390625 334.24090576171875 L 158.74661254882812 334.43756103515625 L 162.0928497314453 334.7320556640625 L 165.43907165527344 334.859130859375 L 168.78529357910156 334.9886779785156 L 172.13153076171875 335.1124572753906 L 175.47775268554688 335.2170104980469 L 178.82398986816406 335.29779052734375 L 182.1702117919922 335.4382019042969 L 185.5164337158203 335.5092468261719 L 188.8626708984375 335.59759521484375 L 192.20889282226562 335.6733093261719 L 195.5551300048828 335.755859375 L 198.90135192871094 335.82373046875 L 202.24758911132812 335.9178771972656 L 205.59381103515625 335.99066162109375 L 208.94003295898438 336.08148193359375 L 212.28627014160156 336.15899658203125 L 215.6324920654297 336.2442321777344 L 218.97872924804688 336.341064453125 L 222.324951171875 336.44158935546875 L 225.67117309570312 336.52374267578125 L 229.0174102783203 336.5804748535156 L 232.36363220214844 336.62548828125 L 235.70986938476562 336.7357482910156 L 239.05609130859375 336.77886962890625 L 242.40232849121094 336.8324279785156 L 245.74855041503906 336.89068603515625 L 249.0947723388672 336.9696044921875 L 252.44100952148438 337.0577392578125 L 255.7872314453125 337.0992126464844 L 259.1334533691406 337.16455078125 L 262.47967529296875 337.23370361328125 L 265.825927734375 337.3531188964844 L 269.1721496582031 337.45086669921875 L 272.51837158203125 337.6368408203125 L 275.8645935058594 337.684326171875 L 279.2108459472656 337.7724304199219 L 282.55706787109375 337.85040283203125 L 285.9032897949219 337.92755126953125 L 289.24951171875 337.95989990234375 L 292.5957336425781 338.01141357421875 L 295.9419860839844 338.09918212890625 L 299.2882080078125 338.1227722167969 L 302.6344299316406 338.20343017578125 L 305.98065185546875 338.2413330078125 L 309.3268737792969 338.28692626953125 L 312.6731262207031 338.38031005859375 L 316.01934814453125 338.4099426269531 L 319.3655700683594 338.50836181640625 L 322.7117919921875 338.54595947265625 L 326.0580139160156 338.673583984375 L 329.4042663574219 338.72882080078125 L 332.75048828125 338.7594909667969 L 336.0967102050781 338.8052673339844 L 339.44293212890625 338.9575500488281 L 342.7891540527344 338.9200439453125 L 346.1354064941406 339.08172607421875 L 349.48162841796875 339.1266784667969 L 352.8278503417969 339.16058349609375 L 356.174072265625 339.2821044921875 L 359.52032470703125 339.3873291015625 L 362.8665466308594 339.4356994628906 L 366.2127685546875 339.4769287109375 L 369.5589904785156 339.5613098144531 L 372.90521240234375 339.59942626953125 L 376.25146484375 339.6747741699219 L 379.5976867675781 339.68829345703125 L 382.94390869140625 339.78924560546875 L 386.2901306152344 339.8334045410156 L 389.6363525390625 339.9009704589844 L 392.98260498046875 339.875 L 396.3288269042969 339.9005432128906 L 399.675048828125 340.0075988769531 L 403.0212707519531 339.98138427734375 L 406.36749267578125 340.0900573730469 L 409.7137451171875 340.1050109863281 L 413.0599670410156 340.1427307128906 L 416.40618896484375 340.2204284667969 L 419.7524108886719 340.21575927734375 L 423.0986328125 340.1019287109375 L 426.44488525390625 340.21917724609375 L 429.7911071777344 340.20709228515625 L 433.1373291015625 340.26165771484375 L 436.4835510253906 340.33380126953125 L 439.82977294921875 340.28521728515625 L 443.176025390625 340.3940124511719 L 446.5222473144531 340.3936767578125 L 449.86846923828125 340.4869689941406 L 453.2146911621094 340.43365478515625 L 456.5609436035156 340.4891052246094 L 459.90716552734375 340.4479064941406 L 463.2533874511719 340.47772216796875 L 466.599609375 340.50115966796875 L 469.9458312988281 340.5797119140625 L 473.2920837402344 340.5716857910156 L 476.6383056640625 340.5450744628906 L 479.9845275878906 340.4756164550781 L 483.33074951171875 340.5201416015625 L 486.6769714355469 340.4002685546875 L 490.0232238769531 340.603271484375 L 493.36944580078125 340.64459228515625 L 496.7156677246094 340.5899963378906 L 500.0618896484375 340.73223876953125 L 503.4081115722656 340.67315673828125 L 506.7543640136719 340.66864013671875 L 510.1005859375 340.65106201171875 L 513.4468383789062 340.5176086425781 L 516.7930297851562 340.64691162109375 L 520.1392822265625 340.27423095703125 L 523.4854736328125 340.73443603515625 L 526.8317260742188 340.4601135253906 L 530.177978515625 340.7326354980469 L 533.524169921875 340.69769287109375 L 536.8704223632812 340.7727355957031 L 540.2166137695312 340.7539978027344 L 543.5628662109375 340.4922790527344 L 546.9091186523438 340.7579345703125" stroke-opacity="1" stroke-linejoin="bevel" stroke-miterlimit="10" stroke-dasharray="2,4" clip-path="url(#JLNxmURrNOCs)"/><path fill="none" stroke="rgb(255,127,80)" paint-order="fill" d="M 75.09091186523438 291.9571533203125 L 78.4371337890625 307.6102600097656 L 81.78336334228516 311.0379638671875 L 85.12959289550781 314.7120056152344 L 88.47582244873047 319.0889587402344 L 91.82205200195312 321.05419921875 L 95.16828155517578 321.330322265625 L 98.5145034790039 323.9981384277344 L 101.86073303222656 323.128173828125 L 105.20696258544922 326.1131286621094 L 108.55319213867188 326.8834228515625 L 111.89942169189453 327.20684814453125 L 115.24565124511719 327.7381286621094 L 118.59187316894531 328.20172119140625 L 121.93810272216797 327.2292175292969 L 125.28433227539062 329.0640563964844 L 128.63055419921875 329.1246032714844 L 131.97679138183594 329.37603759765625 L 135.32301330566406 328.1300354003906 L 138.66925048828125 329.9683532714844 L 142.01547241210938 327.88885498046875 L 145.36170959472656 329.7059631347656 L 148.7079315185547 330.5809631347656 L 152.0541534423828 330.4742126464844 L 155.400390625 331.3057556152344 L 158.74661254882812 331.6181335449219 L 162.0928497314453 331.70172119140625 L 165.43907165527344 331.6199951171875 L 168.78529357910156 331.25830078125 L 172.13153076171875 332.2506103515625 L 175.47775268554688 332.14678955078125 L 178.82398986816406 332.1490478515625 L 182.1702117919922 332.1788635253906 L 185.5164337158203 332.6191101074219 L 188.8626708984375 332.5202941894531 L 192.20889282226562 332.5992736816406 L 195.5551300048828 332.345947265625 L 198.90135192871094 332.4715881347656 L 202.24758911132812 332.4426574707031 L 205.59381103515625 332.9683837890625 L 208.94003295898438 333.0089111328125 L 212.28627014160156 332.3662109375 L 215.6324920654297 332.79632568359375 L 218.97872924804688 333.17669677734375 L 222.324951171875 333.1813049316406 L 225.67117309570312 332.98358154296875 L 229.0174102783203 333.4692687988281 L 232.36363220214844 333.52813720703125 L 235.70986938476562 333.6201171875 L 239.05609130859375 333.8771667480469 L 242.40232849121094 334.022216796875 L 245.74855041503906 334.03326416015625 L 249.0947723388672 333.60321044921875 L 252.44100952148438 333.4778747558594 L 255.7872314453125 334.2162170410156 L 259.1334533691406 334.32666015625 L 262.47967529296875 334.2710266113281 L 265.825927734375 334.6600341796875 L 269.1721496582031 334.5230712890625 L 272.51837158203125 334.9540710449219 L 275.8645935058594 334.6534423828125 L 279.2108459472656 334.9175720214844 L 282.55706787109375 334.9169616699219 L 285.9032897949219 334.68035888671875 L 289.24951171875 334.68353271484375 L 292.5957336425781 334.6315612792969 L 295.9419860839844 335.2964782714844 L 299.2882080078125 335.55242919921875 L 302.6344299316406 335.29296875 L 305.98065185546875 335.3711853027344 L 309.3268737792969 333.82598876953125 L 312.6731262207031 335.39569091796875 L 316.01934814453125 335.3965148925781 L 319.3655700683594 335.2256164550781 L 322.7117919921875 335.8018798828125 L 326.0580139160156 335.7886657714844 L 329.4042663574219 335.8894958496094 L 332.75048828125 335.88592529296875 L 336.0967102050781 335.1351013183594 L 339.44293212890625 336.2706298828125 L 342.7891540527344 335.8465576171875 L 346.1354064941406 336.49774169921875 L 349.48162841796875 335.5064697265625 L 352.8278503417969 335.9886779785156 L 356.174072265625 336.365234375 L 359.52032470703125 336.7080078125 L 362.8665466308594 336.365478515625 L 366.2127685546875 336.02197265625 L 369.5589904785156 335.8830261230469 L 372.90521240234375 336.41790771484375 L 376.25146484375 336.5278015136719 L 379.5976867675781 336.5116271972656 L 382.94390869140625 335.2779846191406 L 386.2901306152344 336.8392333984375 L 389.6363525390625 336.6685485839844 L 392.98260498046875 336.0707702636719 L 396.3288269042969 336.8331604003906 L 399.675048828125 337.01239013671875 L 403.0212707519531 336.96331787109375 L 406.36749267578125 336.81121826171875 L 409.7137451171875 337.4160461425781 L 413.0599670410156 337.00299072265625 L 416.40618896484375 337.3028259277344 L 419.7524108886719 337.337158203125 L 423.0986328125 337.2956848144531 L 426.44488525390625 336.73907470703125 L 429.7911071777344 337.8783264160156 L 433.1373291015625 337.4249267578125 L 436.4835510253906 337.6756896972656 L 439.82977294921875 337.7357177734375 L 443.176025390625 337.8949890136719 L 446.5222473144531 337.98541259765625 L 449.86846923828125 337.6618347167969 L 453.2146911621094 336.7536315917969 L 456.5609436035156 337.90045166015625 L 459.90716552734375 337.3192138671875 L 463.2533874511719 337.6150817871094 L 466.599609375 338.0447082519531 L 469.9458312988281 337.18206787109375 L 473.2920837402344 337.5384521484375 L 476.6383056640625 337.8590087890625 L 479.9845275878906 337.3780822753906 L 483.33074951171875 337.9197692871094 L 486.6769714355469 335.24273681640625 L 490.0232238769531 337.3345642089844 L 493.36944580078125 338.2653503417969 L 496.7156677246094 337.92694091796875 L 500.0618896484375 337.39678955078125 L 503.4081115722656 337.5689392089844 L 506.7543640136719 336.51617431640625 L 510.1005859375 337.90484619140625 L 513.4468383789062 338.6451721191406 L 516.7930297851562 335.8734436035156 L 520.1392822265625 338.0006103515625 L 523.4854736328125 337.83392333984375 L 526.8317260742188 337.3900451660156 L 530.177978515625 338.3871765136719 L 533.524169921875 338.24176025390625 L 536.8704223632812 338.6077880859375 L 540.2166137695312 336.62689208984375 L 543.5628662109375 338.0411071777344 L 546.9091186523438 336.8642883300781" stroke-opacity="1" stroke-linejoin="bevel" stroke-miterlimit="10" stroke-width="1.5" stroke-dasharray="" clip-path="url(#UOTXETkIRWfK)"/><path fill="none" stroke="rgb(0,0,0)" paint-order="fill" d="M 51.5 355.5 L 570.5 355.5" stroke-opacity="1" stroke-linejoin="bevel" stroke-miterlimit="10" stroke-dasharray=""/><path fill="none" stroke="rgb(0,0,0)" paint-order="fill" d="M 75.5 361.5 L 75.5 353.5 M 142.5 361.5 L 142.5 353.5 M 208.5 361.5 L 208.5 353.5 M 275.5 361.5 L 275.5 353.5 M 342.5 361.5 L 342.5 353.5 M 409.5 361.5 L 409.5 353.5 M 476.5 361.5 L 476.5 353.5 M 543.5 361.5 L 543.5 353.5" stroke-opacity="1" stroke-linejoin="bevel" stroke-miterlimit="10" stroke-dasharray=""/><path fill="none" stroke="rgb(0,0,0)" paint-order="fill" d="M 61.5 359.5 L 61.5 355.5 M 75.5 359.5 L 75.5 355.5 M 88.5 359.5 L 88.5 355.5 M 101.5 359.5 L 101.5 355.5 M 115.5 359.5 L 115.5 355.5 M 128.5 359.5 L 128.5 355.5 M 142.5 359.5 L 142.5 355.5 M 155.5 359.5 L 155.5 355.5 M 168.5 359.5 L 168.5 355.5 M 182.5 359.5 L 182.5 355.5 M 195.5 359.5 L 195.5 355.5 M 208.5 359.5 L 208.5 355.5 M 222.5 359.5 L 222.5 355.5 M 235.5 359.5 L 235.5 355.5 M 249.5 359.5 L 249.5 355.5 M 262.5 359.5 L 262.5 355.5 M 275.5 359.5 L 275.5 355.5 M 289.5 359.5 L 289.5 355.5 M 302.5 359.5 L 302.5 355.5 M 316.5 359.5 L 316.5 355.5 M 329.5 359.5 L 329.5 355.5 M 342.5 359.5 L 342.5 355.5 M 356.5 359.5 L 356.5 355.5 M 369.5 359.5 L 369.5 355.5 M 382.5 359.5 L 382.5 355.5 M 396.5 359.5 L 396.5 355.5 M 409.5 359.5 L 409.5 355.5 M 423.5 359.5 L 423.5 355.5 M 436.5 359.5 L 436.5 355.5 M 449.5 359.5 L 449.5 355.5 M 463.5 359.5 L 463.5 355.5 M 476.5 359.5 L 476.5 355.5 M 490.5 359.5 L 490.5 355.5 M 503.5 359.5 L 503.5 355.5 M 516.5 359.5 L 516.5 355.5 M 530.5 359.5 L 530.5 355.5 M 543.5 359.5 L 543.5 355.5 M 556.5 359.5 L 556.5 355.5 M 570.5 359.5 L 570.5 355.5" stroke-opacity="1" stroke-linejoin="bevel" stroke-miterlimit="10" stroke-dasharray=""/><text fill="rgb(68,68,68)" stroke="none" font-family="helvetica" font-size="11px" font-style="normal" font-weight="normal" text-decoration="normal" x="71.09091186523438" y="374" text-anchor="start" dominant-baseline="alphabetic" transform="matrix(1, 0, 0, 1, 0.5, 0.5)" fill-opacity="1">0</text><text fill="rgb(68,68,68)" stroke="none" font-family="helvetica" font-size="11px" font-style="normal" font-weight="normal" text-decoration="normal" x="134.51547241210938" y="374" text-anchor="start" dominant-baseline="alphabetic" transform="matrix(1, 0, 0, 1, 0.5, 0.5)" fill-opacity="1">20</text><text fill="rgb(68,68,68)" stroke="none" font-family="helvetica" font-size="11px" font-style="normal" font-weight="normal" text-decoration="normal" x="201.44003295898438" y="374" text-anchor="start" dominant-baseline="alphabetic" transform="matrix(1, 0, 0, 1, 0.5, 0.5)" fill-opacity="1">40</text><text fill="rgb(68,68,68)" stroke="none" font-family="helvetica" font-size="11px" font-style="normal" font-weight="normal" text-decoration="normal" x="268.3645935058594" y="374" text-anchor="start" dominant-baseline="alphabetic" transform="matrix(1, 0, 0, 1, 0.5, 0.5)" fill-opacity="1">60</text><text fill="rgb(68,68,68)" stroke="none" font-family="helvetica" font-size="11px" font-style="normal" font-weight="normal" text-decoration="normal" x="335.2891540527344" y="374" text-anchor="start" dominant-baseline="alphabetic" transform="matrix(1, 0, 0, 1, 0.5, 0.5)" fill-opacity="1">80</text><text fill="rgb(68,68,68)" stroke="none" font-family="helvetica" font-size="11px" font-style="normal" font-weight="normal" text-decoration="normal" x="398.7137451171875" y="374" text-anchor="start" dominant-baseline="alphabetic" transform="matrix(1, 0, 0, 1, 0.5, 0.5)" fill-opacity="1">100</text><text fill="rgb(68,68,68)" stroke="none" font-family="helvetica" font-size="11px" font-style="normal" font-weight="normal" text-decoration="normal" x="465.6383056640625" y="374" text-anchor="start" dominant-baseline="alphabetic" transform="matrix(1, 0, 0, 1, 0.5, 0.5)" fill-opacity="1">120</text><text fill="rgb(68,68,68)" stroke="none" font-family="helvetica" font-size="11px" font-style="normal" font-weight="normal" text-decoration="normal" x="532.5628662109375" y="374" text-anchor="start" dominant-baseline="alphabetic" transform="matrix(1, 0, 0, 1, 0.5, 0.5)" fill-opacity="1">140</text><text fill="rgb(68,68,68)" stroke="none" font-family="helvetica" font-size="13px" font-style="italic" font-weight="normal" text-decoration="normal" x="280" y="394" text-anchor="start" dominant-baseline="alphabetic" transform="matrix(1, 0, 0, 1, 0.5, 0.5)" fill-opacity="1"># Epochs</text><path fill="none" stroke="rgb(0,0,0)" paint-order="fill" d="M 51.5 355.5 L 51.5 31.5" stroke-opacity="1" stroke-linejoin="bevel" stroke-miterlimit="10" stroke-dasharray=""/><path fill="none" stroke="rgb(0,0,0)" paint-order="fill" d="M 45.5 305.5 L 53.5 305.5 M 45.5 238.5 L 53.5 238.5 M 45.5 170.5 L 53.5 170.5 M 45.5 102.5 L 53.5 102.5 M 45.5 34.5 L 53.5 34.5" stroke-opacity="1" stroke-linejoin="bevel" stroke-miterlimit="10" stroke-dasharray=""/><path fill="none" stroke="rgb(0,0,0)" paint-order="fill" d="M 47.5 319.5 L 51.5 319.5 M 47.5 333.5 L 51.5 333.5 M 47.5 346.5 L 51.5 346.5 M 47.5 305.5 L 51.5 305.5 M 47.5 292.5 L 51.5 292.5 M 47.5 278.5 L 51.5 278.5 M 47.5 265.5 L 51.5 265.5 M 47.5 251.5 L 51.5 251.5 M 47.5 238.5 L 51.5 238.5 M 47.5 224.5 L 51.5 224.5 M 47.5 210.5 L 51.5 210.5 M 47.5 197.5 L 51.5 197.5 M 47.5 183.5 L 51.5 183.5 M 47.5 170.5 L 51.5 170.5 M 47.5 156.5 L 51.5 156.5 M 47.5 143.5 L 51.5 143.5 M 47.5 129.5 L 51.5 129.5 M 47.5 115.5 L 51.5 115.5 M 47.5 102.5 L 51.5 102.5 M 47.5 88.5 L 51.5 88.5 M 47.5 75.5 L 51.5 75.5 M 47.5 61.5 L 51.5 61.5 M 47.5 47.5 L 51.5 47.5 M 47.5 34.5 L 51.5 34.5" stroke-opacity="1" stroke-linejoin="bevel" stroke-miterlimit="10" stroke-dasharray=""/><text fill="rgb(68,68,68)" stroke="none" font-family="helvetica" font-size="11px" font-style="normal" font-weight="normal" text-decoration="normal" x="33" y="309.4046936035156" text-anchor="start" dominant-baseline="alphabetic" transform="matrix(1, 0, 0, 1, 0.5, 0.5)" fill-opacity="1">4</text><text fill="rgb(68,68,68)" stroke="none" font-family="helvetica" font-size="11px" font-style="normal" font-weight="normal" text-decoration="normal" x="33" y="241.529052734375" text-anchor="start" dominant-baseline="alphabetic" transform="matrix(1, 0, 0, 1, 0.5, 0.5)" fill-opacity="1">6</text><text fill="rgb(68,68,68)" stroke="none" font-family="helvetica" font-size="11px" font-style="normal" font-weight="normal" text-decoration="normal" x="33" y="173.65338134765625" text-anchor="start" dominant-baseline="alphabetic" transform="matrix(1, 0, 0, 1, 0.5, 0.5)" fill-opacity="1">8</text><text fill="rgb(68,68,68)" stroke="none" font-family="helvetica" font-size="11px" font-style="normal" font-weight="normal" text-decoration="normal" x="26" y="105.77772521972656" text-anchor="start" dominant-baseline="alphabetic" transform="matrix(1, 0, 0, 1, 0.5, 0.5)" fill-opacity="1">10</text><text fill="rgb(68,68,68)" stroke="none" font-family="helvetica" font-size="11px" font-style="normal" font-weight="normal" text-decoration="normal" x="26" y="37.90206527709961" text-anchor="start" dominant-baseline="alphabetic" transform="matrix(1, 0, 0, 1, 0.5, 0.5)" fill-opacity="1">12</text><text fill="rgb(68,68,68)" stroke="none" font-family="helvetica" font-size="13px" font-style="italic" font-weight="normal" text-decoration="normal" x="3.5" y="190" text-anchor="start" dominant-baseline="alphabetic" transform="matrix(6.123233995736766e-17, -1, 1, 6.123233995736766e-17, -174.5, 211.5)" fill-opacity="1">Loss</text><path fill="rgb(255,255,255)" stroke="rgb(229,229,229)" paint-order="fill" d="M 431.5 41.5 L 560.5 41.5 L 560.5 104.5 L 431.5 104.5 L 431.5 41.5" fill-opacity="0.9490196078431372" clip-path="url(#JaTiDqwqhmEX)" stroke-opacity="0.5019607843137255" stroke-linejoin="bevel" stroke-miterlimit="10" stroke-dasharray=""/><g clip-path="url(#JaTiDqwqhmEX)"><text fill="rgb(68,68,68)" stroke="none" font-family="helvetica" font-size="8pt" font-style="normal" font-weight="normal" text-decoration="normal" x="466" y="61" text-anchor="start" dominant-baseline="central" transform="matrix(1, 0, 0, 1, 0.5, 0.5)" fill-opacity="1">Training Loss</text></g><path fill="none" stroke="rgb(0,0,0)" paint-order="fill" d="M 441.5 61.5 L 461.5 61.5" stroke-opacity="1" stroke-linejoin="bevel" stroke-miterlimit="10" stroke-dasharray="2,4" clip-path="url(#JaTiDqwqhmEX)"/><g clip-path="url(#JaTiDqwqhmEX)"><text fill="rgb(68,68,68)" stroke="none" font-family="helvetica" font-size="8pt" font-style="normal" font-weight="normal" text-decoration="normal" x="466" y="84" text-anchor="start" dominant-baseline="central" transform="matrix(1, 0, 0, 1, 0.5, 0.5)" fill-opacity="1">Validation Loss</text></g><path fill="none" stroke="rgb(255,127,80)" paint-order="fill" d="M 441.5 84.5 L 461.5 84.5" stroke-opacity="1" stroke-linejoin="bevel" stroke-miterlimit="10" stroke-width="1.5" stroke-dasharray="" clip-path="url(#JaTiDqwqhmEX)"/><text fill="rgb(68,68,68)" stroke="none" font-family="helvetica" font-size="12pt" font-style="normal" font-weight="bold" text-decoration="normal" x="179.5" y="22" text-anchor="start" dominant-baseline="alphabetic" transform="matrix(1, 0, 0, 1, 0.5, 0.5)" fill-opacity="1">AutoEncoder: Loss per Epoch</text></svg>