<svg version="1.1" xmlns="http://www.w3.org/2000/svg" width="600" height="400"><defs><clipPath id="XzzRGkhewNdI"><path fill="none" stroke="none" d="M 65.5 31.5 L 570.5 31.5 L 570.5 355.5 L 65.5 355.5 L 65.5 31.5"/></clipPath><clipPath id="CUnIdwgXcZxU"><path fill="none" stroke="none" d="M 65.5 31.5 L 570.5 31.5 L 570.5 355.5 L 65.5 355.5 L 65.5 31.5"/></clipPath><clipPath id="eUvEEzFtqsUW"><path fill="none" stroke="none" d="M 65.5 31.5 L 570.5 31.5 L 570.5 355.5 L 65.5 355.5 L 65.5 31.5"/></clipPath><clipPath id="vETIHwfmrBJS"><path fill="none" stroke="none" d="M 65.5 31.5 L 570.5 31.5 L 570.5 355.5 L 65.5 355.5 L 65.5 31.5"/></clipPath><clipPath id="rGvoGQuUOITv"><path fill="none" stroke="none" d="M 65.5 31.5 L 570.5 31.5 L 570.5 355.5 L 65.5 355.5 L 65.5 31.5"/></clipPath><clipPath id="SwEkIrhDAxpX"><path fill="none" stroke="none" d="M 65.5 31.5 L 570.5 31.5 L 570.5 355.5 L 65.5 355.5 L 65.5 31.5"/></clipPath></defs><path fill="rgb(255,255,255)" stroke="none" paint-order="stroke" d="M 0.5 0.5 L 600.5 0.5 L 600.5 400.5 L 0.5 400.5 L 0.5 0.5" fill-opacity="1"/><rect fill="#FFFFFF" stroke="none" x="65" y="31" width="505" height="324" transform="matrix(1, 0, 0, 1, 0.5, 0.5)"/><path fill="rgb(255,255,255)" stroke="none" paint-order="stroke" d="M 65.5 31.5 L 570.5 31.5 L 570.5 355.5 L 65.5 355.5 L 65.5 31.5" fill-opacity="1"/><path fill="none" stroke="rgb(229,229,229)" paint-order="fill" d="M 65.5 31.5 L 570.5 31.5 L 570.5 355.5 L 65.5 355.5 L 65.5 31.5" stroke-opacity="1" stroke-linejoin="bevel" stroke-miterlimit="10" stroke-dasharray=""/><path fill="none" stroke="rgb(229,229,229)" paint-order="fill" d="M 83.5 355.5 L 83.5 31.5 M 156.5 355.5 L 156.5 31.5 M 229.5 355.5 L 229.5 31.5 M 302.5 355.5 L 302.5 31.5 M 375.5 355.5 L 375.5 31.5 M 448.5 355.5 L 448.5 31.5 M 521.5 355.5 L 521.5 31.5" stroke-opacity="1" stroke-linejoin="bevel" stroke-miterlimit="10" stroke-dasharray="" clip-path="url(#XzzRGkhewNdI)"/><path fill="none" stroke="rgb(229,229,229)" paint-order="fill" d="M 65.5 299.5 L 570.5 299.5 M 65.5 243.5 L 570.5 243.5 M 65.5 187.5 L 570.5 187.5 M 65.5 130.5 L 570.5 130.5 M 65.5 74.5 L 570.5 74.5" stroke-opacity="1" stroke-linejoin="bevel" stroke-miterlimit="10" stroke-dasharray="" clip-path="url(#CUnIdwgXcZxU)"/><path fill="rgb(220,20,60)" stroke="none" paint-order="stroke" d="M 88.45454406738281 276.9795837402344 L 98.52618408203125 276.9795837402344 L 98.52618408203125 355.5 L 88.45454406738281 355.5 L 88.45454406738281 276.9795837402344" fill-opacity="0.43137254901960786" clip-path="url(#eUvEEzFtqsUW)"/><path fill="rgb(220,20,60)" stroke="none" paint-order="stroke" d="M 98.52618408203125 100.65306091308594 L 108.59782409667969 100.65306091308594 L 108.59782409667969 355.5 L 98.52618408203125 355.5 L 98.52618408203125 100.65306091308594" fill-opacity="0.5882352941176471" clip-path="url(#eUvEEzFtqsUW)"/><path fill="rgb(220,20,60)" stroke="none" paint-order="stroke" d="M 108.59782409667969 46.92856979370117 L 118.66946411132812 46.92856979370117 L 118.66946411132812 355.5 L 108.59782409667969 355.5 L 108.59782409667969 46.92856979370117" fill-opacity="0.6392156862745098" clip-path="url(#eUvEEzFtqsUW)"/><path fill="rgb(220,20,60)" stroke="none" paint-order="stroke" d="M 118.66946411132812 136.46939086914062 L 128.74110412597656 136.46939086914062 L 128.74110412597656 355.5 L 118.66946411132812 355.5 L 118.66946411132812 136.46939086914062" fill-opacity="0.5568627450980392" clip-path="url(#eUvEEzFtqsUW)"/><path fill="rgb(220,20,60)" stroke="none" paint-order="stroke" d="M 128.74110412597656 235.65306091308594 L 138.812744140625 235.65306091308594 L 138.812744140625 355.5 L 128.74110412597656 355.5 L 128.74110412597656 235.65306091308594" fill-opacity="0.47058823529411764" clip-path="url(#eUvEEzFtqsUW)"/><path fill="rgb(220,20,60)" stroke="none" paint-order="stroke" d="M 138.812744140625 297.6428527832031 L 148.88438415527344 297.6428527832031 L 148.88438415527344 355.5 L 138.812744140625 355.5 L 138.812744140625 297.6428527832031" fill-opacity="0.41568627450980394" clip-path="url(#eUvEEzFtqsUW)"/><path fill="rgb(220,20,60)" stroke="none" paint-order="stroke" d="M 148.88438415527344 340.346923828125 L 158.95602416992188 340.346923828125 L 158.95602416992188 355.5 L 148.88438415527344 355.5 L 148.88438415527344 340.346923828125" fill-opacity="0.3764705882352941" clip-path="url(#eUvEEzFtqsUW)"/><path fill="rgb(220,20,60)" stroke="none" paint-order="stroke" d="M 158.95602416992188 344.4795837402344 L 169.0276641845703 344.4795837402344 L 169.0276641845703 355.5 L 158.95602416992188 355.5 L 158.95602416992188 344.4795837402344" fill-opacity="0.37254901960784315" clip-path="url(#eUvEEzFtqsUW)"/><path fill="rgb(220,20,60)" stroke="none" paint-order="stroke" d="M 169.0276641845703 338.9693908691406 L 179.09930419921875 338.9693908691406 L 179.09930419921875 355.5 L 169.0276641845703 355.5 L 169.0276641845703 338.9693908691406" fill-opacity="0.3764705882352941" clip-path="url(#eUvEEzFtqsUW)"/><path fill="rgb(220,20,60)" stroke="none" paint-order="stroke" d="M 179.09930419921875 341.7244873046875 L 189.1709442138672 341.7244873046875 L 189.1709442138672 355.5 L 179.09930419921875 355.5 L 179.09930419921875 341.7244873046875" fill-opacity="0.3764705882352941" clip-path="url(#eUvEEzFtqsUW)"/><path fill="rgb(220,20,60)" stroke="none" paint-order="stroke" d="M 189.1709442138672 349.98980712890625 L 199.24258422851562 349.98980712890625 L 199.24258422851562 355.5 L 189.1709442138672 355.5 L 189.1709442138672 349.98980712890625" fill-opacity="0.3686274509803922" clip-path="url(#eUvEEzFtqsUW)"/><path fill="rgb(220,20,60)" stroke="none" paint-order="stroke" d="M 199.24258422851562 352.7449035644531 L 209.31423950195312 352.7449035644531 L 209.31423950195312 355.5 L 199.24258422851562 355.5 L 199.24258422851562 352.7449035644531" fill-opacity="0.36470588235294116" clip-path="url(#eUvEEzFtqsUW)"/><path fill="rgb(220,20,60)" stroke="none" paint-order="stroke" d="M 209.31423950195312 351.3673400878906 L 219.38587951660156 351.3673400878906 L 219.38587951660156 355.5 L 209.31423950195312 355.5 L 209.31423950195312 351.3673400878906" fill-opacity="0.36470588235294116" clip-path="url(#eUvEEzFtqsUW)"/><path fill="rgb(220,20,60)" stroke="none" paint-order="stroke" d="M 219.38587951660156 349.98980712890625 L 229.45751953125 349.98980712890625 L 229.45751953125 355.5 L 219.38587951660156 355.5 L 219.38587951660156 349.98980712890625" fill-opacity="0.3686274509803922" clip-path="url(#eUvEEzFtqsUW)"/><path fill="rgb(220,20,60)" stroke="none" paint-order="stroke" d="M 229.45751953125 351.3673400878906 L 239.52915954589844 351.3673400878906 L 239.52915954589844 355.5 L 229.45751953125 355.5 L 229.45751953125 351.3673400878906" fill-opacity="0.36470588235294116" clip-path="url(#eUvEEzFtqsUW)"/><path fill="rgb(220,20,60)" stroke="none" paint-order="stroke" d="M 239.52915954589844 354.1224365234375 L 249.60079956054688 354.1224365234375 L 249.60079956054688 355.5 L 239.52915954589844 355.5 L 239.52915954589844 354.1224365234375" fill-opacity="0.36470588235294116" clip-path="url(#eUvEEzFtqsUW)"/><path fill="rgb(220,20,60)" stroke="none" paint-order="stroke" d="M 249.60079956054688 354.1224365234375 L 259.67242431640625 354.1224365234375 L 259.67242431640625 355.5 L 249.60079956054688 355.5 L 249.60079956054688 354.1224365234375" fill-opacity="0.36470588235294116" clip-path="url(#eUvEEzFtqsUW)"/><path fill="rgb(220,20,60)" stroke="none" paint-order="stroke" d="M 259.67242431640625 354.1224365234375 L 269.74407958984375 354.1224365234375 L 269.74407958984375 355.5 L 259.67242431640625 355.5 L 259.67242431640625 354.1224365234375" fill-opacity="0.36470588235294116" clip-path="url(#eUvEEzFtqsUW)"/><path fill="rgb(220,20,60)" stroke="none" paint-order="stroke" d="M 269.74407958984375 355.5 L 279.8157043457031 355.5 L 279.8157043457031 355.5 L 269.74407958984375 355.5 L 269.74407958984375 355.5" fill-opacity="0.3607843137254902" clip-path="url(#eUvEEzFtqsUW)"/><path fill="rgb(220,20,60)" stroke="none" paint-order="stroke" d="M 279.8157043457031 354.1224365234375 L 289.8873596191406 354.1224365234375 L 289.8873596191406 355.5 L 279.8157043457031 355.5 L 279.8157043457031 354.1224365234375" fill-opacity="0.36470588235294116" clip-path="url(#eUvEEzFtqsUW)"/><path fill="rgb(75,0,130)" stroke="none" paint-order="stroke" d="M 112.59587097167969 302.2191162109375 L 127.09419250488281 302.2191162109375 L 127.09419250488281 355.5 L 112.59587097167969 355.5 L 112.59587097167969 302.2191162109375" fill-opacity="0.47058823529411764" clip-path="url(#vETIHwfmrBJS)"/><path fill="rgb(75,0,130)" stroke="none" paint-order="stroke" d="M 127.09419250488281 248.17710876464844 L 141.59251403808594 248.17710876464844 L 141.59251403808594 355.5 L 127.09419250488281 355.5 L 127.09419250488281 248.17710876464844" fill-opacity="0.5176470588235295" clip-path="url(#vETIHwfmrBJS)"/><path fill="rgb(75,0,130)" stroke="none" paint-order="stroke" d="M 141.59251403808594 178.91197204589844 L 156.09083557128906 178.91197204589844 L 156.09083557128906 355.5 L 141.59251403808594 355.5 L 141.59251403808594 178.91197204589844" fill-opacity="0.5803921568627451" clip-path="url(#vETIHwfmrBJS)"/><path fill="rgb(75,0,130)" stroke="none" paint-order="stroke" d="M 156.09083557128906 216.2085723876953 L 170.58914184570312 216.2085723876953 L 170.58914184570312 355.5 L 156.09083557128906 355.5 L 156.09083557128906 216.2085723876953" fill-opacity="0.5450980392156862" clip-path="url(#vETIHwfmrBJS)"/><path fill="rgb(75,0,130)" stroke="none" paint-order="stroke" d="M 170.58914184570312 257.31097412109375 L 185.08746337890625 257.31097412109375 L 185.08746337890625 355.5 L 170.58914184570312 355.5 L 170.58914184570312 257.31097412109375" fill-opacity="0.5098039215686274" clip-path="url(#vETIHwfmrBJS)"/><path fill="rgb(75,0,130)" stroke="none" paint-order="stroke" d="M 185.08746337890625 286.99603271484375 L 199.58578491210938 286.99603271484375 L 199.58578491210938 355.5 L 185.08746337890625 355.5 L 185.08746337890625 286.99603271484375" fill-opacity="0.4823529411764706" clip-path="url(#vETIHwfmrBJS)"/><path fill="rgb(75,0,130)" stroke="none" paint-order="stroke" d="M 199.58578491210938 304.5025939941406 L 214.0841064453125 304.5025939941406 L 214.0841064453125 355.5 L 199.58578491210938 355.5 L 199.58578491210938 304.5025939941406" fill-opacity="0.4666666666666667" clip-path="url(#vETIHwfmrBJS)"/><path fill="rgb(75,0,130)" stroke="none" paint-order="stroke" d="M 214.0841064453125 297.6521911621094 L 228.58242797851562 297.6521911621094 L 228.58242797851562 355.5 L 214.0841064453125 355.5 L 214.0841064453125 297.6521911621094" fill-opacity="0.4745098039215686" clip-path="url(#vETIHwfmrBJS)"/><path fill="rgb(75,0,130)" stroke="none" paint-order="stroke" d="M 228.58242797851562 288.5183410644531 L 243.08074951171875 288.5183410644531 L 243.08074951171875 355.5 L 228.58242797851562 355.5 L 228.58242797851562 288.5183410644531" fill-opacity="0.4823529411764706" clip-path="url(#vETIHwfmrBJS)"/><path fill="rgb(75,0,130)" stroke="none" paint-order="stroke" d="M 243.08074951171875 312.1141357421875 L 257.5790710449219 312.1141357421875 L 257.5790710449219 355.5 L 243.08074951171875 355.5 L 243.08074951171875 312.1141357421875" fill-opacity="0.4588235294117647" clip-path="url(#vETIHwfmrBJS)"/><path fill="rgb(75,0,130)" stroke="none" paint-order="stroke" d="M 257.5790710449219 320.4868469238281 L 272.077392578125 320.4868469238281 L 272.077392578125 355.5 L 257.5790710449219 355.5 L 257.5790710449219 320.4868469238281" fill-opacity="0.45098039215686275" clip-path="url(#vETIHwfmrBJS)"/><path fill="rgb(75,0,130)" stroke="none" paint-order="stroke" d="M 272.077392578125 315.1587829589844 L 286.5757141113281 315.1587829589844 L 286.5757141113281 355.5 L 272.077392578125 355.5 L 272.077392578125 315.1587829589844" fill-opacity="0.4588235294117647" clip-path="url(#vETIHwfmrBJS)"/><path fill="rgb(75,0,130)" stroke="none" paint-order="stroke" d="M 286.5757141113281 322.77032470703125 L 301.07403564453125 322.77032470703125 L 301.07403564453125 355.5 L 286.5757141113281 355.5 L 286.5757141113281 322.77032470703125" fill-opacity="0.45098039215686275" clip-path="url(#vETIHwfmrBJS)"/><path fill="rgb(75,0,130)" stroke="none" paint-order="stroke" d="M 301.07403564453125 328.85955810546875 L 315.5723571777344 328.85955810546875 L 315.5723571777344 355.5 L 301.07403564453125 355.5 L 301.07403564453125 328.85955810546875" fill-opacity="0.44313725490196076" clip-path="url(#vETIHwfmrBJS)"/><path fill="rgb(75,0,130)" stroke="none" paint-order="stroke" d="M 315.5723571777344 326.57611083984375 L 330.0706481933594 326.57611083984375 L 330.0706481933594 355.5 L 315.5723571777344 355.5 L 315.5723571777344 326.57611083984375" fill-opacity="0.4470588235294118" clip-path="url(#vETIHwfmrBJS)"/><path fill="rgb(75,0,130)" stroke="none" paint-order="stroke" d="M 330.0706481933594 333.4264831542969 L 344.5689697265625 333.4264831542969 L 344.5689697265625 355.5 L 330.0706481933594 355.5 L 330.0706481933594 333.4264831542969" fill-opacity="0.4392156862745098" clip-path="url(#vETIHwfmrBJS)"/><path fill="rgb(75,0,130)" stroke="none" paint-order="stroke" d="M 344.5689697265625 333.4264831542969 L 359.0672912597656 333.4264831542969 L 359.0672912597656 355.5 L 344.5689697265625 355.5 L 344.5689697265625 333.4264831542969" fill-opacity="0.4392156862745098" clip-path="url(#vETIHwfmrBJS)"/><path fill="rgb(75,0,130)" stroke="none" paint-order="stroke" d="M 359.0672912597656 341.0380554199219 L 373.56561279296875 341.0380554199219 L 373.56561279296875 355.5 L 359.0672912597656 355.5 L 359.0672912597656 341.0380554199219" fill-opacity="0.43529411764705883" clip-path="url(#vETIHwfmrBJS)"/><path fill="rgb(75,0,130)" stroke="none" paint-order="stroke" d="M 373.56561279296875 343.3215026855469 L 388.0639343261719 343.3215026855469 L 388.0639343261719 355.5 L 373.56561279296875 355.5 L 373.56561279296875 343.3215026855469" fill-opacity="0.43137254901960786" clip-path="url(#vETIHwfmrBJS)"/><path fill="rgb(75,0,130)" stroke="none" paint-order="stroke" d="M 388.0639343261719 348.64959716796875 L 402.562255859375 348.64959716796875 L 402.562255859375 355.5 L 388.0639343261719 355.5 L 388.0639343261719 348.64959716796875" fill-opacity="0.42745098039215684" clip-path="url(#vETIHwfmrBJS)"/><path fill="rgb(75,0,130)" stroke="none" paint-order="stroke" d="M 402.562255859375 347.8884582519531 L 417.0605773925781 347.8884582519531 L 417.0605773925781 355.5 L 402.562255859375 355.5 L 402.562255859375 347.8884582519531" fill-opacity="0.42745098039215684" clip-path="url(#vETIHwfmrBJS)"/><path fill="rgb(75,0,130)" stroke="none" paint-order="stroke" d="M 417.0605773925781 351.6942138671875 L 431.55889892578125 351.6942138671875 L 431.55889892578125 355.5 L 417.0605773925781 355.5 L 417.0605773925781 351.6942138671875" fill-opacity="0.4235294117647059" clip-path="url(#vETIHwfmrBJS)"/><path fill="rgb(75,0,130)" stroke="none" paint-order="stroke" d="M 431.55889892578125 352.45538330078125 L 446.0572204589844 352.45538330078125 L 446.0572204589844 355.5 L 431.55889892578125 355.5 L 431.55889892578125 352.45538330078125" fill-opacity="0.4235294117647059" clip-path="url(#vETIHwfmrBJS)"/><path fill="rgb(75,0,130)" stroke="none" paint-order="stroke" d="M 446.0572204589844 353.2165222167969 L 460.5555419921875 353.2165222167969 L 460.5555419921875 355.5 L 446.0572204589844 355.5 L 446.0572204589844 353.2165222167969" fill-opacity="0.4235294117647059" clip-path="url(#vETIHwfmrBJS)"/><path fill="rgb(75,0,130)" stroke="none" paint-order="stroke" d="M 460.5555419921875 355.5 L 475.0538635253906 355.5 L 475.0538635253906 355.5 L 460.5555419921875 355.5 L 460.5555419921875 355.5" fill-opacity="0.4196078431372549" clip-path="url(#vETIHwfmrBJS)"/><path fill="rgb(75,0,130)" stroke="none" paint-order="stroke" d="M 475.0538635253906 354.73883056640625 L 489.55218505859375 354.73883056640625 L 489.55218505859375 355.5 L 475.0538635253906 355.5 L 475.0538635253906 354.73883056640625" fill-opacity="0.4235294117647059" clip-path="url(#vETIHwfmrBJS)"/><path fill="rgb(75,0,130)" stroke="none" paint-order="stroke" d="M 489.55218505859375 354.73883056640625 L 504.0505065917969 354.73883056640625 L 504.0505065917969 355.5 L 489.55218505859375 355.5 L 489.55218505859375 354.73883056640625" fill-opacity="0.4235294117647059" clip-path="url(#vETIHwfmrBJS)"/><path fill="rgb(75,0,130)" stroke="none" paint-order="stroke" d="M 504.0505065917969 355.5 L 518.548828125 355.5 L 518.548828125 355.5 L 504.0505065917969 355.5 L 504.0505065917969 355.5" fill-opacity="0.4196078431372549" clip-path="url(#vETIHwfmrBJS)"/><path fill="rgb(75,0,130)" stroke="none" paint-order="stroke" d="M 518.548828125 355.5 L 533.047119140625 355.5 L 533.047119140625 355.5 L 518.548828125 355.5 L 518.548828125 355.5" fill-opacity="0.4196078431372549" clip-path="url(#vETIHwfmrBJS)"/><path fill="rgb(75,0,130)" stroke="none" paint-order="stroke" d="M 533.047119140625 354.73883056640625 L 547.5454711914062 354.73883056640625 L 547.5454711914062 355.5 L 533.047119140625 355.5 L 533.047119140625 354.73883056640625" fill-opacity="0.4235294117647059" clip-path="url(#vETIHwfmrBJS)"/><path fill="none" stroke="rgb(0,0,0)" paint-order="fill" d="M 65.5 355.5 L 570.5 355.5" stroke-opacity="1" stroke-linejoin="bevel" stroke-miterlimit="10" stroke-dasharray=""/><path fill="none" stroke="rgb(0,0,0)" paint-order="fill" d="M 83.5 361.5 L 83.5 353.5 M 156.5 361.5 L 156.5 353.5 M 229.5 361.5 L 229.5 353.5 M 302.5 361.5 L 302.5 353.5 M 375.5 361.5 L 375.5 353.5 M 448.5 361.5 L 448.5 353.5 M 521.5 361.5 L 521.5 353.5" stroke-opacity="1" stroke-linejoin="bevel" stroke-miterlimit="10" stroke-dasharray=""/><path fill="none" stroke="rgb(0,0,0)" paint-order="fill" d="M 68.5 359.5 L 68.5 355.5 M 83.5 359.5 L 83.5 355.5 M 98.5 359.5 L 98.5 355.5 M 112.5 359.5 L 112.5 355.5 M 127.5 359.5 L 127.5 355.5 M 141.5 359.5 L 141.5 355.5 M 156.5 359.5 L 156.5 355.5 M 171.5 359.5 L 171.5 355.5 M 185.5 359.5 L 185.5 355.5 M 200.5 359.5 L 200.5 355.5 M 214.5 359.5 L 214.5 355.5 M 229.5 359.5 L 229.5 355.5 M 244.5 359.5 L 244.5 355.5 M 258.5 359.5 L 258.5 355.5 M 273.5 359.5 L 273.5 355.5 M 287.5 359.5 L 287.5 355.5 M 302.5 359.5 L 302.5 355.5 M 317.5 359.5 L 317.5 355.5 M 331.5 359.5 L 331.5 355.5 M 346.5 359.5 L 346.5 355.5 M 360.5 359.5 L 360.5 355.5 M 375.5 359.5 L 375.5 355.5 M 390.5 359.5 L 390.5 355.5 M 404.5 359.5 L 404.5 355.5 M 419.5 359.5 L 419.5 355.5 M 433.5 359.5 L 433.5 355.5 M 448.5 359.5 L 448.5 355.5 M 462.5 359.5 L 462.5 355.5 M 477.5 359.5 L 477.5 355.5 M 492.5 359.5 L 492.5 355.5 M 506.5 359.5 L 506.5 355.5 M 521.5 359.5 L 521.5 355.5 M 535.5 359.5 L 535.5 355.5 M 550.5 359.5 L 550.5 355.5 M 565.5 359.5 L 565.5 355.5" stroke-opacity="1" stroke-linejoin="bevel" stroke-miterlimit="10" stroke-dasharray=""/><text fill="rgb(68,68,68)" stroke="none" font-family="helvetica" font-size="11px" font-style="normal" font-weight="normal" text-decoration="normal" x="79.44231414794922" y="374" text-anchor="start" dominant-baseline="alphabetic" transform="matrix(1, 0, 0, 1, 0.5, 0.5)" fill-opacity="1">2</text><text fill="rgb(68,68,68)" stroke="none" font-family="helvetica" font-size="11px" font-style="normal" font-weight="normal" text-decoration="normal" x="152.43365478515625" y="374" text-anchor="start" dominant-baseline="alphabetic" transform="matrix(1, 0, 0, 1, 0.5, 0.5)" fill-opacity="1">4</text><text fill="rgb(68,68,68)" stroke="none" font-family="helvetica" font-size="11px" font-style="normal" font-weight="normal" text-decoration="normal" x="225.42498779296875" y="374" text-anchor="start" dominant-baseline="alphabetic" transform="matrix(1, 0, 0, 1, 0.5, 0.5)" fill-opacity="1">6</text><text fill="rgb(68,68,68)" stroke="none" font-family="helvetica" font-size="11px" font-style="normal" font-weight="normal" text-decoration="normal" x="298.41632080078125" y="374" text-anchor="start" dominant-baseline="alphabetic" transform="matrix(1, 0, 0, 1, 0.5, 0.5)" fill-opacity="1">8</text><text fill="rgb(68,68,68)" stroke="none" font-family="helvetica" font-size="11px" font-style="normal" font-weight="normal" text-decoration="normal" x="367.90765380859375" y="374" text-anchor="start" dominant-baseline="alphabetic" transform="matrix(1, 0, 0, 1, 0.5, 0.5)" fill-opacity="1">10</text><text fill="rgb(68,68,68)" stroke="none" font-family="helvetica" font-size="11px" font-style="normal" font-weight="normal" text-decoration="normal" x="440.89898681640625" y="374" text-anchor="start" dominant-baseline="alphabetic" transform="matrix(1, 0, 0, 1, 0.5, 0.5)" fill-opacity="1">12</text><text fill="rgb(68,68,68)" stroke="none" font-family="helvetica" font-size="11px" font-style="normal" font-weight="normal" text-decoration="normal" x="513.8903198242188" y="374" text-anchor="start" dominant-baseline="alphabetic" transform="matrix(1, 0, 0, 1, 0.5, 0.5)" fill-opacity="1">14</text><text fill="rgb(68,68,68)" stroke="none" font-family="helvetica" font-size="13px" font-style="italic" font-weight="normal" text-decoration="normal" x="265" y="394" text-anchor="start" dominant-baseline="alphabetic" transform="matrix(1, 0, 0, 1, 0.5, 0.5)" fill-opacity="1">Prediction Score</text><path fill="none" stroke="rgb(0,0,0)" paint-order="fill" d="M 65.5 355.5 L 65.5 31.5" stroke-opacity="1" stroke-linejoin="bevel" stroke-miterlimit="10" stroke-dasharray=""/><path fill="none" stroke="rgb(0,0,0)" paint-order="fill" d="M 59.5 355.5 L 67.5 355.5 M 59.5 299.5 L 67.5 299.5 M 59.5 243.5 L 67.5 243.5 M 59.5 187.5 L 67.5 187.5 M 59.5 130.5 L 67.5 130.5 M 59.5 74.5 L 67.5 74.5" stroke-opacity="1" stroke-linejoin="bevel" stroke-miterlimit="10" stroke-dasharray=""/><path fill="none" stroke="rgb(0,0,0)" paint-order="fill" d="M 61.5 355.5 L 65.5 355.5 M 61.5 344.5 L 65.5 344.5 M 61.5 333.5 L 65.5 333.5 M 61.5 321.5 L 65.5 321.5 M 61.5 310.5 L 65.5 310.5 M 61.5 299.5 L 65.5 299.5 M 61.5 288.5 L 65.5 288.5 M 61.5 276.5 L 65.5 276.5 M 61.5 265.5 L 65.5 265.5 M 61.5 254.5 L 65.5 254.5 M 61.5 243.5 L 65.5 243.5 M 61.5 232.5 L 65.5 232.5 M 61.5 220.5 L 65.5 220.5 M 61.5 209.5 L 65.5 209.5 M 61.5 198.5 L 65.5 198.5 M 61.5 187.5 L 65.5 187.5 M 61.5 175.5 L 65.5 175.5 M 61.5 164.5 L 65.5 164.5 M 61.5 153.5 L 65.5 153.5 M 61.5 142.5 L 65.5 142.5 M 61.5 130.5 L 65.5 130.5 M 61.5 119.5 L 65.5 119.5 M 61.5 108.5 L 65.5 108.5 M 61.5 97.5 L 65.5 97.5 M 61.5 86.5 L 65.5 86.5 M 61.5 74.5 L 65.5 74.5 M 61.5 63.5 L 65.5 63.5 M 61.5 52.5 L 65.5 52.5 M 61.5 41.5 L 65.5 41.5" stroke-opacity="1" stroke-linejoin="bevel" stroke-miterlimit="10" stroke-dasharray=""/><text fill="rgb(68,68,68)" stroke="none" font-family="helvetica" font-size="11px" font-style="normal" font-weight="normal" text-decoration="normal" x="33" y="358.5" text-anchor="start" dominant-baseline="alphabetic" transform="matrix(1, 0, 0, 1, 0.5, 0.5)" fill-opacity="1">0 %</text><text fill="rgb(68,68,68)" stroke="none" font-family="helvetica" font-size="11px" font-style="normal" font-weight="normal" text-decoration="normal" x="33" y="302.36480712890625" text-anchor="start" dominant-baseline="alphabetic" transform="matrix(1, 0, 0, 1, 0.5, 0.5)" fill-opacity="1">5 %</text><text fill="rgb(68,68,68)" stroke="none" font-family="helvetica" font-size="11px" font-style="normal" font-weight="normal" text-decoration="normal" x="26" y="246.22959899902344" text-anchor="start" dominant-baseline="alphabetic" transform="matrix(1, 0, 0, 1, 0.5, 0.5)" fill-opacity="1">10 %</text><text fill="rgb(68,68,68)" stroke="none" font-family="helvetica" font-size="11px" font-style="normal" font-weight="normal" text-decoration="normal" x="26" y="190.09439086914062" text-anchor="start" dominant-baseline="alphabetic" transform="matrix(1, 0, 0, 1, 0.5, 0.5)" fill-opacity="1">15 %</text><text fill="rgb(68,68,68)" stroke="none" font-family="helvetica" font-size="11px" font-style="normal" font-weight="normal" text-decoration="normal" x="26" y="133.9591827392578" text-anchor="start" dominant-baseline="alphabetic" transform="matrix(1, 0, 0, 1, 0.5, 0.5)" fill-opacity="1">20 %</text><text fill="rgb(68,68,68)" stroke="none" font-family="helvetica" font-size="11px" font-style="normal" font-weight="normal" text-decoration="normal" x="26" y="77.82398223876953" text-anchor="start" dominant-baseline="alphabetic" transform="matrix(1, 0, 0, 1, 0.5, 0.5)" fill-opacity="1">25 %</text><text fill="rgb(68,68,68)" stroke="none" font-family="helvetica" font-size="13px" font-style="italic" font-weight="normal" text-decoration="normal" x="-17.5" y="190" text-anchor="start" dominant-baseline="alphabetic" transform="matrix(6.123233995736766e-17, -1, 1, 6.123233995736766e-17, -174.5, 211.5)" fill-opacity="1"># Samples</text><path fill="rgb(255,255,255)" stroke="rgb(229,229,229)" paint-order="fill" d="M 487.5 41.5 L 560.5 41.5 L 560.5 104.5 L 487.5 104.5 L 487.5 41.5" fill-opacity="0.9490196078431372" clip-path="url(#rGvoGQuUOITv)" stroke-opacity="0.5019607843137255" stroke-linejoin="bevel" stroke-miterlimit="10" stroke-dasharray=""/><g clip-path="url(#rGvoGQuUOITv)"><text fill="rgb(68,68,68)" stroke="none" font-family="helvetica" font-size="8pt" font-style="normal" font-weight="normal" text-decoration="normal" x="522" y="61" text-anchor="start" dominant-baseline="central" transform="matrix(1, 0, 0, 1, 0.5, 0.5)" fill-opacity="1">False</text></g><path fill="rgb(220,20,60)" stroke="none" paint-order="stroke" d="M 499.5 53.5 L 515.5 53.5 L 515.5 69.5 L 499.5 69.5 L 499.5 53.5" fill-opacity="0.43137254901960786" clip-path="url(#rGvoGQuUOITv)"/><g clip-path="url(#rGvoGQuUOITv)"><text fill="rgb(68,68,68)" stroke="none" font-family="helvetica" font-size="8pt" font-style="normal" font-weight="normal" text-decoration="normal" x="522" y="84" text-anchor="start" dominant-baseline="central" transform="matrix(1, 0, 0, 1, 0.5, 0.5)" fill-opacity="1">True</text></g><path fill="rgb(75,0,130)" stroke="none" paint-order="stroke" d="M 499.5 76.5 L 515.5 76.5 L 515.5 92.5 L 499.5 92.5 L 499.5 76.5" fill-opacity="0.47058823529411764" clip-path="url(#rGvoGQuUOITv)"/><text fill="rgb(68,68,68)" stroke="none" font-family="helvetica" font-size="12pt" font-style="normal" font-weight="bold" text-decoration="normal" x="90" y="22" text-anchor="start" dominant-baseline="alphabetic" transform="matrix(1, 0, 0, 1, 0.5, 0.5)" fill-opacity="1">AutoEncoder: Prediction Score Histogram by Class</text></svg>