<svg version="1.1" xmlns="http://www.w3.org/2000/svg" width="600" height="400"><defs><clipPath id="EixikxwIZIhC"><path fill="none" stroke="none" d="M 65.5 31.5 L 570.5 31.5 L 570.5 355.5 L 65.5 355.5 L 65.5 31.5"/></clipPath><clipPath id="tWVqmGXNeqVD"><path fill="none" stroke="none" d="M 65.5 31.5 L 570.5 31.5 L 570.5 355.5 L 65.5 355.5 L 65.5 31.5"/></clipPath><clipPath id="cbUpuXcEWCye"><path fill="none" stroke="none" d="M 65.5 31.5 L 570.5 31.5 L 570.5 355.5 L 65.5 355.5 L 65.5 31.5"/></clipPath><clipPath id="FPEalKzkPQEZ"><path fill="none" stroke="none" d="M 65.5 31.5 L 570.5 31.5 L 570.5 355.5 L 65.5 355.5 L 65.5 31.5"/></clipPath><clipPath id="QuacDEGAsiQT"><path fill="none" stroke="none" d="M 65.5 31.5 L 570.5 31.5 L 570.5 355.5 L 65.5 355.5 L 65.5 31.5"/></clipPath><clipPath id="ztTcwkrhnRql"><path fill="none" stroke="none" d="M 65.5 31.5 L 570.5 31.5 L 570.5 355.5 L 65.5 355.5 L 65.5 31.5"/></clipPath></defs><path fill="rgb(255,255,255)" stroke="none" paint-order="stroke" d="M 0.5 0.5 L 600.5 0.5 L 600.5 400.5 L 0.5 400.5 L 0.5 0.5" fill-opacity="1"/><rect fill="#FFFFFF" stroke="none" x="65" y="31" width="505" height="324" transform="matrix(1, 0, 0, 1, 0.5, 0.5)"/><path fill="rgb(255,255,255)" stroke="none" paint-order="stroke" d="M 65.5 31.5 L 570.5 31.5 L 570.5 355.5 L 65.5 355.5 L 65.5 31.5" fill-opacity="1"/><path fill="none" stroke="rgb(229,229,229)" paint-order="fill" d="M 65.5 31.5 L 570.5 31.5 L 570.5 355.5 L 65.5 355.5 L 65.5 31.5" stroke-opacity="1" stroke-linejoin="bevel" stroke-miterlimit="10" stroke-dasharray=""/><path fill="none" stroke="rgb(229,229,229)" paint-order="fill" d="M 149.5 355.5 L 149.5 31.5 M 259.5 355.5 L 259.5 31.5 M 369.5 355.5 L 369.5 31.5 M 478.5 355.5 L 478.5 31.5" stroke-opacity="1" stroke-linejoin="bevel" stroke-miterlimit="10" stroke-dasharray="" clip-path="url(#EixikxwIZIhC)"/><path fill="none" stroke="rgb(229,229,229)" paint-order="fill" d="M 65.5 292.5 L 570.5 292.5 M 65.5 230.5 L 570.5 230.5 M 65.5 167.5 L 570.5 167.5 M 65.5 105.5 L 570.5 105.5 M 65.5 42.5 L 570.5 42.5" stroke-opacity="1" stroke-linejoin="bevel" stroke-miterlimit="10" stroke-dasharray="" clip-path="url(#tWVqmGXNeqVD)"/><path fill="rgb(220,20,60)" stroke="none" paint-order="stroke" d="M 88.45454406738281 272.65191650390625 L 94.70357513427734 272.65191650390625 L 94.70357513427734 355.5 L 88.45454406738281 355.5 L 88.45454406738281 272.65191650390625" fill-opacity="0.45098039215686275" clip-path="url(#cbUpuXcEWCye)"/><path fill="rgb(220,20,60)" stroke="none" paint-order="stroke" d="M 94.70357513427734 68.60013580322266 L 100.95260620117188 68.60013580322266 L 100.95260620117188 355.5 L 94.70357513427734 355.5 L 94.70357513427734 68.60013580322266" fill-opacity="0.615686274509804" clip-path="url(#cbUpuXcEWCye)"/><path fill="rgb(220,20,60)" stroke="none" paint-order="stroke" d="M 100.95260620117188 73.20280456542969 L 107.2016372680664 73.20280456542969 L 107.2016372680664 355.5 L 100.95260620117188 355.5 L 100.95260620117188 73.20280456542969" fill-opacity="0.611764705882353" clip-path="url(#cbUpuXcEWCye)"/><path fill="rgb(220,20,60)" stroke="none" paint-order="stroke" d="M 107.2016372680664 108.48995208740234 L 113.45066833496094 108.48995208740234 L 113.45066833496094 355.5 L 107.2016372680664 355.5 L 107.2016372680664 108.48995208740234" fill-opacity="0.5843137254901961" clip-path="url(#cbUpuXcEWCye)"/><path fill="rgb(220,20,60)" stroke="none" paint-order="stroke" d="M 113.45066833496094 188.26959228515625 L 119.69969940185547 188.26959228515625 L 119.69969940185547 355.5 L 113.45066833496094 355.5 L 113.45066833496094 188.26959228515625" fill-opacity="0.5176470588235295" clip-path="url(#cbUpuXcEWCye)"/><path fill="rgb(220,20,60)" stroke="none" paint-order="stroke" d="M 119.69969940185547 300.2679443359375 L 125.94873046875 300.2679443359375 L 125.94873046875 355.5 L 119.69969940185547 355.5 L 119.69969940185547 300.2679443359375" fill-opacity="0.43137254901960786" clip-path="url(#cbUpuXcEWCye)"/><path fill="rgb(220,20,60)" stroke="none" paint-order="stroke" d="M 125.94873046875 323.28131103515625 L 132.19776916503906 323.28131103515625 L 132.19776916503906 355.5 L 125.94873046875 355.5 L 125.94873046875 323.28131103515625" fill-opacity="0.4117647058823529" clip-path="url(#cbUpuXcEWCye)"/><path fill="rgb(220,20,60)" stroke="none" paint-order="stroke" d="M 132.19776916503906 341.6919860839844 L 138.44679260253906 341.6919860839844 L 138.44679260253906 355.5 L 132.19776916503906 355.5 L 132.19776916503906 341.6919860839844" fill-opacity="0.396078431372549" clip-path="url(#cbUpuXcEWCye)"/><path fill="rgb(220,20,60)" stroke="none" paint-order="stroke" d="M 138.44679260253906 330.9524230957031 L 144.69583129882812 330.9524230957031 L 144.69583129882812 355.5 L 138.44679260253906 355.5 L 138.44679260253906 330.9524230957031" fill-opacity="0.403921568627451" clip-path="url(#cbUpuXcEWCye)"/><path fill="rgb(220,20,60)" stroke="none" paint-order="stroke" d="M 144.69583129882812 338.62353515625 L 150.94485473632812 338.62353515625 L 150.94485473632812 355.5 L 144.69583129882812 355.5 L 144.69583129882812 338.62353515625" fill-opacity="0.4" clip-path="url(#cbUpuXcEWCye)"/><path fill="rgb(220,20,60)" stroke="none" paint-order="stroke" d="M 150.94485473632812 347.8288879394531 L 157.1938934326172 347.8288879394531 L 157.1938934326172 355.5 L 150.94485473632812 355.5 L 150.94485473632812 347.8288879394531" fill-opacity="0.39215686274509803" clip-path="url(#cbUpuXcEWCye)"/><path fill="rgb(220,20,60)" stroke="none" paint-order="stroke" d="M 157.1938934326172 344.76043701171875 L 163.4429168701172 344.76043701171875 L 163.4429168701172 355.5 L 157.1938934326172 355.5 L 157.1938934326172 344.76043701171875" fill-opacity="0.39215686274509803" clip-path="url(#cbUpuXcEWCye)"/><path fill="rgb(220,20,60)" stroke="none" paint-order="stroke" d="M 163.4429168701172 352.4315490722656 L 169.69195556640625 352.4315490722656 L 169.69195556640625 355.5 L 163.4429168701172 355.5 L 163.4429168701172 352.4315490722656" fill-opacity="0.38823529411764707" clip-path="url(#cbUpuXcEWCye)"/><path fill="rgb(220,20,60)" stroke="none" paint-order="stroke" d="M 169.69195556640625 349.36309814453125 L 175.94097900390625 349.36309814453125 L 175.94097900390625 355.5 L 169.69195556640625 355.5 L 169.69195556640625 349.36309814453125" fill-opacity="0.38823529411764707" clip-path="url(#cbUpuXcEWCye)"/><path fill="rgb(220,20,60)" stroke="none" paint-order="stroke" d="M 175.94097900390625 344.76043701171875 L 182.1900177001953 344.76043701171875 L 182.1900177001953 355.5 L 175.94097900390625 355.5 L 175.94097900390625 344.76043701171875" fill-opacity="0.39215686274509803" clip-path="url(#cbUpuXcEWCye)"/><path fill="rgb(220,20,60)" stroke="none" paint-order="stroke" d="M 182.1900177001953 355.5 L 188.4390411376953 355.5 L 188.4390411376953 355.5 L 182.1900177001953 355.5 L 182.1900177001953 355.5" fill-opacity="0.3843137254901961" clip-path="url(#cbUpuXcEWCye)"/><path fill="rgb(220,20,60)" stroke="none" paint-order="stroke" d="M 188.4390411376953 355.5 L 194.68807983398438 355.5 L 194.68807983398438 355.5 L 188.4390411376953 355.5 L 188.4390411376953 355.5" fill-opacity="0.3843137254901961" clip-path="url(#cbUpuXcEWCye)"/><path fill="rgb(220,20,60)" stroke="none" paint-order="stroke" d="M 194.68807983398438 355.5 L 200.93710327148438 355.5 L 200.93710327148438 355.5 L 194.68807983398438 355.5 L 194.68807983398438 355.5" fill-opacity="0.3843137254901961" clip-path="url(#cbUpuXcEWCye)"/><path fill="rgb(220,20,60)" stroke="none" paint-order="stroke" d="M 200.93710327148438 353.9657897949219 L 207.18614196777344 353.9657897949219 L 207.18614196777344 355.5 L 200.93710327148438 355.5 L 200.93710327148438 353.9657897949219" fill-opacity="0.38823529411764707" clip-path="url(#cbUpuXcEWCye)"/><path fill="rgb(220,20,60)" stroke="none" paint-order="stroke" d="M 207.18614196777344 353.9657897949219 L 213.43516540527344 353.9657897949219 L 213.43516540527344 355.5 L 207.18614196777344 355.5 L 207.18614196777344 353.9657897949219" fill-opacity="0.38823529411764707" clip-path="url(#cbUpuXcEWCye)"/><path fill="rgb(75,0,130)" stroke="none" paint-order="stroke" d="M 104.36265563964844 213.93014526367188 L 119.13541412353516 213.93014526367188 L 119.13541412353516 355.5 L 104.36265563964844 355.5 L 104.36265563964844 213.93014526367188" fill-opacity="0.49019607843137253" clip-path="url(#FPEalKzkPQEZ)"/><path fill="rgb(75,0,130)" stroke="none" paint-order="stroke" d="M 119.13541412353516 46.92856979370117 L 133.90817260742188 46.92856979370117 L 133.90817260742188 355.5 L 119.13541412353516 355.5 L 119.13541412353516 46.92856979370117" fill-opacity="0.6235294117647059" clip-path="url(#FPEalKzkPQEZ)"/><path fill="rgb(75,0,130)" stroke="none" paint-order="stroke" d="M 133.90817260742188 144.4167938232422 L 148.68093872070312 144.4167938232422 L 148.68093872070312 355.5 L 133.90817260742188 355.5 L 133.90817260742188 144.4167938232422" fill-opacity="0.5450980392156862" clip-path="url(#FPEalKzkPQEZ)"/><path fill="rgb(75,0,130)" stroke="none" paint-order="stroke" d="M 148.68093872070312 227.49371337890625 L 163.45370483398438 227.49371337890625 L 163.45370483398438 355.5 L 148.68093872070312 355.5 L 148.68093872070312 227.49371337890625" fill-opacity="0.47843137254901963" clip-path="url(#FPEalKzkPQEZ)"/><path fill="rgb(75,0,130)" stroke="none" paint-order="stroke" d="M 163.45370483398438 245.29591369628906 L 178.22645568847656 245.29591369628906 L 178.22645568847656 355.5 L 163.45370483398438 355.5 L 163.45370483398438 245.29591369628906" fill-opacity="0.4666666666666667" clip-path="url(#FPEalKzkPQEZ)"/><path fill="rgb(75,0,130)" stroke="none" paint-order="stroke" d="M 178.22645568847656 252.92543029785156 L 192.9992218017578 252.92543029785156 L 192.9992218017578 355.5 L 178.22645568847656 355.5 L 178.22645568847656 252.92543029785156" fill-opacity="0.4588235294117647" clip-path="url(#FPEalKzkPQEZ)"/><path fill="rgb(75,0,130)" stroke="none" paint-order="stroke" d="M 192.9992218017578 285.1389465332031 L 207.77197265625 285.1389465332031 L 207.77197265625 355.5 L 192.9992218017578 355.5 L 192.9992218017578 285.1389465332031" fill-opacity="0.43137254901960786" clip-path="url(#FPEalKzkPQEZ)"/><path fill="rgb(75,0,130)" stroke="none" paint-order="stroke" d="M 207.77197265625 309.7229309082031 L 222.54473876953125 309.7229309082031 L 222.54473876953125 355.5 L 207.77197265625 355.5 L 207.77197265625 309.7229309082031" fill-opacity="0.4117647058823529" clip-path="url(#FPEalKzkPQEZ)"/><path fill="rgb(75,0,130)" stroke="none" paint-order="stroke" d="M 222.54473876953125 324.13421630859375 L 237.31748962402344 324.13421630859375 L 237.31748962402344 355.5 L 222.54473876953125 355.5 L 222.54473876953125 324.13421630859375" fill-opacity="0.4" clip-path="url(#FPEalKzkPQEZ)"/><path fill="rgb(75,0,130)" stroke="none" paint-order="stroke" d="M 237.31748962402344 336.8500671386719 L 252.0902557373047 336.8500671386719 L 252.0902557373047 355.5 L 237.31748962402344 355.5 L 237.31748962402344 336.8500671386719" fill-opacity="0.39215686274509803" clip-path="url(#FPEalKzkPQEZ)"/><path fill="rgb(75,0,130)" stroke="none" paint-order="stroke" d="M 252.0902557373047 341.9364318847656 L 266.8630065917969 341.9364318847656 L 266.8630065917969 355.5 L 252.0902557373047 355.5 L 252.0902557373047 341.9364318847656" fill-opacity="0.38823529411764707" clip-path="url(#FPEalKzkPQEZ)"/><path fill="rgb(75,0,130)" stroke="none" paint-order="stroke" d="M 266.8630065917969 345.3273010253906 L 281.6357727050781 345.3273010253906 L 281.6357727050781 355.5 L 266.8630065917969 355.5 L 266.8630065917969 345.3273010253906" fill-opacity="0.3843137254901961" clip-path="url(#FPEalKzkPQEZ)"/><path fill="rgb(75,0,130)" stroke="none" paint-order="stroke" d="M 281.6357727050781 342.7841491699219 L 296.4085388183594 342.7841491699219 L 296.4085388183594 355.5 L 281.6357727050781 355.5 L 281.6357727050781 342.7841491699219" fill-opacity="0.38823529411764707" clip-path="url(#FPEalKzkPQEZ)"/><path fill="rgb(75,0,130)" stroke="none" paint-order="stroke" d="M 296.4085388183594 347.02276611328125 L 311.1813049316406 347.02276611328125 L 311.1813049316406 355.5 L 296.4085388183594 355.5 L 296.4085388183594 347.02276611328125" fill-opacity="0.3843137254901961" clip-path="url(#FPEalKzkPQEZ)"/><path fill="rgb(75,0,130)" stroke="none" paint-order="stroke" d="M 311.1813049316406 353.8045654296875 L 325.9540710449219 353.8045654296875 L 325.9540710449219 355.5 L 311.1813049316406 355.5 L 311.1813049316406 353.8045654296875" fill-opacity="0.3764705882352941" clip-path="url(#FPEalKzkPQEZ)"/><path fill="rgb(75,0,130)" stroke="none" paint-order="stroke" d="M 325.9540710449219 349.5659484863281 L 340.726806640625 349.5659484863281 L 340.726806640625 355.5 L 325.9540710449219 355.5 L 325.9540710449219 349.5659484863281" fill-opacity="0.3803921568627451" clip-path="url(#FPEalKzkPQEZ)"/><path fill="rgb(75,0,130)" stroke="none" paint-order="stroke" d="M 340.726806640625 348.71820068359375 L 355.49957275390625 348.71820068359375 L 355.49957275390625 355.5 L 340.726806640625 355.5 L 340.726806640625 348.71820068359375" fill-opacity="0.3803921568627451" clip-path="url(#FPEalKzkPQEZ)"/><path fill="rgb(75,0,130)" stroke="none" paint-order="stroke" d="M 355.49957275390625 349.5659484863281 L 370.2723388671875 349.5659484863281 L 370.2723388671875 355.5 L 355.49957275390625 355.5 L 355.49957275390625 349.5659484863281" fill-opacity="0.3803921568627451" clip-path="url(#FPEalKzkPQEZ)"/><path fill="rgb(75,0,130)" stroke="none" paint-order="stroke" d="M 370.2723388671875 350.4136657714844 L 385.04510498046875 350.4136657714844 L 385.04510498046875 355.5 L 370.2723388671875 355.5 L 370.2723388671875 350.4136657714844" fill-opacity="0.3803921568627451" clip-path="url(#FPEalKzkPQEZ)"/><path fill="rgb(75,0,130)" stroke="none" paint-order="stroke" d="M 385.04510498046875 353.8045654296875 L 399.8178405761719 353.8045654296875 L 399.8178405761719 355.5 L 385.04510498046875 355.5 L 385.04510498046875 353.8045654296875" fill-opacity="0.3764705882352941" clip-path="url(#FPEalKzkPQEZ)"/><path fill="rgb(75,0,130)" stroke="none" paint-order="stroke" d="M 399.8178405761719 352.1091003417969 L 414.5906066894531 352.1091003417969 L 414.5906066894531 355.5 L 399.8178405761719 355.5 L 399.8178405761719 352.1091003417969" fill-opacity="0.3803921568627451" clip-path="url(#FPEalKzkPQEZ)"/><path fill="rgb(75,0,130)" stroke="none" paint-order="stroke" d="M 414.5906066894531 355.5 L 429.3633728027344 355.5 L 429.3633728027344 355.5 L 414.5906066894531 355.5 L 414.5906066894531 355.5" fill-opacity="0.3764705882352941" clip-path="url(#FPEalKzkPQEZ)"/><path fill="rgb(75,0,130)" stroke="none" paint-order="stroke" d="M 429.3633728027344 353.8045654296875 L 444.1361389160156 353.8045654296875 L 444.1361389160156 355.5 L 429.3633728027344 355.5 L 429.3633728027344 353.8045654296875" fill-opacity="0.3764705882352941" clip-path="url(#FPEalKzkPQEZ)"/><path fill="rgb(75,0,130)" stroke="none" paint-order="stroke" d="M 444.1361389160156 355.5 L 458.9089050292969 355.5 L 458.9089050292969 355.5 L 444.1361389160156 355.5 L 444.1361389160156 355.5" fill-opacity="0.3764705882352941" clip-path="url(#FPEalKzkPQEZ)"/><path fill="rgb(75,0,130)" stroke="none" paint-order="stroke" d="M 458.9089050292969 353.8045654296875 L 473.681640625 353.8045654296875 L 473.681640625 355.5 L 458.9089050292969 355.5 L 458.9089050292969 353.8045654296875" fill-opacity="0.3764705882352941" clip-path="url(#FPEalKzkPQEZ)"/><path fill="rgb(75,0,130)" stroke="none" paint-order="stroke" d="M 473.681640625 354.65228271484375 L 488.45440673828125 354.65228271484375 L 488.45440673828125 355.5 L 473.681640625 355.5 L 473.681640625 354.65228271484375" fill-opacity="0.3764705882352941" clip-path="url(#FPEalKzkPQEZ)"/><path fill="rgb(75,0,130)" stroke="none" paint-order="stroke" d="M 488.45440673828125 354.65228271484375 L 503.2271728515625 354.65228271484375 L 503.2271728515625 355.5 L 488.45440673828125 355.5 L 488.45440673828125 354.65228271484375" fill-opacity="0.3764705882352941" clip-path="url(#FPEalKzkPQEZ)"/><path fill="rgb(75,0,130)" stroke="none" paint-order="stroke" d="M 503.2271728515625 355.5 L 517.9999389648438 355.5 L 517.9999389648438 355.5 L 503.2271728515625 355.5 L 503.2271728515625 355.5" fill-opacity="0.3764705882352941" clip-path="url(#FPEalKzkPQEZ)"/><path fill="rgb(75,0,130)" stroke="none" paint-order="stroke" d="M 517.9999389648438 354.65228271484375 L 532.772705078125 354.65228271484375 L 532.772705078125 355.5 L 517.9999389648438 355.5 L 517.9999389648438 354.65228271484375" fill-opacity="0.3764705882352941" clip-path="url(#FPEalKzkPQEZ)"/><path fill="rgb(75,0,130)" stroke="none" paint-order="stroke" d="M 532.772705078125 354.65228271484375 L 547.5454711914062 354.65228271484375 L 547.5454711914062 355.5 L 532.772705078125 355.5 L 532.772705078125 354.65228271484375" fill-opacity="0.3764705882352941" clip-path="url(#FPEalKzkPQEZ)"/><path fill="none" stroke="rgb(0,0,0)" paint-order="fill" d="M 65.5 355.5 L 570.5 355.5" stroke-opacity="1" stroke-linejoin="bevel" stroke-miterlimit="10" stroke-dasharray=""/><path fill="none" stroke="rgb(0,0,0)" paint-order="fill" d="M 149.5 361.5 L 149.5 353.5 M 259.5 361.5 L 259.5 353.5 M 369.5 361.5 L 369.5 353.5 M 478.5 361.5 L 478.5 353.5" stroke-opacity="1" stroke-linejoin="bevel" stroke-miterlimit="10" stroke-dasharray=""/><path fill="none" stroke="rgb(0,0,0)" paint-order="fill" d="M 127.5 359.5 L 127.5 355.5 M 105.5 359.5 L 105.5 355.5 M 83.5 359.5 L 83.5 355.5 M 149.5 359.5 L 149.5 355.5 M 171.5 359.5 L 171.5 355.5 M 193.5 359.5 L 193.5 355.5 M 215.5 359.5 L 215.5 355.5 M 237.5 359.5 L 237.5 355.5 M 259.5 359.5 L 259.5 355.5 M 281.5 359.5 L 281.5 355.5 M 303.5 359.5 L 303.5 355.5 M 325.5 359.5 L 325.5 355.5 M 347.5 359.5 L 347.5 355.5 M 369.5 359.5 L 369.5 355.5 M 391.5 359.5 L 391.5 355.5 M 412.5 359.5 L 412.5 355.5 M 434.5 359.5 L 434.5 355.5 M 456.5 359.5 L 456.5 355.5 M 478.5 359.5 L 478.5 355.5 M 500.5 359.5 L 500.5 355.5 M 522.5 359.5 L 522.5 355.5 M 544.5 359.5 L 544.5 355.5 M 566.5 359.5 L 566.5 355.5" stroke-opacity="1" stroke-linejoin="bevel" stroke-miterlimit="10" stroke-dasharray=""/><text fill="rgb(68,68,68)" stroke="none" font-family="helvetica" font-size="11px" font-style="normal" font-weight="normal" text-decoration="normal" x="145.60794067382812" y="374" text-anchor="start" dominant-baseline="alphabetic" transform="matrix(1, 0, 0, 1, 0.5, 0.5)" fill-opacity="1">5</text><text fill="rgb(68,68,68)" stroke="none" font-family="helvetica" font-size="11px" font-style="normal" font-weight="normal" text-decoration="normal" x="251.843994140625" y="374" text-anchor="start" dominant-baseline="alphabetic" transform="matrix(1, 0, 0, 1, 0.5, 0.5)" fill-opacity="1">10</text><text fill="rgb(68,68,68)" stroke="none" font-family="helvetica" font-size="11px" font-style="normal" font-weight="normal" text-decoration="normal" x="361.58001708984375" y="374" text-anchor="start" dominant-baseline="alphabetic" transform="matrix(1, 0, 0, 1, 0.5, 0.5)" fill-opacity="1">15</text><text fill="rgb(68,68,68)" stroke="none" font-family="helvetica" font-size="11px" font-style="normal" font-weight="normal" text-decoration="normal" x="471.3160400390625" y="374" text-anchor="start" dominant-baseline="alphabetic" transform="matrix(1, 0, 0, 1, 0.5, 0.5)" fill-opacity="1">20</text><text fill="rgb(68,68,68)" stroke="none" font-family="helvetica" font-size="13px" font-style="italic" font-weight="normal" text-decoration="normal" x="265" y="394" text-anchor="start" dominant-baseline="alphabetic" transform="matrix(1, 0, 0, 1, 0.5, 0.5)" fill-opacity="1">Prediction Score</text><path fill="none" stroke="rgb(0,0,0)" paint-order="fill" d="M 65.5 355.5 L 65.5 31.5" stroke-opacity="1" stroke-linejoin="bevel" stroke-miterlimit="10" stroke-dasharray=""/><path fill="none" stroke="rgb(0,0,0)" paint-order="fill" d="M 59.5 355.5 L 67.5 355.5 M 59.5 292.5 L 67.5 292.5 M 59.5 230.5 L 67.5 230.5 M 59.5 167.5 L 67.5 167.5 M 59.5 105.5 L 67.5 105.5 M 59.5 42.5 L 67.5 42.5" stroke-opacity="1" stroke-linejoin="bevel" stroke-miterlimit="10" stroke-dasharray=""/><path fill="none" stroke="rgb(0,0,0)" paint-order="fill" d="M 61.5 355.5 L 65.5 355.5 M 61.5 342.5 L 65.5 342.5 M 61.5 330.5 L 65.5 330.5 M 61.5 317.5 L 65.5 317.5 M 61.5 305.5 L 65.5 305.5 M 61.5 292.5 L 65.5 292.5 M 61.5 280.5 L 65.5 280.5 M 61.5 267.5 L 65.5 267.5 M 61.5 255.5 L 65.5 255.5 M 61.5 242.5 L 65.5 242.5 M 61.5 230.5 L 65.5 230.5 M 61.5 217.5 L 65.5 217.5 M 61.5 205.5 L 65.5 205.5 M 61.5 192.5 L 65.5 192.5 M 61.5 180.5 L 65.5 180.5 M 61.5 167.5 L 65.5 167.5 M 61.5 155.5 L 65.5 155.5 M 61.5 142.5 L 65.5 142.5 M 61.5 130.5 L 65.5 130.5 M 61.5 117.5 L 65.5 117.5 M 61.5 105.5 L 65.5 105.5 M 61.5 92.5 L 65.5 92.5 M 61.5 80.5 L 65.5 80.5 M 61.5 67.5 L 65.5 67.5 M 61.5 55.5 L 65.5 55.5 M 61.5 42.5 L 65.5 42.5" stroke-opacity="1" stroke-linejoin="bevel" stroke-miterlimit="10" stroke-dasharray=""/><text fill="rgb(68,68,68)" stroke="none" font-family="helvetica" font-size="11px" font-style="normal" font-weight="normal" text-decoration="normal" x="33" y="358.5" text-anchor="start" dominant-baseline="alphabetic" transform="matrix(1, 0, 0, 1, 0.5, 0.5)" fill-opacity="1">0 %</text><text fill="rgb(68,68,68)" stroke="none" font-family="helvetica" font-size="11px" font-style="normal" font-weight="normal" text-decoration="normal" x="33" y="295.9803771972656" text-anchor="start" dominant-baseline="alphabetic" transform="matrix(1, 0, 0, 1, 0.5, 0.5)" fill-opacity="1">5 %</text><text fill="rgb(68,68,68)" stroke="none" font-family="helvetica" font-size="11px" font-style="normal" font-weight="normal" text-decoration="normal" x="26" y="233.46075439453125" text-anchor="start" dominant-baseline="alphabetic" transform="matrix(1, 0, 0, 1, 0.5, 0.5)" fill-opacity="1">10 %</text><text fill="rgb(68,68,68)" stroke="none" font-family="helvetica" font-size="11px" font-style="normal" font-weight="normal" text-decoration="normal" x="26" y="170.94113159179688" text-anchor="start" dominant-baseline="alphabetic" transform="matrix(1, 0, 0, 1, 0.5, 0.5)" fill-opacity="1">15 %</text><text fill="rgb(68,68,68)" stroke="none" font-family="helvetica" font-size="11px" font-style="normal" font-weight="normal" text-decoration="normal" x="26" y="108.4215087890625" text-anchor="start" dominant-baseline="alphabetic" transform="matrix(1, 0, 0, 1, 0.5, 0.5)" fill-opacity="1">20 %</text><text fill="rgb(68,68,68)" stroke="none" font-family="helvetica" font-size="11px" font-style="normal" font-weight="normal" text-decoration="normal" x="26" y="45.90188217163086" text-anchor="start" dominant-baseline="alphabetic" transform="matrix(1, 0, 0, 1, 0.5, 0.5)" fill-opacity="1">25 %</text><text fill="rgb(68,68,68)" stroke="none" font-family="helvetica" font-size="13px" font-style="italic" font-weight="normal" text-decoration="normal" x="-17.5" y="190" text-anchor="start" dominant-baseline="alphabetic" transform="matrix(6.123233995736766e-17, -1, 1, 6.123233995736766e-17, -174.5, 211.5)" fill-opacity="1"># Samples</text><path fill="rgb(255,255,255)" stroke="rgb(229,229,229)" paint-order="fill" d="M 487.5 41.5 L 560.5 41.5 L 560.5 104.5 L 487.5 104.5 L 487.5 41.5" fill-opacity="0.9490196078431372" clip-path="url(#QuacDEGAsiQT)" stroke-opacity="0.5019607843137255" stroke-linejoin="bevel" stroke-miterlimit="10" stroke-dasharray=""/><g clip-path="url(#QuacDEGAsiQT)"><text fill="rgb(68,68,68)" stroke="none" font-family="helvetica" font-size="8pt" font-style="normal" font-weight="normal" text-decoration="normal" x="522" y="61" text-anchor="start" dominant-baseline="central" transform="matrix(1, 0, 0, 1, 0.5, 0.5)" fill-opacity="1">False</text></g><path fill="rgb(220,20,60)" stroke="none" paint-order="stroke" d="M 499.5 53.5 L 515.5 53.5 L 515.5 69.5 L 499.5 69.5 L 499.5 53.5" fill-opacity="0.45098039215686275" clip-path="url(#QuacDEGAsiQT)"/><g clip-path="url(#QuacDEGAsiQT)"><text fill="rgb(68,68,68)" stroke="none" font-family="helvetica" font-size="8pt" font-style="normal" font-weight="normal" text-decoration="normal" x="522" y="84" text-anchor="start" dominant-baseline="central" transform="matrix(1, 0, 0, 1, 0.5, 0.5)" fill-opacity="1">True</text></g><path fill="rgb(75,0,130)" stroke="none" paint-order="stroke" d="M 499.5 76.5 L 515.5 76.5 L 515.5 92.5 L 499.5 92.5 L 499.5 76.5" fill-opacity="0.49019607843137253" clip-path="url(#QuacDEGAsiQT)"/><text fill="rgb(68,68,68)" stroke="none" font-family="helvetica" font-size="12pt" font-style="normal" font-weight="bold" text-decoration="normal" x="90" y="22" text-anchor="start" dominant-baseline="alphabetic" transform="matrix(1, 0, 0, 1, 0.5, 0.5)" fill-opacity="1">AutoEncoder: Prediction Score Histogram by Class</text></svg>