<svg version="1.1" xmlns="http://www.w3.org/2000/svg" width="600" height="400"><defs><clipPath id="nkvNWgSmSdDB"><path fill="none" stroke="none" d="M 68.5 31.5 L 570.5 31.5 L 570.5 350.5 L 68.5 350.5 L 68.5 31.5"/></clipPath><clipPath id="uJpitAOzqIXT"><path fill="none" stroke="none" d="M 68.5 31.5 L 570.5 31.5 L 570.5 350.5 L 68.5 350.5 L 68.5 31.5"/></clipPath><clipPath id="krHoAgtGskmU"><path fill="none" stroke="none" d="M 68.5 31.5 L 570.5 31.5 L 570.5 350.5 L 68.5 350.5 L 68.5 31.5"/></clipPath><clipPath id="QnlmcRvwlecs"><path fill="none" stroke="none" d="M 68.5 31.5 L 570.5 31.5 L 570.5 350.5 L 68.5 350.5 L 68.5 31.5"/></clipPath><clipPath id="qRmLFwkzZCcO"><path fill="none" stroke="none" d="M 68.5 31.5 L 570.5 31.5 L 570.5 350.5 L 68.5 350.5 L 68.5 31.5"/></clipPath><clipPath id="ZwORbredbysW"><path fill="none" stroke="none" d="M 68.5 31.5 L 570.5 31.5 L 570.5 350.5 L 68.5 350.5 L 68.5 31.5"/></clipPath></defs><path fill="rgb(255,255,255)" stroke="none" paint-order="stroke" d="M 0.5 0.5 L 600.5 0.5 L 600.5 400.5 L 0.5 400.5 L 0.5 0.5" fill-opacity="1"/><rect fill="#FFFFFF" stroke="none" x="68" y="31" width="502" height="319" transform="matrix(1, 0, 0, 1, 0.5, 0.5)"/><path fill="rgb(255,255,255)" stroke="none" paint-order="stroke" d="M 68.5 31.5 L 570.5 31.5 L 570.5 350.5 L 68.5 350.5 L 68.5 31.5" fill-opacity="1"/><path fill="none" stroke="rgb(229,229,229)" paint-order="fill" d="M 68.5 31.5 L 570.5 31.5 L 570.5 350.5 L 68.5 350.5 L 68.5 31.5" stroke-opacity="1" stroke-linejoin="bevel" stroke-miterlimit="10" stroke-dasharray=""/><path fill="none" stroke="rgb(229,229,229)" paint-order="fill" d="M 68.5 336.5 L 570.5 336.5 M 68.5 278.5 L 570.5 278.5 M 68.5 220.5 L 570.5 220.5 M 68.5 162.5 L 570.5 162.5 M 68.5 104.5 L 570.5 104.5 M 68.5 46.5 L 570.5 46.5" stroke-opacity="1" stroke-linejoin="bevel" stroke-miterlimit="10" stroke-dasharray="" clip-path="url(#uJpitAOzqIXT)"/><path fill="none" stroke="rgb(255,127,80)" paint-order="fill" d="M 91.31818389892578 336 L 91.31818389892578 335.8033752441406 L 91.31818389892578 290.97625732421875 L 91.87813568115234 290.97625732421875 L 91.87813568115234 275.2474670410156 L 92.43809509277344 275.2474670410156 L 92.43809509277344 264.6305236816406 L 92.998046875 264.6305236816406 L 92.998046875 254.01356506347656 L 93.5580062866211 254.01356506347656 L 93.5580062866211 252.2440643310547 L 94.11795806884766 252.2440643310547 L 94.11795806884766 249.294921875 L 94.67791748046875 249.294921875 L 94.67791748046875 247.91864013671875 L 95.23786926269531 247.91864013671875 L 95.23786926269531 235.92543029785156 L 95.7978286743164 235.92543029785156 L 95.7978286743164 233.76271057128906 L 96.35778045654297 233.76271057128906 L 96.35778045654297 231.99322509765625 L 96.91773223876953 231.99322509765625 L 96.91773223876953 230.8135528564453 L 97.47769165039062 230.8135528564453 L 97.47769165039062 227.47119140625 L 98.03764343261719 227.47119140625 L 98.03764343261719 221.96609497070312 L 99.15755462646484 221.96609497070312 L 99.15755462646484 218.2305145263672 L 99.71751403808594 218.2305145263672 L 99.71751403808594 215.08474731445312 L 100.2774658203125 215.08474731445312 L 100.2774658203125 209.97288513183594 L 100.8374252319336 209.97288513183594 L 100.8374252319336 203.87796020507812 L 101.39737701416016 203.87796020507812 L 101.39737701416016 202.1084747314453 L 101.95733642578125 202.1084747314453 L 101.95733642578125 201.7152557373047 L 102.51728820800781 201.7152557373047 L 102.51728820800781 199.35592651367188 L 103.63719940185547 199.35592651367188 L 103.63719940185547 199.15931701660156 L 104.19715881347656 199.15931701660156 L 104.19715881347656 197.9796600341797 L 105.31707000732422 197.9796600341797 L 105.31707000732422 195.62034606933594 L 105.87702178955078 195.62034606933594 L 105.87702178955078 193.45762634277344 L 106.99693298339844 193.45762634277344 L 106.99693298339844 187.3627166748047 L 107.556884765625 187.3627166748047 L 107.556884765625 186.18304443359375 L 108.1168441772461 186.18304443359375 L 108.1168441772461 184.41355895996094 L 108.67679595947266 184.41355895996094 L 108.67679595947266 184.21694946289062 L 109.23675537109375 184.21694946289062 L 109.23675537109375 181.07118225097656 L 109.79670715332031 181.07118225097656 L 109.79670715332031 180.67796325683594 L 110.3566665649414 180.67796325683594 L 110.3566665649414 179.49830627441406 L 110.91661834716797 179.49830627441406 L 110.91661834716797 177.53219604492188 L 111.47657775878906 177.53219604492188 L 111.47657775878906 177.33558654785156 L 112.03652954101562 177.33558654785156 L 112.03652954101562 175.17288208007812 L 112.59648895263672 175.17288208007812 L 112.59648895263672 174.7796630859375 L 113.15644073486328 174.7796630859375 L 113.15644073486328 169.47119140625 L 113.71640014648438 169.47119140625 L 113.71640014648438 168.09490966796875 L 114.27635192871094 168.09490966796875 L 114.27635192871094 166.71864318847656 L 114.83631134033203 166.71864318847656 L 114.83631134033203 164.16270446777344 L 115.3962631225586 164.16270446777344 L 115.3962631225586 160.6237335205078 L 115.95621490478516 160.6237335205078 L 115.95621490478516 158.264404296875 L 116.51617431640625 158.264404296875 L 116.51617431640625 157.67457580566406 L 117.07612609863281 157.67457580566406 L 117.07612609863281 156.6915283203125 L 117.6360855102539 156.6915283203125 L 117.6360855102539 155.11863708496094 L 118.19603729248047 155.11863708496094 L 118.19603729248047 148.63050842285156 L 118.75599670410156 148.63050842285156 L 118.75599670410156 147.25424194335938 L 119.31594848632812 147.25424194335938 L 119.31594848632812 143.32203674316406 L 119.87590789794922 143.32203674316406 L 119.87590789794922 135.65423583984375 L 120.43585968017578 135.65423583984375 L 120.43585968017578 125.62712097167969 L 120.99581909179688 125.62712097167969 L 120.99581909179688 124.25084686279297 L 122.11573028564453 124.25084686279297 L 122.11573028564453 121.49830627441406 L 122.6756820678711 121.49830627441406 L 122.6756820678711 118.54915618896484 L 123.23564147949219 118.54915618896484 L 123.23564147949219 118.15592956542969 L 123.79559326171875 118.15592956542969 L 123.79559326171875 113.63389587402344 L 124.35555267333984 113.63389587402344 L 124.35555267333984 111.66779327392578 L 124.9155044555664 111.66779327392578 L 124.9155044555664 110.68474578857422 L 125.4754638671875 110.68474578857422 L 125.4754638671875 110.09491729736328 L 126.03541564941406 110.09491729736328 L 126.03541564941406 109.50508117675781 L 126.59536743164062 109.50508117675781 L 126.59536743164062 108.71864318847656 L 127.15532684326172 108.71864318847656 L 127.15532684326172 107.34236907958984 L 127.71527862548828 107.34236907958984 L 127.71527862548828 102.42711639404297 L 128.27523803710938 102.42711639404297 L 128.27523803710938 101.64067840576172 L 128.83518981933594 101.64067840576172 L 128.83518981933594 96.72542572021484 L 129.3951416015625 96.72542572021484 L 129.3951416015625 95.54576110839844 L 130.5150604248047 95.54576110839844 L 130.5150604248047 93.97288513183594 L 131.6349639892578 93.97288513183594 L 131.6349639892578 93.38304901123047 L 132.19493103027344 93.38304901123047 L 132.19493103027344 93.18643951416016 L 132.7548828125 93.18643951416016 L 132.7548828125 92.98983001708984 L 133.87478637695312 92.98983001708984 L 133.87478637695312 92.79322052001953 L 135.55465698242188 92.79322052001953 L 135.55465698242188 90.82711791992188 L 136.11460876464844 90.82711791992188 L 136.11460876464844 90.43389892578125 L 136.674560546875 90.43389892578125 L 136.674560546875 90.04067993164062 L 137.23452758789062 90.04067993164062 L 137.23452758789062 88.86101531982422 L 137.7944793701172 88.86101531982422 L 137.7944793701172 87.48474884033203 L 140.59425354003906 87.48474884033203 L 140.59425354003906 86.89491271972656 L 141.15420532226562 86.89491271972656 L 141.15420532226562 86.69830322265625 L 141.71417236328125 86.69830322265625 L 141.71417236328125 86.50169372558594 L 142.83407592773438 86.50169372558594 L 142.83407592773438 85.71525573730469 L 143.39402770996094 85.71525573730469 L 143.39402770996094 85.32203674316406 L 143.95399475097656 85.32203674316406 L 143.95399475097656 85.12542724609375 L 144.51394653320312 85.12542724609375 L 144.51394653320312 84.7322006225586 L 145.0738983154297 84.7322006225586 L 145.0738983154297 84.33898162841797 L 145.63385009765625 84.33898162841797 L 145.63385009765625 82.96271514892578 L 146.1938018798828 82.96271514892578 L 146.1938018798828 82.76609802246094 L 146.75376892089844 82.76609802246094 L 146.75376892089844 82.56948852539062 L 147.87367248535156 82.56948852539062 L 147.87367248535156 82.37287902832031 L 148.43362426757812 82.37287902832031 L 148.43362426757812 80.99661254882812 L 148.99359130859375 80.99661254882812 L 148.99359130859375 79.6203384399414 L 149.5535430908203 79.6203384399414 L 149.5535430908203 78.83390045166016 L 150.67344665527344 78.83390045166016 L 150.67344665527344 78.63729095458984 L 151.23341369628906 78.63729095458984 L 151.23341369628906 78.44068145751953 L 151.79336547851562 78.44068145751953 L 151.79336547851562 78.24406433105469 L 152.3533172607422 78.24406433105469 L 152.3533172607422 78.04745483398438 L 154.5931396484375 78.04745483398438 L 154.5931396484375 77.65423583984375 L 155.15309143066406 77.65423583984375 L 155.15309143066406 77.26101684570312 L 155.71304321289062 77.26101684570312 L 155.71304321289062 77.06440734863281 L 156.8329620361328 77.06440734863281 L 156.8329620361328 76.47457885742188 L 158.51283264160156 76.47457885742188 L 158.51283264160156 76.27796936035156 L 159.07278442382812 76.27796936035156 L 159.07278442382812 76.08135223388672 L 160.19268798828125 76.08135223388672 L 160.19268798828125 75.8847427368164 L 160.75265502929688 75.8847427368164 L 160.75265502929688 75.09830474853516 L 161.31260681152344 75.09830474853516 L 161.31260681152344 74.70508575439453 L 164.67233276367188 74.70508575439453 L 164.67233276367188 73.91864776611328 L 166.35220336914062 73.91864776611328 L 166.35220336914062 73.1322021484375 L 166.9121551513672 73.1322021484375 L 166.9121551513672 72.93559265136719 L 168.03207397460938 72.93559265136719 L 168.03207397460938 72.73898315429688 L 169.71192932128906 72.73898315429688 L 169.71192932128906 72.54237365722656 L 170.2718963623047 72.54237365722656 L 170.2718963623047 72.14915466308594 L 171.95175170898438 72.14915466308594 L 171.95175170898438 71.95254516601562 L 172.51171875 71.95254516601562 L 172.51171875 71.75593566894531 L 173.63162231445312 71.75593566894531 L 173.63162231445312 71.16609954833984 L 174.7515411376953 71.16609954833984 L 174.7515411376953 70.96949005126953 L 176.431396484375 70.96949005126953 L 176.431396484375 70.5762710571289 L 176.99134826660156 70.5762710571289 L 176.99134826660156 70.18305206298828 L 177.5513153076172 70.18305206298828 L 177.5513153076172 69.78983306884766 L 180.35108947753906 69.78983306884766 L 180.35108947753906 69.59322357177734 L 182.0309600830078 69.59322357177734 L 182.0309600830078 69.3966064453125 L 182.59091186523438 69.3966064453125 L 182.59091186523438 68.61016845703125 L 183.15086364746094 68.61016845703125 L 183.15086364746094 68.21694946289062 L 183.7108154296875 68.21694946289062 L 183.7108154296875 67.82373046875 L 184.8307342529297 67.82373046875 L 184.8307342529297 67.03728485107422 L 185.39068603515625 67.03728485107422 L 185.39068603515625 66.6440658569336 L 185.9506378173828 66.6440658569336 L 185.9506378173828 66.44745635986328 L 186.51058959960938 66.44745635986328 L 186.51058959960938 66.25084686279297 L 187.070556640625 66.25084686279297 L 187.070556640625 66.05423736572266 L 189.3103790283203 66.05423736572266 L 189.3103790283203 65.46440887451172 L 189.87033081054688 65.46440887451172 L 189.87033081054688 65.2677993774414 L 190.43028259277344 65.2677993774414 L 190.43028259277344 64.87457275390625 L 190.990234375 64.87457275390625 L 190.990234375 64.67796325683594 L 191.55020141601562 64.67796325683594 L 191.55020141601562 64.48135757446289 L 194.3499755859375 64.48135757446289 L 194.3499755859375 64.088134765625 L 195.46987915039062 64.088134765625 L 195.46987915039062 63.30169677734375 L 197.70970153808594 63.30169677734375 L 197.70970153808594 62.515254974365234 L 199.3895721435547 62.515254974365234 L 199.3895721435547 61.92542266845703 L 199.94952392578125 61.92542266845703 L 199.94952392578125 61.72881317138672 L 200.5094757080078 61.72881317138672 L 200.5094757080078 60.74576187133789 L 201.06944274902344 60.74576187133789 L 201.06944274902344 60.352542877197266 L 202.74929809570312 60.352542877197266 L 202.74929809570312 59.95932388305664 L 203.8692169189453 59.95932388305664 L 203.8692169189453 59.36949157714844 L 204.42916870117188 59.36949157714844 L 204.42916870117188 59.172882080078125 L 204.98912048339844 59.172882080078125 L 204.98912048339844 58.97627258300781 L 206.6689910888672 58.97627258300781 L 206.6689910888672 58.38644027709961 L 207.22894287109375 58.38644027709961 L 207.22894287109375 57.993221282958984 L 207.7888946533203 57.993221282958984 L 207.7888946533203 57.79661178588867 L 208.9088134765625 57.79661178588867 L 208.9088134765625 57.599998474121094 L 209.46876525878906 57.599998474121094 L 209.46876525878906 57.010169982910156 L 210.58868408203125 57.010169982910156 L 210.58868408203125 56.813560485839844 L 211.1486358642578 56.813560485839844 L 211.1486358642578 56.61695098876953 L 212.26853942871094 56.61695098876953 L 212.26853942871094 56.22372817993164 L 213.9484100341797 56.22372817993164 L 213.9484100341797 55.830509185791016 L 216.74818420410156 55.830509185791016 L 216.74818420410156 55.437286376953125 L 217.86810302734375 55.437286376953125 L 217.86810302734375 55.24067687988281 L 218.98800659179688 55.24067687988281 L 218.98800659179688 55.0440673828125 L 220.66787719726562 55.0440673828125 L 220.66787719726562 54.84745788574219 L 226.26742553710938 54.84745788574219 L 226.26742553710938 54.650848388671875 L 226.82737731933594 54.650848388671875 L 226.82737731933594 54.45423889160156 L 228.5072479248047 54.45423889160156 L 228.5072479248047 54.257625579833984 L 237.46653747558594 54.257625579833984 L 237.46653747558594 53.86440658569336 L 240.82626342773438 53.86440658569336 L 240.82626342773438 53.66779708862305 L 242.50613403320312 53.66779708862305 L 242.50613403320312 53.471187591552734 L 244.74595642089844 53.471187591552734 L 244.74595642089844 53.077964782714844 L 245.305908203125 53.077964782714844 L 245.305908203125 52.88135528564453 L 255.945068359375 52.88135528564453 L 255.945068359375 52.68474578857422 L 258.18487548828125 52.68474578857422 L 258.18487548828125 52.488136291503906 L 266.0242614746094 52.488136291503906 L 266.0242614746094 52.291526794433594 L 269.9439392089844 52.291526794433594 L 269.9439392089844 52.094913482666016 L 271.0638732910156 52.094913482666016 L 271.0638732910156 51.8983039855957 L 274.423583984375 51.8983039855957 L 274.423583984375 51.70169448852539 L 281.14306640625 51.70169448852539 L 281.14306640625 51.50508499145508 L 284.5027770996094 51.50508499145508 L 284.5027770996094 51.308475494384766 L 285.6227111816406 51.308475494384766 L 285.6227111816406 51.11186599731445 L 287.30255126953125 51.11186599731445 L 287.30255126953125 50.915252685546875 L 287.8625183105469 50.915252685546875 L 287.8625183105469 50.71864318847656 L 291.7821960449219 50.71864318847656 L 291.7821960449219 50.52203369140625 L 296.2618408203125 50.52203369140625 L 296.2618408203125 50.32542419433594 L 298.5016784667969 50.32542419433594 L 298.5016784667969 50.128814697265625 L 303.541259765625 50.128814697265625 L 303.541259765625 49.735591888427734 L 306.3410339355469 49.735591888427734 L 306.3410339355469 49.53898239135742 L 308.58087158203125 49.53898239135742 L 308.58087158203125 49.34237289428711 L 309.1408386230469 49.34237289428711 L 309.1408386230469 48.752540588378906 L 313.6204833984375 48.752540588378906 L 313.6204833984375 48.35932159423828 L 315.3003234863281 48.35932159423828 L 315.3003234863281 48.16271209716797 L 319.22003173828125 48.16271209716797 L 319.22003173828125 47.966102600097656 L 325.9394836425781 47.966102600097656 L 325.9394836425781 47.769493103027344 L 329.8591613769531 47.769493103027344 L 329.8591613769531 47.17966079711914 L 330.41912841796875 47.17966079711914 L 330.41912841796875 46.786441802978516 L 332.6589660644531 46.786441802978516 L 332.6589660644531 46.393218994140625 L 334.8987731933594 46.393218994140625 L 334.8987731933594 46.19660949707031 L 355.0571594238281 46.19660949707031 L 355.0571594238281 46 L 547.6818237304688 46" stroke-opacity="1" stroke-linejoin="bevel" stroke-miterlimit="10" stroke-width="1.5" stroke-dasharray="" clip-path="url(#krHoAgtGskmU)"/><path fill="none" stroke="rgb(0,0,0)" paint-order="fill" d="M 91.31818389892578 336 L 91.31818389892578 336 L 91.31818389892578 336 L 91.87813568115234 335.6441650390625 L 91.87813568115234 335.6441650390625 L 92.43809509277344 335.288330078125 L 92.43809509277344 335.288330078125 L 92.998046875 334.9325256347656 L 92.998046875 334.9325256347656 L 93.5580062866211 334.5766906738281 L 93.5580062866211 334.5766906738281 L 94.11795806884766 334.2208557128906 L 94.11795806884766 334.2208557128906 L 94.67791748046875 333.8650207519531 L 94.67791748046875 333.8650207519531 L 95.23786926269531 333.50921630859375 L 95.23786926269531 333.50921630859375 L 95.7978286743164 333.15338134765625 L 95.7978286743164 333.15338134765625 L 96.35778045654297 332.79754638671875 L 96.35778045654297 332.79754638671875 L 96.91773223876953 332.44171142578125 L 96.91773223876953 332.44171142578125 L 97.47769165039062 332.08587646484375 L 97.47769165039062 332.08587646484375 L 98.03764343261719 331.7300720214844 L 98.03764343261719 331.7300720214844 L 99.15755462646484 331.0184020996094 L 99.15755462646484 331.0184020996094 L 99.71751403808594 330.6625671386719 L 99.71751403808594 330.6625671386719 L 100.2774658203125 330.3067626953125 L 100.2774658203125 330.3067626953125 L 100.8374252319336 329.950927734375 L 100.8374252319336 329.950927734375 L 101.39737701416016 329.5950927734375 L 101.39737701416016 329.5950927734375 L 101.95733642578125 329.2392578125 L 101.95733642578125 329.2392578125 L 102.51728820800781 328.8834228515625 L 102.51728820800781 328.8834228515625 L 103.63719940185547 328.1717834472656 L 103.63719940185547 328.1717834472656 L 104.19715881347656 327.8159484863281 L 104.19715881347656 327.8159484863281 L 105.31707000732422 327.10430908203125 L 105.31707000732422 327.10430908203125 L 105.87702178955078 326.74847412109375 L 105.87702178955078 326.74847412109375 L 106.99693298339844 326.03680419921875 L 106.99693298339844 326.03680419921875 L 107.556884765625 325.68096923828125 L 107.556884765625 325.68096923828125 L 108.1168441772461 325.3251647949219 L 108.1168441772461 325.3251647949219 L 108.67679595947266 324.9693298339844 L 108.67679595947266 324.9693298339844 L 109.23675537109375 324.6134948730469 L 109.23675537109375 324.6134948730469 L 109.79670715332031 324.2576599121094 L 109.79670715332031 324.2576599121094 L 110.3566665649414 323.90185546875 L 110.3566665649414 323.90185546875 L 110.91661834716797 323.5460205078125 L 110.91661834716797 323.5460205078125 L 111.47657775878906 323.190185546875 L 111.47657775878906 323.190185546875 L 112.03652954101562 322.8343505859375 L 112.03652954101562 322.8343505859375 L 112.59648895263672 322.478515625 L 112.59648895263672 322.478515625 L 113.15644073486328 322.1227111816406 L 113.15644073486328 322.1227111816406 L 113.71640014648438 321.7668762207031 L 113.71640014648438 321.7668762207031 L 114.27635192871094 321.4110412597656 L 114.27635192871094 321.4110412597656 L 114.83631134033203 321.0552062988281 L 114.83631134033203 321.0552062988281 L 115.3962631225586 320.6993713378906 L 115.3962631225586 320.6993713378906 L 115.95621490478516 320.34356689453125 L 115.95621490478516 320.34356689453125 L 116.51617431640625 319.98773193359375 L 116.51617431640625 319.98773193359375 L 117.07612609863281 319.63189697265625 L 117.07612609863281 319.63189697265625 L 117.6360855102539 319.27606201171875 L 117.6360855102539 319.27606201171875 L 118.19603729248047 318.9202575683594 L 118.19603729248047 318.9202575683594 L 118.75599670410156 318.5644226074219 L 118.75599670410156 318.5644226074219 L 119.31594848632812 318.2085876464844 L 119.31594848632812 318.2085876464844 L 119.87590789794922 317.8527526855469 L 119.87590789794922 317.8527526855469 L 120.43585968017578 317.4969177246094 L 120.43585968017578 317.4969177246094 L 120.99581909179688 317.14111328125 L 120.99581909179688 317.14111328125 L 122.11573028564453 316.429443359375 L 122.11573028564453 316.429443359375 L 122.6756820678711 316.0736083984375 L 122.6756820678711 316.0736083984375 L 123.23564147949219 315.7178039550781 L 123.23564147949219 315.7178039550781 L 123.79559326171875 315.3619689941406 L 123.79559326171875 315.3619689941406 L 124.35555267333984 315.0061340332031 L 124.35555267333984 315.0061340332031 L 124.9155044555664 314.6502990722656 L 124.9155044555664 314.6502990722656 L 125.4754638671875 314.2944641113281 L 125.4754638671875 314.2944641113281 L 126.03541564941406 313.93865966796875 L 126.03541564941406 313.93865966796875 L 126.59536743164062 313.58282470703125 L 126.59536743164062 313.58282470703125 L 127.15532684326172 313.22698974609375 L 127.15532684326172 313.22698974609375 L 127.71527862548828 312.87115478515625 L 127.71527862548828 312.87115478515625 L 128.27523803710938 312.5153503417969 L 128.27523803710938 312.5153503417969 L 128.83518981933594 312.1595153808594 L 128.83518981933594 312.1595153808594 L 129.3951416015625 311.8036804199219 L 129.3951416015625 311.8036804199219 L 130.5150604248047 311.0920104980469 L 130.5150604248047 311.0920104980469 L 131.6349639892578 310.38037109375 L 131.6349639892578 310.38037109375 L 132.19493103027344 310.0245361328125 L 132.19493103027344 310.0245361328125 L 132.7548828125 309.668701171875 L 132.7548828125 309.668701171875 L 133.87478637695312 308.9570617675781 L 133.87478637695312 308.9570617675781 L 135.55465698242188 307.8895568847656 L 135.55465698242188 307.8895568847656 L 136.11460876464844 307.53375244140625 L 136.11460876464844 307.53375244140625 L 136.674560546875 307.17791748046875 L 136.674560546875 307.17791748046875 L 137.23452758789062 306.82208251953125 L 137.23452758789062 306.82208251953125 L 137.7944793701172 306.46624755859375 L 137.7944793701172 306.46624755859375 L 140.59425354003906 304.6871032714844 L 140.59425354003906 304.6871032714844 L 141.15420532226562 304.331298828125 L 141.15420532226562 304.331298828125 L 141.71417236328125 303.9754638671875 L 141.71417236328125 303.9754638671875 L 142.83407592773438 303.2637939453125 L 142.83407592773438 303.2637939453125 L 143.39402770996094 302.9079895019531 L 143.39402770996094 302.9079895019531 L 143.95399475097656 302.5521545410156 L 143.95399475097656 302.5521545410156 L 144.51394653320312 302.1963195800781 L 144.51394653320312 302.1963195800781 L 145.0738983154297 301.8404846191406 L 145.0738983154297 301.8404846191406 L 145.63385009765625 301.4846496582031 L 145.63385009765625 301.4846496582031 L 146.1938018798828 301.12884521484375 L 146.1938018798828 301.12884521484375 L 146.75376892089844 300.77301025390625 L 146.75376892089844 300.77301025390625 L 147.87367248535156 300.06134033203125 L 147.87367248535156 300.06134033203125 L 148.43362426757812 299.7055358886719 L 148.43362426757812 299.7055358886719 L 148.99359130859375 299.3497009277344 L 148.99359130859375 299.3497009277344 L 149.5535430908203 298.9938659667969 L 149.5535430908203 298.9938659667969 L 150.67344665527344 298.2821960449219 L 150.67344665527344 298.2821960449219 L 151.23341369628906 297.9263916015625 L 151.23341369628906 297.9263916015625 L 151.79336547851562 297.570556640625 L 151.79336547851562 297.570556640625 L 152.3533172607422 297.2147216796875 L 152.3533172607422 297.2147216796875 L 154.5931396484375 295.7914123535156 L 154.5931396484375 295.7914123535156 L 155.15309143066406 295.4355773925781 L 155.15309143066406 295.4355773925781 L 155.71304321289062 295.0797424316406 L 155.71304321289062 295.0797424316406 L 156.8329620361328 294.36810302734375 L 156.8329620361328 294.36810302734375 L 158.51283264160156 293.3006286621094 L 158.51283264160156 293.3006286621094 L 159.07278442382812 292.9447937011719 L 159.07278442382812 292.9447937011719 L 160.19268798828125 292.2331237792969 L 160.19268798828125 292.2331237792969 L 160.75265502929688 291.8772888183594 L 160.75265502929688 291.8772888183594 L 161.31260681152344 291.521484375 L 161.31260681152344 291.521484375 L 164.67233276367188 289.3865051269531 L 164.67233276367188 289.3865051269531 L 166.35220336914062 288.31903076171875 L 166.35220336914062 288.31903076171875 L 166.9121551513672 287.96319580078125 L 166.9121551513672 287.96319580078125 L 168.03207397460938 287.25152587890625 L 168.03207397460938 287.25152587890625 L 169.71192932128906 286.1840515136719 L 169.71192932128906 286.1840515136719 L 170.2718963623047 285.8282165527344 L 170.2718963623047 285.8282165527344 L 171.95175170898438 284.7607421875 L 171.95175170898438 284.7607421875 L 172.51171875 284.4049072265625 L 172.51171875 284.4049072265625 L 173.63162231445312 283.6932373046875 L 173.63162231445312 283.6932373046875 L 174.7515411376953 282.9815979003906 L 174.7515411376953 282.9815979003906 L 176.431396484375 281.91412353515625 L 176.431396484375 281.91412353515625 L 176.99134826660156 281.55828857421875 L 176.99134826660156 281.55828857421875 L 177.5513153076172 281.20245361328125 L 177.5513153076172 281.20245361328125 L 180.35108947753906 279.4233093261719 L 180.35108947753906 279.4233093261719 L 182.0309600830078 278.3558349609375 L 182.0309600830078 278.3558349609375 L 182.59091186523438 278 L 182.59091186523438 278 L 183.15086364746094 277.6441650390625 L 183.15086364746094 277.6441650390625 L 183.7108154296875 277.288330078125 L 183.7108154296875 277.288330078125 L 184.8307342529297 276.5766906738281 L 184.8307342529297 276.5766906738281 L 185.39068603515625 276.2208557128906 L 185.39068603515625 276.2208557128906 L 185.9506378173828 275.8650207519531 L 185.9506378173828 275.8650207519531 L 186.51058959960938 275.50921630859375 L 186.51058959960938 275.50921630859375 L 187.070556640625 275.15338134765625 L 187.070556640625 275.15338134765625 L 189.3103790283203 273.7300720214844 L 189.3103790283203 273.7300720214844 L 189.87033081054688 273.3742370605469 L 189.87033081054688 273.3742370605469 L 190.43028259277344 273.0184020996094 L 190.43028259277344 273.0184020996094 L 190.990234375 272.6625671386719 L 190.990234375 272.6625671386719 L 191.55020141601562 272.3067626953125 L 191.55020141601562 272.3067626953125 L 194.3499755859375 270.5276184082031 L 194.3499755859375 270.5276184082031 L 195.46987915039062 269.8159484863281 L 195.46987915039062 269.8159484863281 L 197.70970153808594 268.39263916015625 L 197.70970153808594 268.39263916015625 L 199.3895721435547 267.3251647949219 L 199.3895721435547 267.3251647949219 L 199.94952392578125 266.9693298339844 L 199.94952392578125 266.9693298339844 L 200.5094757080078 266.6134948730469 L 200.5094757080078 266.6134948730469 L 201.06944274902344 266.2576599121094 L 201.06944274902344 266.2576599121094 L 202.74929809570312 265.190185546875 L 202.74929809570312 265.190185546875 L 203.8692169189453 264.478515625 L 203.8692169189453 264.478515625 L 204.42916870117188 264.1227111816406 L 204.42916870117188 264.1227111816406 L 204.98912048339844 263.7668762207031 L 204.98912048339844 263.7668762207031 L 206.6689910888672 262.6993713378906 L 206.6689910888672 262.6993713378906 L 207.22894287109375 262.34356689453125 L 207.22894287109375 262.34356689453125 L 207.7888946533203 261.98773193359375 L 207.7888946533203 261.98773193359375 L 208.9088134765625 261.27606201171875 L 208.9088134765625 261.27606201171875 L 209.46876525878906 260.9202575683594 L 209.46876525878906 260.9202575683594 L 210.58868408203125 260.2085876464844 L 210.58868408203125 260.2085876464844 L 211.1486358642578 259.8527526855469 L 211.1486358642578 259.8527526855469 L 212.26853942871094 259.14111328125 L 212.26853942871094 259.14111328125 L 213.9484100341797 258.0736083984375 L 213.9484100341797 258.0736083984375 L 216.74818420410156 256.2944793701172 L 216.74818420410156 256.2944793701172 L 217.86810302734375 255.58282470703125 L 217.86810302734375 255.58282470703125 L 218.98800659179688 254.8711700439453 L 218.98800659179688 254.8711700439453 L 220.66787719726562 253.80368041992188 L 220.66787719726562 253.80368041992188 L 226.26742553710938 250.24539184570312 L 226.26742553710938 250.24539184570312 L 226.82737731933594 249.8895721435547 L 226.82737731933594 249.8895721435547 L 228.5072479248047 248.82208251953125 L 228.5072479248047 248.82208251953125 L 237.46653747558594 243.1288299560547 L 237.46653747558594 243.1288299560547 L 240.82626342773438 240.99386596679688 L 240.82626342773438 240.99386596679688 L 242.50613403320312 239.92637634277344 L 242.50613403320312 239.92637634277344 L 244.74595642089844 238.50306701660156 L 244.74595642089844 238.50306701660156 L 245.305908203125 238.14723205566406 L 245.305908203125 238.14723205566406 L 255.945068359375 231.38650512695312 L 255.945068359375 231.38650512695312 L 258.18487548828125 229.96319580078125 L 258.18487548828125 229.96319580078125 L 266.0242614746094 224.98159790039062 L 266.0242614746094 224.98159790039062 L 269.9439392089844 222.4907989501953 L 269.9439392089844 222.4907989501953 L 271.0638732910156 221.77914428710938 L 271.0638732910156 221.77914428710938 L 274.423583984375 219.6441650390625 L 274.423583984375 219.6441650390625 L 281.14306640625 215.37423706054688 L 281.14306640625 215.37423706054688 L 284.5027770996094 213.2392578125 L 284.5027770996094 213.2392578125 L 285.6227111816406 212.52760314941406 L 285.6227111816406 212.52760314941406 L 287.30255126953125 211.4601287841797 L 287.30255126953125 211.4601287841797 L 287.8625183105469 211.1042938232422 L 287.8625183105469 211.1042938232422 L 291.7821960449219 208.61349487304688 L 291.7821960449219 208.61349487304688 L 296.2618408203125 205.76687622070312 L 296.2618408203125 205.76687622070312 L 298.5016784667969 204.3435516357422 L 298.5016784667969 204.3435516357422 L 303.541259765625 201.14109802246094 L 303.541259765625 201.14109802246094 L 306.3410339355469 199.36196899414062 L 306.3410339355469 199.36196899414062 L 308.58087158203125 197.9386444091797 L 308.58087158203125 197.9386444091797 L 309.1408386230469 197.58282470703125 L 309.1408386230469 197.58282470703125 L 313.6204833984375 194.73619079589844 L 313.6204833984375 194.73619079589844 L 315.3003234863281 193.66871643066406 L 315.3003234863281 193.66871643066406 L 319.22003173828125 191.17791748046875 L 319.22003173828125 191.17791748046875 L 325.9394836425781 186.90797424316406 L 325.9394836425781 186.90797424316406 L 329.8591613769531 184.41717529296875 L 329.8591613769531 184.41717529296875 L 330.41912841796875 184.0613555908203 L 330.41912841796875 184.0613555908203 L 332.6589660644531 182.63803100585938 L 332.6589660644531 182.63803100585938 L 334.8987731933594 181.2147216796875 L 334.8987731933594 181.2147216796875 L 355.0571594238281 168.4049072265625 L 355.0571594238281 168.4049072265625 L 547.6818237304688 46" stroke-opacity="1" stroke-linejoin="bevel" stroke-miterlimit="10" stroke-dasharray="6" clip-path="url(#QnlmcRvwlecs)"/><path fill="none" stroke="rgb(0,0,0)" paint-order="fill" d="M 68.5 350.5 L 570.5 350.5" stroke-opacity="1" stroke-linejoin="bevel" stroke-miterlimit="10" stroke-dasharray=""/><path fill="none" stroke="rgb(0,0,0)" paint-order="fill" d="M 91.5 356.5 L 91.5 348.5 M 182.5 356.5 L 182.5 348.5 M 273.5 356.5 L 273.5 348.5 M 365.5 356.5 L 365.5 348.5 M 456.5 356.5 L 456.5 348.5 M 547.5 356.5 L 547.5 348.5" stroke-opacity="1" stroke-linejoin="bevel" stroke-miterlimit="10" stroke-dasharray=""/><path fill="none" stroke="rgb(0,0,0)" paint-order="fill" d="M 73.5 354.5 L 73.5 350.5 M 91.5 354.5 L 91.5 350.5 M 109.5 354.5 L 109.5 350.5 M 127.5 354.5 L 127.5 350.5 M 146.5 354.5 L 146.5 350.5 M 164.5 354.5 L 164.5 350.5 M 182.5 354.5 L 182.5 350.5 M 200.5 354.5 L 200.5 350.5 M 219.5 354.5 L 219.5 350.5 M 237.5 354.5 L 237.5 350.5 M 255.5 354.5 L 255.5 350.5 M 273.5 354.5 L 273.5 350.5 M 292.5 354.5 L 292.5 350.5 M 310.5 354.5 L 310.5 350.5 M 328.5 354.5 L 328.5 350.5 M 346.5 354.5 L 346.5 350.5 M 365.5 354.5 L 365.5 350.5 M 383.5 354.5 L 383.5 350.5 M 401.5 354.5 L 401.5 350.5 M 419.5 354.5 L 419.5 350.5 M 438.5 354.5 L 438.5 350.5 M 456.5 354.5 L 456.5 350.5 M 474.5 354.5 L 474.5 350.5 M 492.5 354.5 L 492.5 350.5 M 511.5 354.5 L 511.5 350.5 M 529.5 354.5 L 529.5 350.5 M 547.5 354.5 L 547.5 350.5 M 565.5 354.5 L 565.5 350.5" stroke-opacity="1" stroke-linejoin="bevel" stroke-miterlimit="10" stroke-dasharray=""/><text fill="rgb(68,68,68)" stroke="none" font-family="helvetica" font-size="11px" font-style="normal" font-weight="normal" text-decoration="normal" x="82.31818389892578" y="371" text-anchor="start" dominant-baseline="alphabetic" transform="matrix(1, 0, 0, 1, 0.5, 0.5)" fill-opacity="1">0%</text><text fill="rgb(68,68,68)" stroke="none" font-family="helvetica" font-size="11px" font-style="normal" font-weight="normal" text-decoration="normal" x="170.09091186523438" y="371" text-anchor="start" dominant-baseline="alphabetic" transform="matrix(1, 0, 0, 1, 0.5, 0.5)" fill-opacity="1">20%</text><text fill="rgb(68,68,68)" stroke="none" font-family="helvetica" font-size="11px" font-style="normal" font-weight="normal" text-decoration="normal" x="261.3636474609375" y="371" text-anchor="start" dominant-baseline="alphabetic" transform="matrix(1, 0, 0, 1, 0.5, 0.5)" fill-opacity="1">40%</text><text fill="rgb(68,68,68)" stroke="none" font-family="helvetica" font-size="11px" font-style="normal" font-weight="normal" text-decoration="normal" x="352.6363525390625" y="371" text-anchor="start" dominant-baseline="alphabetic" transform="matrix(1, 0, 0, 1, 0.5, 0.5)" fill-opacity="1">60%</text><text fill="rgb(68,68,68)" stroke="none" font-family="helvetica" font-size="11px" font-style="normal" font-weight="normal" text-decoration="normal" x="443.9090881347656" y="371" text-anchor="start" dominant-baseline="alphabetic" transform="matrix(1, 0, 0, 1, 0.5, 0.5)" fill-opacity="1">80%</text><text fill="rgb(68,68,68)" stroke="none" font-family="helvetica" font-size="11px" font-style="normal" font-weight="normal" text-decoration="normal" x="531.6818237304688" y="371" text-anchor="start" dominant-baseline="alphabetic" transform="matrix(1, 0, 0, 1, 0.5, 0.5)" fill-opacity="1">100%</text><text fill="rgb(68,68,68)" stroke="none" font-family="helvetica" font-size="13px" font-style="italic" font-weight="normal" text-decoration="normal" x="257.5" y="394" text-anchor="start" dominant-baseline="alphabetic" transform="matrix(1, 0, 0, 1, 0.5, 0.5)" fill-opacity="1">False Positive Rate</text><path fill="none" stroke="rgb(0,0,0)" paint-order="fill" d="M 68.5 350.5 L 68.5 31.5" stroke-opacity="1" stroke-linejoin="bevel" stroke-miterlimit="10" stroke-dasharray=""/><path fill="none" stroke="rgb(0,0,0)" paint-order="fill" d="M 62.5 336.5 L 70.5 336.5 M 62.5 278.5 L 70.5 278.5 M 62.5 220.5 L 70.5 220.5 M 62.5 162.5 L 70.5 162.5 M 62.5 104.5 L 70.5 104.5 M 62.5 46.5 L 70.5 46.5" stroke-opacity="1" stroke-linejoin="bevel" stroke-miterlimit="10" stroke-dasharray=""/><path fill="none" stroke="rgb(0,0,0)" paint-order="fill" d="M 64.5 347.5 L 68.5 347.5 M 64.5 336.5 L 68.5 336.5 M 64.5 324.5 L 68.5 324.5 M 64.5 312.5 L 68.5 312.5 M 64.5 301.5 L 68.5 301.5 M 64.5 289.5 L 68.5 289.5 M 64.5 278.5 L 68.5 278.5 M 64.5 266.5 L 68.5 266.5 M 64.5 254.5 L 68.5 254.5 M 64.5 243.5 L 68.5 243.5 M 64.5 231.5 L 68.5 231.5 M 64.5 220.5 L 68.5 220.5 M 64.5 208.5 L 68.5 208.5 M 64.5 196.5 L 68.5 196.5 M 64.5 185.5 L 68.5 185.5 M 64.5 173.5 L 68.5 173.5 M 64.5 162.5 L 68.5 162.5 M 64.5 150.5 L 68.5 150.5 M 64.5 138.5 L 68.5 138.5 M 64.5 127.5 L 68.5 127.5 M 64.5 115.5 L 68.5 115.5 M 64.5 104.5 L 68.5 104.5 M 64.5 92.5 L 68.5 92.5 M 64.5 80.5 L 68.5 80.5 M 64.5 69.5 L 68.5 69.5 M 64.5 57.5 L 68.5 57.5 M 64.5 46.5 L 68.5 46.5 M 64.5 34.5 L 68.5 34.5" stroke-opacity="1" stroke-linejoin="bevel" stroke-miterlimit="10" stroke-dasharray=""/><text fill="rgb(68,68,68)" stroke="none" font-family="helvetica" font-size="11px" font-style="normal" font-weight="normal" text-decoration="normal" x="40" y="339" text-anchor="start" dominant-baseline="alphabetic" transform="matrix(1, 0, 0, 1, 0.5, 0.5)" fill-opacity="1">0%</text><text fill="rgb(68,68,68)" stroke="none" font-family="helvetica" font-size="11px" font-style="normal" font-weight="normal" text-decoration="normal" x="33" y="281" text-anchor="start" dominant-baseline="alphabetic" transform="matrix(1, 0, 0, 1, 0.5, 0.5)" fill-opacity="1">20%</text><text fill="rgb(68,68,68)" stroke="none" font-family="helvetica" font-size="11px" font-style="normal" font-weight="normal" text-decoration="normal" x="33" y="223" text-anchor="start" dominant-baseline="alphabetic" transform="matrix(1, 0, 0, 1, 0.5, 0.5)" fill-opacity="1">40%</text><text fill="rgb(68,68,68)" stroke="none" font-family="helvetica" font-size="11px" font-style="normal" font-weight="normal" text-decoration="normal" x="33" y="165" text-anchor="start" dominant-baseline="alphabetic" transform="matrix(1, 0, 0, 1, 0.5, 0.5)" fill-opacity="1">60%</text><text fill="rgb(68,68,68)" stroke="none" font-family="helvetica" font-size="11px" font-style="normal" font-weight="normal" text-decoration="normal" x="33" y="107" text-anchor="start" dominant-baseline="alphabetic" transform="matrix(1, 0, 0, 1, 0.5, 0.5)" fill-opacity="1">80%</text><text fill="rgb(68,68,68)" stroke="none" font-family="helvetica" font-size="11px" font-style="normal" font-weight="normal" text-decoration="normal" x="26" y="49" text-anchor="start" dominant-baseline="alphabetic" transform="matrix(1, 0, 0, 1, 0.5, 0.5)" fill-opacity="1">100%</text><text fill="rgb(68,68,68)" stroke="none" font-family="helvetica" font-size="13px" font-style="italic" font-weight="normal" text-decoration="normal" x="-40.5" y="187.5" text-anchor="start" dominant-baseline="alphabetic" transform="matrix(6.123233995736766e-17, -1, 1, 6.123233995736766e-17, -172, 209)" fill-opacity="1">True Positive Rate</text><path fill="rgb(255,255,255)" stroke="rgb(229,229,229)" paint-order="fill" d="M 424.5 300.5 L 560.5 300.5 L 560.5 340.5 L 424.5 340.5 L 424.5 300.5" fill-opacity="0.9490196078431372" clip-path="url(#qRmLFwkzZCcO)" stroke-opacity="0.5019607843137255" stroke-linejoin="bevel" stroke-miterlimit="10" stroke-dasharray=""/><g clip-path="url(#qRmLFwkzZCcO)"><text fill="rgb(68,68,68)" stroke="none" font-family="helvetica" font-size="8pt" font-style="normal" font-weight="normal" text-decoration="normal" x="459" y="320" text-anchor="start" dominant-baseline="central" transform="matrix(1, 0, 0, 1, 0.5, 0.5)" fill-opacity="1">AUROC: 93.98%</text></g><path fill="none" stroke="rgb(255,127,80)" paint-order="fill" d="M 434.5 320.5 L 454.5 320.5" stroke-opacity="1" stroke-linejoin="bevel" stroke-miterlimit="10" stroke-width="1.5" stroke-dasharray="" clip-path="url(#qRmLFwkzZCcO)"/><text fill="rgb(68,68,68)" stroke="none" font-family="helvetica" font-size="12pt" font-style="normal" font-weight="bold" text-decoration="normal" x="208" y="22" text-anchor="start" dominant-baseline="alphabetic" transform="matrix(1, 0, 0, 1, 0.5, 0.5)" fill-opacity="1">AutoEncoder: ROC Curve</text></svg>