<svg version="1.1" xmlns="http://www.w3.org/2000/svg" width="600" height="400"><defs><clipPath id="zTqoDwfEybAK"><path fill="none" stroke="none" d="M 68.5 31.5 L 570.5 31.5 L 570.5 350.5 L 68.5 350.5 L 68.5 31.5"/></clipPath><clipPath id="avkmGPbmodIn"><path fill="none" stroke="none" d="M 68.5 31.5 L 570.5 31.5 L 570.5 350.5 L 68.5 350.5 L 68.5 31.5"/></clipPath><clipPath id="qqpzyABVOnqL"><path fill="none" stroke="none" d="M 68.5 31.5 L 570.5 31.5 L 570.5 350.5 L 68.5 350.5 L 68.5 31.5"/></clipPath><clipPath id="PznFGCFqaonL"><path fill="none" stroke="none" d="M 68.5 31.5 L 570.5 31.5 L 570.5 350.5 L 68.5 350.5 L 68.5 31.5"/></clipPath><clipPath id="cmqOyDPFaoRl"><path fill="none" stroke="none" d="M 68.5 31.5 L 570.5 31.5 L 570.5 350.5 L 68.5 350.5 L 68.5 31.5"/></clipPath><clipPath id="sWRSkxtkZKVy"><path fill="none" stroke="none" d="M 68.5 31.5 L 570.5 31.5 L 570.5 350.5 L 68.5 350.5 L 68.5 31.5"/></clipPath></defs><path fill="rgb(255,255,255)" stroke="none" paint-order="stroke" d="M 0.5 0.5 L 600.5 0.5 L 600.5 400.5 L 0.5 400.5 L 0.5 0.5" fill-opacity="1"/><rect fill="#FFFFFF" stroke="none" x="68" y="31" width="502" height="319" transform="matrix(1, 0, 0, 1, 0.5, 0.5)"/><path fill="rgb(255,255,255)" stroke="none" paint-order="stroke" d="M 68.5 31.5 L 570.5 31.5 L 570.5 350.5 L 68.5 350.5 L 68.5 31.5" fill-opacity="1"/><path fill="none" stroke="rgb(229,229,229)" paint-order="fill" d="M 68.5 31.5 L 570.5 31.5 L 570.5 350.5 L 68.5 350.5 L 68.5 31.5" stroke-opacity="1" stroke-linejoin="bevel" stroke-miterlimit="10" stroke-dasharray=""/><path fill="none" stroke="rgb(229,229,229)" paint-order="fill" d="M 68.5 336.5 L 570.5 336.5 M 68.5 278.5 L 570.5 278.5 M 68.5 220.5 L 570.5 220.5 M 68.5 162.5 L 570.5 162.5 M 68.5 104.5 L 570.5 104.5 M 68.5 46.5 L 570.5 46.5" stroke-opacity="1" stroke-linejoin="bevel" stroke-miterlimit="10" stroke-dasharray="" clip-path="url(#avkmGPbmodIn)"/><path fill="none" stroke="rgb(255,127,80)" paint-order="fill" d="M 91.31818389892578 336 L 91.31818389892578 335.8033752441406 L 91.31818389892578 300.2169494628906 L 91.87813568115234 300.2169494628906 L 91.87813568115234 290.1898193359375 L 92.43809509277344 290.1898193359375 L 92.43809509277344 261.28814697265625 L 92.998046875 261.28814697265625 L 92.998046875 258.1423645019531 L 93.5580062866211 258.1423645019531 L 93.5580062866211 257.3559265136719 L 94.11795806884766 257.3559265136719 L 94.11795806884766 256.96270751953125 L 94.67791748046875 256.96270751953125 L 94.67791748046875 255.9796600341797 L 95.23786926269531 255.9796600341797 L 95.23786926269531 254.8000030517578 L 95.7978286743164 254.8000030517578 L 95.7978286743164 252.04745483398438 L 96.35778045654297 252.04745483398438 L 96.35778045654297 249.4915313720703 L 96.91773223876953 249.4915313720703 L 96.91773223876953 248.11524963378906 L 97.47769165039062 248.11524963378906 L 97.47769165039062 247.52542114257812 L 98.03764343261719 247.52542114257812 L 98.03764343261719 246.9355926513672 L 98.59760284423828 246.9355926513672 L 98.59760284423828 238.48135375976562 L 99.15755462646484 238.48135375976562 L 99.15755462646484 232.5830535888672 L 99.71751403808594 232.5830535888672 L 99.71751403808594 228.25762939453125 L 100.2774658203125 228.25762939453125 L 100.2774658203125 226.09490966796875 L 100.8374252319336 226.09490966796875 L 100.8374252319336 225.3084716796875 L 101.39737701416016 225.3084716796875 L 101.39737701416016 224.52203369140625 L 102.51728820800781 224.52203369140625 L 102.51728820800781 222.55593872070312 L 103.0772476196289 222.55593872070312 L 103.0772476196289 219.60678100585938 L 103.63719940185547 219.60678100585938 L 103.63719940185547 215.28135681152344 L 104.19715881347656 215.28135681152344 L 104.19715881347656 212.7254180908203 L 104.75711059570312 212.7254180908203 L 104.75711059570312 210.9559326171875 L 105.31707000732422 210.9559326171875 L 105.31707000732422 208.20338439941406 L 105.87702178955078 208.20338439941406 L 105.87702178955078 206.04067993164062 L 106.43697357177734 206.04067993164062 L 106.43697357177734 203.2881317138672 L 106.99693298339844 203.2881317138672 L 106.99693298339844 199.5525360107422 L 107.556884765625 199.5525360107422 L 107.556884765625 197.19322204589844 L 108.67679595947266 197.19322204589844 L 108.67679595947266 196.8000030517578 L 109.23675537109375 196.8000030517578 L 109.23675537109375 196.01356506347656 L 109.79670715332031 196.01356506347656 L 109.79670715332031 195.22711181640625 L 110.3566665649414 195.22711181640625 L 110.3566665649414 190.705078125 L 110.91661834716797 190.705078125 L 110.91661834716797 190.11524963378906 L 112.03652954101562 190.11524963378906 L 112.03652954101562 189.52542114257812 L 112.59648895263672 189.52542114257812 L 112.59648895263672 186.37965393066406 L 113.71640014648438 186.37965393066406 L 113.71640014648438 184.80677795410156 L 114.27635192871094 184.80677795410156 L 114.27635192871094 182.05422973632812 L 114.83631134033203 182.05422973632812 L 114.83631134033203 177.72882080078125 L 115.3962631225586 177.72882080078125 L 115.3962631225586 176.94236755371094 L 115.95621490478516 176.94236755371094 L 115.95621490478516 176.74575805664062 L 116.51617431640625 176.74575805664062 L 116.51617431640625 171.2406768798828 L 117.07612609863281 171.2406768798828 L 117.07612609863281 170.45423889160156 L 117.6360855102539 170.45423889160156 L 117.6360855102539 170.25762939453125 L 118.19603729248047 170.25762939453125 L 118.19603729248047 170.06101989746094 L 118.75599670410156 170.06101989746094 L 118.75599670410156 169.07797241210938 L 119.31594848632812 169.07797241210938 L 119.31594848632812 168.09490966796875 L 119.87590789794922 168.09490966796875 L 119.87590789794922 167.70169067382812 L 120.43585968017578 167.70169067382812 L 120.43585968017578 166.32542419433594 L 120.99581909179688 166.32542419433594 L 120.99581909179688 164.94915771484375 L 121.55577087402344 164.94915771484375 L 121.55577087402344 163.5728759765625 L 122.6756820678711 163.5728759765625 L 122.6756820678711 161.41017150878906 L 123.23564147949219 161.41017150878906 L 123.23564147949219 159.05084228515625 L 123.79559326171875 159.05084228515625 L 123.79559326171875 158.85423278808594 L 124.35555267333984 158.85423278808594 L 124.35555267333984 158.0677947998047 L 124.9155044555664 158.0677947998047 L 124.9155044555664 157.08474731445312 L 125.4754638671875 157.08474731445312 L 125.4754638671875 155.11863708496094 L 126.03541564941406 155.11863708496094 L 126.03541564941406 152.36610412597656 L 126.59536743164062 152.36610412597656 L 126.59536743164062 140.17626953125 L 127.15532684326172 140.17626953125 L 127.15532684326172 134.27796936035156 L 127.71527862548828 134.27796936035156 L 127.71527862548828 130.9355926513672 L 128.27523803710938 130.9355926513672 L 128.27523803710938 129.3627166748047 L 129.3951416015625 129.3627166748047 L 129.3951416015625 129.16610717773438 L 129.95510864257812 129.16610717773438 L 129.95510864257812 127.00338745117188 L 130.5150604248047 127.00338745117188 L 130.5150604248047 126.41355895996094 L 131.07501220703125 126.41355895996094 L 131.07501220703125 124.05423736572266 L 131.6349639892578 124.05423736572266 L 131.6349639892578 123.85762786865234 L 132.19493103027344 123.85762786865234 L 132.19493103027344 122.48135375976562 L 132.7548828125 122.48135375976562 L 132.7548828125 116.7796630859375 L 133.31483459472656 116.7796630859375 L 133.31483459472656 115.7966079711914 L 133.87478637695312 115.7966079711914 L 133.87478637695312 114.61695098876953 L 134.43475341796875 114.61695098876953 L 134.43475341796875 113.24067687988281 L 134.9947052001953 113.24067687988281 L 134.9947052001953 111.66779327392578 L 135.55465698242188 111.66779327392578 L 135.55465698242188 111.27457427978516 L 136.674560546875 111.27457427978516 L 136.674560546875 108.52203369140625 L 137.7944793701172 108.52203369140625 L 137.7944793701172 107.735595703125 L 138.35443115234375 107.735595703125 L 138.35443115234375 105.96610260009766 L 138.9143829345703 105.96610260009766 L 138.9143829345703 105.76949310302734 L 140.0343017578125 105.76949310302734 L 140.0343017578125 104.98304748535156 L 140.59425354003906 104.98304748535156 L 140.59425354003906 104.78643798828125 L 141.15420532226562 104.78643798828125 L 141.15420532226562 101.4440689086914 L 141.71417236328125 101.4440689086914 L 141.71417236328125 100.46101379394531 L 143.39402770996094 100.46101379394531 L 143.39402770996094 98.49491882324219 L 144.51394653320312 98.49491882324219 L 144.51394653320312 97.7084732055664 L 145.0738983154297 97.7084732055664 L 145.0738983154297 97.31525421142578 L 145.63385009765625 97.31525421142578 L 145.63385009765625 96.13558959960938 L 146.1938018798828 96.13558959960938 L 146.1938018798828 95.93898010253906 L 147.313720703125 95.93898010253906 L 147.313720703125 95.74237060546875 L 147.87367248535156 95.74237060546875 L 147.87367248535156 94.9559326171875 L 148.43362426757812 94.9559326171875 L 148.43362426757812 94.75932312011719 L 148.99359130859375 94.75932312011719 L 148.99359130859375 94.56271362304688 L 149.5535430908203 94.56271362304688 L 149.5535430908203 93.57965850830078 L 150.11349487304688 93.57965850830078 L 150.11349487304688 92.98983001708984 L 150.67344665527344 92.98983001708984 L 150.67344665527344 92.79322052001953 L 151.23341369628906 92.79322052001953 L 151.23341369628906 89.25423431396484 L 152.3533172607422 89.25423431396484 L 152.3533172607422 88.4677963256836 L 153.47323608398438 88.4677963256836 L 153.47323608398438 88.27118682861328 L 154.03318786621094 88.27118682861328 L 154.03318786621094 87.28813934326172 L 154.5931396484375 87.28813934326172 L 154.5931396484375 87.09152221679688 L 155.15309143066406 87.09152221679688 L 155.15309143066406 86.89491271972656 L 156.27301025390625 86.89491271972656 L 156.27301025390625 84.53559112548828 L 156.8329620361328 84.53559112548828 L 156.8329620361328 84.14237213134766 L 157.39291381835938 84.14237213134766 L 157.39291381835938 82.56948852539062 L 157.95286560058594 82.56948852539062 L 157.95286560058594 81.19322204589844 L 158.51283264160156 81.19322204589844 L 158.51283264160156 80.6033935546875 L 161.31260681152344 80.6033935546875 L 161.31260681152344 80.01355743408203 L 163.55242919921875 80.01355743408203 L 163.55242919921875 78.83390045166016 L 164.1123809814453 78.83390045166016 L 164.1123809814453 78.63729095458984 L 168.59202575683594 78.63729095458984 L 168.59202575683594 78.24406433105469 L 169.1519775390625 78.24406433105469 L 169.1519775390625 76.08135223388672 L 170.2718963623047 76.08135223388672 L 170.2718963623047 75.8847427368164 L 170.83184814453125 75.8847427368164 L 170.83184814453125 75.6881332397461 L 171.95175170898438 75.6881332397461 L 171.95175170898438 75.29491424560547 L 172.51171875 75.29491424560547 L 172.51171875 74.90169525146484 L 173.63162231445312 74.90169525146484 L 173.63162231445312 74.70508575439453 L 174.1915740966797 74.70508575439453 L 174.1915740966797 73.91864776611328 L 174.7515411376953 73.91864776611328 L 174.7515411376953 73.72203063964844 L 175.87144470214844 73.72203063964844 L 175.87144470214844 73.1322021484375 L 176.431396484375 73.1322021484375 L 176.431396484375 72.14915466308594 L 176.99134826660156 72.14915466308594 L 176.99134826660156 71.95254516601562 L 177.5513153076172 71.95254516601562 L 177.5513153076172 70.77288055419922 L 179.23117065429688 70.77288055419922 L 179.23117065429688 70.18305206298828 L 179.7911376953125 70.18305206298828 L 179.7911376953125 69.78983306884766 L 180.91104125976562 69.78983306884766 L 180.91104125976562 69.59322357177734 L 181.4709930419922 69.59322357177734 L 181.4709930419922 69.19999694824219 L 183.7108154296875 69.19999694824219 L 183.7108154296875 69.00338745117188 L 184.8307342529297 69.00338745117188 L 184.8307342529297 68.61016845703125 L 185.39068603515625 68.61016845703125 L 185.39068603515625 68.21694946289062 L 185.9506378173828 68.21694946289062 L 185.9506378173828 67.82373046875 L 186.51058959960938 67.82373046875 L 186.51058959960938 67.43051147460938 L 187.070556640625 67.43051147460938 L 187.070556640625 66.8406753540039 L 187.63050842285156 66.8406753540039 L 187.63050842285156 66.6440658569336 L 188.7504119873047 66.6440658569336 L 188.7504119873047 66.25084686279297 L 190.43028259277344 66.25084686279297 L 190.43028259277344 66.05423736572266 L 190.990234375 66.05423736572266 L 190.990234375 65.85762786865234 L 192.67010498046875 65.85762786865234 L 192.67010498046875 65.66101837158203 L 193.79002380371094 65.66101837158203 L 193.79002380371094 65.2677993774414 L 194.3499755859375 65.2677993774414 L 194.3499755859375 65.0711898803711 L 195.46987915039062 65.0711898803711 L 195.46987915039062 64.48135757446289 L 197.14974975585938 64.48135757446289 L 197.14974975585938 64.28474426269531 L 199.3895721435547 64.28474426269531 L 199.3895721435547 63.694915771484375 L 199.94952392578125 63.694915771484375 L 199.94952392578125 63.10508346557617 L 201.06944274902344 63.10508346557617 L 201.06944274902344 62.90847396850586 L 202.74929809570312 62.90847396850586 L 202.74929809570312 62.71186447143555 L 203.30926513671875 62.71186447143555 L 203.30926513671875 62.31864547729492 L 209.46876525878906 62.31864547729492 L 209.46876525878906 61.532203674316406 L 210.58868408203125 61.532203674316406 L 210.58868408203125 61.335594177246094 L 212.26853942871094 61.335594177246094 L 212.26853942871094 60.9423713684082 L 213.38845825195312 60.9423713684082 L 213.38845825195312 60.54915237426758 L 215.06832885742188 60.54915237426758 L 215.06832885742188 60.15593338012695 L 215.62828063964844 60.15593338012695 L 215.62828063964844 59.76271057128906 L 217.30813598632812 59.76271057128906 L 217.30813598632812 59.172882080078125 L 217.86810302734375 59.172882080078125 L 217.86810302734375 58.779659271240234 L 218.4280548095703 58.779659271240234 L 218.4280548095703 58.58304977416992 L 218.98800659179688 58.58304977416992 L 218.98800659179688 58.38644027709961 L 219.54795837402344 58.38644027709961 L 219.54795837402344 58.1898307800293 L 220.10792541503906 58.1898307800293 L 220.10792541503906 57.79661178588867 L 220.66787719726562 57.79661178588867 L 220.66787719726562 57.599998474121094 L 221.78778076171875 57.599998474121094 L 221.78778076171875 57.20677947998047 L 222.90769958496094 57.20677947998047 L 222.90769958496094 57.010169982910156 L 223.4676513671875 57.010169982910156 L 223.4676513671875 56.61695098876953 L 225.7074737548828 56.61695098876953 L 225.7074737548828 56.42033767700195 L 229.06719970703125 56.42033767700195 L 229.06719970703125 56.02711868286133 L 230.18711853027344 56.02711868286133 L 230.18711853027344 55.830509185791016 L 232.9868927001953 55.830509185791016 L 232.9868927001953 55.6338996887207 L 233.54684448242188 55.6338996887207 L 233.54684448242188 55.437286376953125 L 234.1068115234375 55.437286376953125 L 234.1068115234375 54.84745788574219 L 234.66676330566406 54.84745788574219 L 234.66676330566406 54.45423889160156 L 238.58644104003906 54.45423889160156 L 238.58644104003906 54.257625579833984 L 239.70635986328125 54.257625579833984 L 239.70635986328125 54.06101608276367 L 240.2663116455078 54.06101608276367 L 240.2663116455078 53.86440658569336 L 241.94618225097656 53.86440658569336 L 241.94618225097656 53.471187591552734 L 243.6260528564453 53.471187591552734 L 243.6260528564453 53.27457809448242 L 244.18600463867188 53.27457809448242 L 244.18600463867188 53.077964782714844 L 244.74595642089844 53.077964782714844 L 244.74595642089844 52.88135528564453 L 245.305908203125 52.88135528564453 L 245.305908203125 52.68474578857422 L 245.86585998535156 52.68474578857422 L 245.86585998535156 52.488136291503906 L 249.78555297851562 52.488136291503906 L 249.78555297851562 52.291526794433594 L 250.3455047607422 52.291526794433594 L 250.3455047607422 52.094913482666016 L 253.14529418945312 52.094913482666016 L 253.14529418945312 51.8983039855957 L 256.5050048828125 51.8983039855957 L 256.5050048828125 51.70169448852539 L 257.0649719238281 51.70169448852539 L 257.0649719238281 51.50508499145508 L 259.3048095703125 51.50508499145508 L 259.3048095703125 51.308475494384766 L 260.4247131347656 51.308475494384766 L 260.4247131347656 51.11186599731445 L 260.9846496582031 51.11186599731445 L 260.9846496582031 50.71864318847656 L 262.1045837402344 50.71864318847656 L 262.1045837402344 50.32542419433594 L 264.90435791015625 50.32542419433594 L 264.90435791015625 49.93220520019531 L 266.0242614746094 49.93220520019531 L 266.0242614746094 49.735591888427734 L 278.9032287597656 49.735591888427734 L 278.9032287597656 49.53898239135742 L 283.9428405761719 49.53898239135742 L 283.9428405761719 49.34237289428711 L 287.30255126953125 49.34237289428711 L 287.30255126953125 49.1457633972168 L 293.4620666503906 49.1457633972168 L 293.4620666503906 48.949153900146484 L 295.701904296875 48.949153900146484 L 295.701904296875 48.752540588378906 L 302.4213562011719 48.752540588378906 L 302.4213562011719 48.555931091308594 L 304.1012268066406 48.555931091308594 L 304.1012268066406 48.16271209716797 L 304.66119384765625 48.16271209716797 L 304.66119384765625 47.966102600097656 L 308.0209045410156 47.966102600097656 L 308.0209045410156 47.769493103027344 L 310.8206787109375 47.769493103027344 L 310.8206787109375 47.572879791259766 L 311.94061279296875 47.572879791259766 L 311.94061279296875 47.37627029418945 L 314.7403869628906 47.37627029418945 L 314.7403869628906 47.17966079711914 L 323.6996765136719 47.17966079711914 L 323.6996765136719 46.98305130004883 L 324.2596130371094 46.98305130004883 L 324.2596130371094 46.786441802978516 L 329.2992248535156 46.786441802978516 L 329.2992248535156 46.5898323059082 L 330.9790954589844 46.5898323059082 L 330.9790954589844 46.393218994140625 L 338.2585144042969 46.393218994140625 L 338.2585144042969 46.19660949707031 L 343.298095703125 46.19660949707031 L 344.4179992675781 46.19660949707031 L 348.89764404296875 46.19660949707031 L 348.89764404296875 46 L 547.6818237304688 46" stroke-opacity="1" stroke-linejoin="bevel" stroke-miterlimit="10" stroke-width="1.5" stroke-dasharray="" clip-path="url(#qqpzyABVOnqL)"/><path fill="none" stroke="rgb(0,0,0)" paint-order="fill" d="M 91.31818389892578 336 L 91.31818389892578 336 L 91.31818389892578 336 L 91.87813568115234 335.6441650390625 L 91.87813568115234 335.6441650390625 L 92.43809509277344 335.288330078125 L 92.43809509277344 335.288330078125 L 92.998046875 334.9325256347656 L 92.998046875 334.9325256347656 L 93.5580062866211 334.5766906738281 L 93.5580062866211 334.5766906738281 L 94.11795806884766 334.2208557128906 L 94.11795806884766 334.2208557128906 L 94.67791748046875 333.8650207519531 L 94.67791748046875 333.8650207519531 L 95.23786926269531 333.50921630859375 L 95.23786926269531 333.50921630859375 L 95.7978286743164 333.15338134765625 L 95.7978286743164 333.15338134765625 L 96.35778045654297 332.79754638671875 L 96.35778045654297 332.79754638671875 L 96.91773223876953 332.44171142578125 L 96.91773223876953 332.44171142578125 L 97.47769165039062 332.08587646484375 L 97.47769165039062 332.08587646484375 L 98.03764343261719 331.7300720214844 L 98.03764343261719 331.7300720214844 L 98.59760284423828 331.3742370605469 L 98.59760284423828 331.3742370605469 L 99.15755462646484 331.0184020996094 L 99.15755462646484 331.0184020996094 L 99.71751403808594 330.6625671386719 L 99.71751403808594 330.6625671386719 L 100.2774658203125 330.3067626953125 L 100.2774658203125 330.3067626953125 L 100.8374252319336 329.950927734375 L 100.8374252319336 329.950927734375 L 101.39737701416016 329.5950927734375 L 101.39737701416016 329.5950927734375 L 102.51728820800781 328.8834228515625 L 102.51728820800781 328.8834228515625 L 103.0772476196289 328.5276184082031 L 103.0772476196289 328.5276184082031 L 103.63719940185547 328.1717834472656 L 103.63719940185547 328.1717834472656 L 104.19715881347656 327.8159484863281 L 104.19715881347656 327.8159484863281 L 104.75711059570312 327.4601135253906 L 104.75711059570312 327.4601135253906 L 105.31707000732422 327.10430908203125 L 105.31707000732422 327.10430908203125 L 105.87702178955078 326.74847412109375 L 105.87702178955078 326.74847412109375 L 106.43697357177734 326.39263916015625 L 106.43697357177734 326.39263916015625 L 106.99693298339844 326.03680419921875 L 106.99693298339844 326.03680419921875 L 107.556884765625 325.68096923828125 L 107.556884765625 325.68096923828125 L 108.67679595947266 324.9693298339844 L 108.67679595947266 324.9693298339844 L 109.23675537109375 324.6134948730469 L 109.23675537109375 324.6134948730469 L 109.79670715332031 324.2576599121094 L 109.79670715332031 324.2576599121094 L 110.3566665649414 323.90185546875 L 110.3566665649414 323.90185546875 L 110.91661834716797 323.5460205078125 L 110.91661834716797 323.5460205078125 L 112.03652954101562 322.8343505859375 L 112.03652954101562 322.8343505859375 L 112.59648895263672 322.478515625 L 112.59648895263672 322.478515625 L 113.71640014648438 321.7668762207031 L 113.71640014648438 321.7668762207031 L 114.27635192871094 321.4110412597656 L 114.27635192871094 321.4110412597656 L 114.83631134033203 321.0552062988281 L 114.83631134033203 321.0552062988281 L 115.3962631225586 320.6993713378906 L 115.3962631225586 320.6993713378906 L 115.95621490478516 320.34356689453125 L 115.95621490478516 320.34356689453125 L 116.51617431640625 319.98773193359375 L 116.51617431640625 319.98773193359375 L 117.07612609863281 319.63189697265625 L 117.07612609863281 319.63189697265625 L 117.6360855102539 319.27606201171875 L 117.6360855102539 319.27606201171875 L 118.19603729248047 318.9202575683594 L 118.19603729248047 318.9202575683594 L 118.75599670410156 318.5644226074219 L 118.75599670410156 318.5644226074219 L 119.31594848632812 318.2085876464844 L 119.31594848632812 318.2085876464844 L 119.87590789794922 317.8527526855469 L 119.87590789794922 317.8527526855469 L 120.43585968017578 317.4969177246094 L 120.43585968017578 317.4969177246094 L 120.99581909179688 317.14111328125 L 120.99581909179688 317.14111328125 L 121.55577087402344 316.7852783203125 L 121.55577087402344 316.7852783203125 L 122.6756820678711 316.0736083984375 L 122.6756820678711 316.0736083984375 L 123.23564147949219 315.7178039550781 L 123.23564147949219 315.7178039550781 L 123.79559326171875 315.3619689941406 L 123.79559326171875 315.3619689941406 L 124.35555267333984 315.0061340332031 L 124.35555267333984 315.0061340332031 L 124.9155044555664 314.6502990722656 L 124.9155044555664 314.6502990722656 L 125.4754638671875 314.2944641113281 L 125.4754638671875 314.2944641113281 L 126.03541564941406 313.93865966796875 L 126.03541564941406 313.93865966796875 L 126.59536743164062 313.58282470703125 L 126.59536743164062 313.58282470703125 L 127.15532684326172 313.22698974609375 L 127.15532684326172 313.22698974609375 L 127.71527862548828 312.87115478515625 L 127.71527862548828 312.87115478515625 L 128.27523803710938 312.5153503417969 L 128.27523803710938 312.5153503417969 L 129.3951416015625 311.8036804199219 L 129.3951416015625 311.8036804199219 L 129.95510864257812 311.4478454589844 L 129.95510864257812 311.4478454589844 L 130.5150604248047 311.0920104980469 L 130.5150604248047 311.0920104980469 L 131.07501220703125 310.7362060546875 L 131.07501220703125 310.7362060546875 L 131.6349639892578 310.38037109375 L 131.6349639892578 310.38037109375 L 132.19493103027344 310.0245361328125 L 132.19493103027344 310.0245361328125 L 132.7548828125 309.668701171875 L 132.7548828125 309.668701171875 L 133.31483459472656 309.3128967285156 L 133.31483459472656 309.3128967285156 L 133.87478637695312 308.9570617675781 L 133.87478637695312 308.9570617675781 L 134.43475341796875 308.6012268066406 L 134.43475341796875 308.6012268066406 L 134.9947052001953 308.2453918457031 L 134.9947052001953 308.2453918457031 L 135.55465698242188 307.8895568847656 L 135.55465698242188 307.8895568847656 L 136.674560546875 307.17791748046875 L 136.674560546875 307.17791748046875 L 137.7944793701172 306.46624755859375 L 137.7944793701172 306.46624755859375 L 138.35443115234375 306.1104431152344 L 138.35443115234375 306.1104431152344 L 138.9143829345703 305.7546081542969 L 138.9143829345703 305.7546081542969 L 140.0343017578125 305.0429382324219 L 140.0343017578125 305.0429382324219 L 140.59425354003906 304.6871032714844 L 140.59425354003906 304.6871032714844 L 141.15420532226562 304.331298828125 L 141.15420532226562 304.331298828125 L 141.71417236328125 303.9754638671875 L 141.71417236328125 303.9754638671875 L 143.39402770996094 302.9079895019531 L 143.39402770996094 302.9079895019531 L 144.51394653320312 302.1963195800781 L 144.51394653320312 302.1963195800781 L 145.0738983154297 301.8404846191406 L 145.0738983154297 301.8404846191406 L 145.63385009765625 301.4846496582031 L 145.63385009765625 301.4846496582031 L 146.1938018798828 301.12884521484375 L 146.1938018798828 301.12884521484375 L 147.313720703125 300.41717529296875 L 147.313720703125 300.41717529296875 L 147.87367248535156 300.06134033203125 L 147.87367248535156 300.06134033203125 L 148.43362426757812 299.7055358886719 L 148.43362426757812 299.7055358886719 L 148.99359130859375 299.3497009277344 L 148.99359130859375 299.3497009277344 L 149.5535430908203 298.9938659667969 L 149.5535430908203 298.9938659667969 L 150.11349487304688 298.6380310058594 L 150.11349487304688 298.6380310058594 L 150.67344665527344 298.2821960449219 L 150.67344665527344 298.2821960449219 L 151.23341369628906 297.9263916015625 L 151.23341369628906 297.9263916015625 L 152.3533172607422 297.2147216796875 L 152.3533172607422 297.2147216796875 L 153.47323608398438 296.5030822753906 L 153.47323608398438 296.5030822753906 L 154.03318786621094 296.1472473144531 L 154.03318786621094 296.1472473144531 L 154.5931396484375 295.7914123535156 L 154.5931396484375 295.7914123535156 L 155.15309143066406 295.4355773925781 L 155.15309143066406 295.4355773925781 L 156.27301025390625 294.72393798828125 L 156.27301025390625 294.72393798828125 L 156.8329620361328 294.36810302734375 L 156.8329620361328 294.36810302734375 L 157.39291381835938 294.01226806640625 L 157.39291381835938 294.01226806640625 L 157.95286560058594 293.65643310546875 L 157.95286560058594 293.65643310546875 L 158.51283264160156 293.3006286621094 L 158.51283264160156 293.3006286621094 L 161.31260681152344 291.521484375 L 161.31260681152344 291.521484375 L 163.55242919921875 290.09814453125 L 163.55242919921875 290.09814453125 L 164.1123809814453 289.7423400878906 L 164.1123809814453 289.7423400878906 L 168.59202575683594 286.89569091796875 L 168.59202575683594 286.89569091796875 L 169.1519775390625 286.5398864746094 L 169.1519775390625 286.5398864746094 L 170.2718963623047 285.8282165527344 L 170.2718963623047 285.8282165527344 L 170.83184814453125 285.4723815917969 L 170.83184814453125 285.4723815917969 L 171.95175170898438 284.7607421875 L 171.95175170898438 284.7607421875 L 172.51171875 284.4049072265625 L 172.51171875 284.4049072265625 L 173.63162231445312 283.6932373046875 L 173.63162231445312 283.6932373046875 L 174.1915740966797 283.3374328613281 L 174.1915740966797 283.3374328613281 L 174.7515411376953 282.9815979003906 L 174.7515411376953 282.9815979003906 L 175.87144470214844 282.2699279785156 L 175.87144470214844 282.2699279785156 L 176.431396484375 281.91412353515625 L 176.431396484375 281.91412353515625 L 176.99134826660156 281.55828857421875 L 176.99134826660156 281.55828857421875 L 177.5513153076172 281.20245361328125 L 177.5513153076172 281.20245361328125 L 179.23117065429688 280.1349792480469 L 179.23117065429688 280.1349792480469 L 179.7911376953125 279.7791442871094 L 179.7911376953125 279.7791442871094 L 180.91104125976562 279.0674743652344 L 180.91104125976562 279.0674743652344 L 181.4709930419922 278.711669921875 L 181.4709930419922 278.711669921875 L 183.7108154296875 277.288330078125 L 183.7108154296875 277.288330078125 L 184.8307342529297 276.5766906738281 L 184.8307342529297 276.5766906738281 L 185.39068603515625 276.2208557128906 L 185.39068603515625 276.2208557128906 L 185.9506378173828 275.8650207519531 L 185.9506378173828 275.8650207519531 L 186.51058959960938 275.50921630859375 L 186.51058959960938 275.50921630859375 L 187.070556640625 275.15338134765625 L 187.070556640625 275.15338134765625 L 187.63050842285156 274.79754638671875 L 187.63050842285156 274.79754638671875 L 188.7504119873047 274.08587646484375 L 188.7504119873047 274.08587646484375 L 190.43028259277344 273.0184020996094 L 190.43028259277344 273.0184020996094 L 190.990234375 272.6625671386719 L 190.990234375 272.6625671386719 L 192.67010498046875 271.5950927734375 L 192.67010498046875 271.5950927734375 L 193.79002380371094 270.8834228515625 L 193.79002380371094 270.8834228515625 L 194.3499755859375 270.5276184082031 L 194.3499755859375 270.5276184082031 L 195.46987915039062 269.8159484863281 L 195.46987915039062 269.8159484863281 L 197.14974975585938 268.74847412109375 L 197.14974975585938 268.74847412109375 L 199.3895721435547 267.3251647949219 L 199.3895721435547 267.3251647949219 L 199.94952392578125 266.9693298339844 L 199.94952392578125 266.9693298339844 L 201.06944274902344 266.2576599121094 L 201.06944274902344 266.2576599121094 L 202.74929809570312 265.190185546875 L 202.74929809570312 265.190185546875 L 203.30926513671875 264.8343505859375 L 203.30926513671875 264.8343505859375 L 209.46876525878906 260.9202575683594 L 209.46876525878906 260.9202575683594 L 210.58868408203125 260.2085876464844 L 210.58868408203125 260.2085876464844 L 212.26853942871094 259.14111328125 L 212.26853942871094 259.14111328125 L 213.38845825195312 258.429443359375 L 213.38845825195312 258.429443359375 L 215.06832885742188 257.3619689941406 L 215.06832885742188 257.3619689941406 L 215.62828063964844 257.0061340332031 L 215.62828063964844 257.0061340332031 L 217.30813598632812 255.9386444091797 L 217.30813598632812 255.9386444091797 L 217.86810302734375 255.58282470703125 L 217.86810302734375 255.58282470703125 L 218.4280548095703 255.22698974609375 L 218.4280548095703 255.22698974609375 L 218.98800659179688 254.8711700439453 L 218.98800659179688 254.8711700439453 L 219.54795837402344 254.5153350830078 L 219.54795837402344 254.5153350830078 L 220.10792541503906 254.15951538085938 L 220.10792541503906 254.15951538085938 L 220.66787719726562 253.80368041992188 L 220.66787719726562 253.80368041992188 L 221.78778076171875 253.09202575683594 L 221.78778076171875 253.09202575683594 L 222.90769958496094 252.38037109375 L 222.90769958496094 252.38037109375 L 223.4676513671875 252.0245361328125 L 223.4676513671875 252.0245361328125 L 225.7074737548828 250.60122680664062 L 225.7074737548828 250.60122680664062 L 229.06719970703125 248.4662628173828 L 229.06719970703125 248.4662628173828 L 230.18711853027344 247.75460815429688 L 230.18711853027344 247.75460815429688 L 232.9868927001953 245.9754638671875 L 232.9868927001953 245.9754638671875 L 233.54684448242188 245.61962890625 L 233.54684448242188 245.61962890625 L 234.1068115234375 245.26380920410156 L 234.1068115234375 245.26380920410156 L 234.66676330566406 244.90797424316406 L 234.66676330566406 244.90797424316406 L 238.58644104003906 242.41717529296875 L 238.58644104003906 242.41717529296875 L 239.70635986328125 241.7055206298828 L 239.70635986328125 241.7055206298828 L 240.2663116455078 241.3496856689453 L 240.2663116455078 241.3496856689453 L 241.94618225097656 240.28221130371094 L 241.94618225097656 240.28221130371094 L 243.6260528564453 239.2147216796875 L 243.6260528564453 239.2147216796875 L 244.18600463867188 238.85890197753906 L 244.18600463867188 238.85890197753906 L 244.74595642089844 238.50306701660156 L 244.74595642089844 238.50306701660156 L 245.305908203125 238.14723205566406 L 245.305908203125 238.14723205566406 L 245.86585998535156 237.79141235351562 L 245.86585998535156 237.79141235351562 L 249.78555297851562 235.3006134033203 L 249.78555297851562 235.3006134033203 L 250.3455047607422 234.9447784423828 L 250.3455047607422 234.9447784423828 L 253.14529418945312 233.1656494140625 L 253.14529418945312 233.1656494140625 L 256.5050048828125 231.03067016601562 L 256.5050048828125 231.03067016601562 L 257.0649719238281 230.6748504638672 L 257.0649719238281 230.6748504638672 L 259.3048095703125 229.2515411376953 L 259.3048095703125 229.2515411376953 L 260.4247131347656 228.5398712158203 L 260.4247131347656 228.5398712158203 L 260.9846496582031 228.18405151367188 L 260.9846496582031 228.18405151367188 L 262.1045837402344 227.47239685058594 L 262.1045837402344 227.47239685058594 L 264.90435791015625 225.69325256347656 L 264.90435791015625 225.69325256347656 L 266.0242614746094 224.98159790039062 L 266.0242614746094 224.98159790039062 L 278.9032287597656 216.79754638671875 L 278.9032287597656 216.79754638671875 L 283.9428405761719 213.5950927734375 L 283.9428405761719 213.5950927734375 L 287.30255126953125 211.4601287841797 L 287.30255126953125 211.4601287841797 L 293.4620666503906 207.54600524902344 L 293.4620666503906 207.54600524902344 L 295.701904296875 206.12269592285156 L 295.701904296875 206.12269592285156 L 302.4213562011719 201.85276794433594 L 302.4213562011719 201.85276794433594 L 304.1012268066406 200.7852783203125 L 304.1012268066406 200.7852783203125 L 304.66119384765625 200.429443359375 L 304.66119384765625 200.429443359375 L 308.0209045410156 198.2944793701172 L 308.0209045410156 198.2944793701172 L 310.8206787109375 196.5153350830078 L 310.8206787109375 196.5153350830078 L 311.94061279296875 195.80368041992188 L 311.94061279296875 195.80368041992188 L 314.7403869628906 194.0245361328125 L 314.7403869628906 194.0245361328125 L 323.6996765136719 188.33128356933594 L 323.6996765136719 188.33128356933594 L 324.2596130371094 187.9754638671875 L 324.2596130371094 187.9754638671875 L 329.2992248535156 184.77301025390625 L 329.2992248535156 184.77301025390625 L 330.9790954589844 183.7055206298828 L 330.9790954589844 183.7055206298828 L 338.2585144042969 179.0797576904297 L 338.2585144042969 179.0797576904297 L 343.298095703125 175.87730407714844 L 344.4179992675781 175.1656494140625 L 348.89764404296875 172.3190155029297 L 348.89764404296875 172.3190155029297 L 547.6818237304688 46" stroke-opacity="1" stroke-linejoin="bevel" stroke-miterlimit="10" stroke-dasharray="6" clip-path="url(#PznFGCFqaonL)"/><path fill="none" stroke="rgb(0,0,0)" paint-order="fill" d="M 68.5 350.5 L 570.5 350.5" stroke-opacity="1" stroke-linejoin="bevel" stroke-miterlimit="10" stroke-dasharray=""/><path fill="none" stroke="rgb(0,0,0)" paint-order="fill" d="M 91.5 356.5 L 91.5 348.5 M 182.5 356.5 L 182.5 348.5 M 273.5 356.5 L 273.5 348.5 M 365.5 356.5 L 365.5 348.5 M 456.5 356.5 L 456.5 348.5 M 547.5 356.5 L 547.5 348.5" stroke-opacity="1" stroke-linejoin="bevel" stroke-miterlimit="10" stroke-dasharray=""/><path fill="none" stroke="rgb(0,0,0)" paint-order="fill" d="M 73.5 354.5 L 73.5 350.5 M 91.5 354.5 L 91.5 350.5 M 109.5 354.5 L 109.5 350.5 M 127.5 354.5 L 127.5 350.5 M 146.5 354.5 L 146.5 350.5 M 164.5 354.5 L 164.5 350.5 M 182.5 354.5 L 182.5 350.5 M 200.5 354.5 L 200.5 350.5 M 219.5 354.5 L 219.5 350.5 M 237.5 354.5 L 237.5 350.5 M 255.5 354.5 L 255.5 350.5 M 273.5 354.5 L 273.5 350.5 M 292.5 354.5 L 292.5 350.5 M 310.5 354.5 L 310.5 350.5 M 328.5 354.5 L 328.5 350.5 M 346.5 354.5 L 346.5 350.5 M 365.5 354.5 L 365.5 350.5 M 383.5 354.5 L 383.5 350.5 M 401.5 354.5 L 401.5 350.5 M 419.5 354.5 L 419.5 350.5 M 438.5 354.5 L 438.5 350.5 M 456.5 354.5 L 456.5 350.5 M 474.5 354.5 L 474.5 350.5 M 492.5 354.5 L 492.5 350.5 M 511.5 354.5 L 511.5 350.5 M 529.5 354.5 L 529.5 350.5 M 547.5 354.5 L 547.5 350.5 M 565.5 354.5 L 565.5 350.5" stroke-opacity="1" stroke-linejoin="bevel" stroke-miterlimit="10" stroke-dasharray=""/><text fill="rgb(68,68,68)" stroke="none" font-family="helvetica" font-size="11px" font-style="normal" font-weight="normal" text-decoration="normal" x="82.31818389892578" y="371" text-anchor="start" dominant-baseline="alphabetic" transform="matrix(1, 0, 0, 1, 0.5, 0.5)" fill-opacity="1">0%</text><text fill="rgb(68,68,68)" stroke="none" font-family="helvetica" font-size="11px" font-style="normal" font-weight="normal" text-decoration="normal" x="170.09091186523438" y="371" text-anchor="start" dominant-baseline="alphabetic" transform="matrix(1, 0, 0, 1, 0.5, 0.5)" fill-opacity="1">20%</text><text fill="rgb(68,68,68)" stroke="none" font-family="helvetica" font-size="11px" font-style="normal" font-weight="normal" text-decoration="normal" x="261.3636474609375" y="371" text-anchor="start" dominant-baseline="alphabetic" transform="matrix(1, 0, 0, 1, 0.5, 0.5)" fill-opacity="1">40%</text><text fill="rgb(68,68,68)" stroke="none" font-family="helvetica" font-size="11px" font-style="normal" font-weight="normal" text-decoration="normal" x="352.6363525390625" y="371" text-anchor="start" dominant-baseline="alphabetic" transform="matrix(1, 0, 0, 1, 0.5, 0.5)" fill-opacity="1">60%</text><text fill="rgb(68,68,68)" stroke="none" font-family="helvetica" font-size="11px" font-style="normal" font-weight="normal" text-decoration="normal" x="443.9090881347656" y="371" text-anchor="start" dominant-baseline="alphabetic" transform="matrix(1, 0, 0, 1, 0.5, 0.5)" fill-opacity="1">80%</text><text fill="rgb(68,68,68)" stroke="none" font-family="helvetica" font-size="11px" font-style="normal" font-weight="normal" text-decoration="normal" x="531.6818237304688" y="371" text-anchor="start" dominant-baseline="alphabetic" transform="matrix(1, 0, 0, 1, 0.5, 0.5)" fill-opacity="1">100%</text><text fill="rgb(68,68,68)" stroke="none" font-family="helvetica" font-size="13px" font-style="italic" font-weight="normal" text-decoration="normal" x="257.5" y="394" text-anchor="start" dominant-baseline="alphabetic" transform="matrix(1, 0, 0, 1, 0.5, 0.5)" fill-opacity="1">False Positive Rate</text><path fill="none" stroke="rgb(0,0,0)" paint-order="fill" d="M 68.5 350.5 L 68.5 31.5" stroke-opacity="1" stroke-linejoin="bevel" stroke-miterlimit="10" stroke-dasharray=""/><path fill="none" stroke="rgb(0,0,0)" paint-order="fill" d="M 62.5 336.5 L 70.5 336.5 M 62.5 278.5 L 70.5 278.5 M 62.5 220.5 L 70.5 220.5 M 62.5 162.5 L 70.5 162.5 M 62.5 104.5 L 70.5 104.5 M 62.5 46.5 L 70.5 46.5" stroke-opacity="1" stroke-linejoin="bevel" stroke-miterlimit="10" stroke-dasharray=""/><path fill="none" stroke="rgb(0,0,0)" paint-order="fill" d="M 64.5 347.5 L 68.5 347.5 M 64.5 336.5 L 68.5 336.5 M 64.5 324.5 L 68.5 324.5 M 64.5 312.5 L 68.5 312.5 M 64.5 301.5 L 68.5 301.5 M 64.5 289.5 L 68.5 289.5 M 64.5 278.5 L 68.5 278.5 M 64.5 266.5 L 68.5 266.5 M 64.5 254.5 L 68.5 254.5 M 64.5 243.5 L 68.5 243.5 M 64.5 231.5 L 68.5 231.5 M 64.5 220.5 L 68.5 220.5 M 64.5 208.5 L 68.5 208.5 M 64.5 196.5 L 68.5 196.5 M 64.5 185.5 L 68.5 185.5 M 64.5 173.5 L 68.5 173.5 M 64.5 162.5 L 68.5 162.5 M 64.5 150.5 L 68.5 150.5 M 64.5 138.5 L 68.5 138.5 M 64.5 127.5 L 68.5 127.5 M 64.5 115.5 L 68.5 115.5 M 64.5 104.5 L 68.5 104.5 M 64.5 92.5 L 68.5 92.5 M 64.5 80.5 L 68.5 80.5 M 64.5 69.5 L 68.5 69.5 M 64.5 57.5 L 68.5 57.5 M 64.5 46.5 L 68.5 46.5 M 64.5 34.5 L 68.5 34.5" stroke-opacity="1" stroke-linejoin="bevel" stroke-miterlimit="10" stroke-dasharray=""/><text fill="rgb(68,68,68)" stroke="none" font-family="helvetica" font-size="11px" font-style="normal" font-weight="normal" text-decoration="normal" x="40" y="339" text-anchor="start" dominant-baseline="alphabetic" transform="matrix(1, 0, 0, 1, 0.5, 0.5)" fill-opacity="1">0%</text><text fill="rgb(68,68,68)" stroke="none" font-family="helvetica" font-size="11px" font-style="normal" font-weight="normal" text-decoration="normal" x="33" y="281" text-anchor="start" dominant-baseline="alphabetic" transform="matrix(1, 0, 0, 1, 0.5, 0.5)" fill-opacity="1">20%</text><text fill="rgb(68,68,68)" stroke="none" font-family="helvetica" font-size="11px" font-style="normal" font-weight="normal" text-decoration="normal" x="33" y="223" text-anchor="start" dominant-baseline="alphabetic" transform="matrix(1, 0, 0, 1, 0.5, 0.5)" fill-opacity="1">40%</text><text fill="rgb(68,68,68)" stroke="none" font-family="helvetica" font-size="11px" font-style="normal" font-weight="normal" text-decoration="normal" x="33" y="165" text-anchor="start" dominant-baseline="alphabetic" transform="matrix(1, 0, 0, 1, 0.5, 0.5)" fill-opacity="1">60%</text><text fill="rgb(68,68,68)" stroke="none" font-family="helvetica" font-size="11px" font-style="normal" font-weight="normal" text-decoration="normal" x="33" y="107" text-anchor="start" dominant-baseline="alphabetic" transform="matrix(1, 0, 0, 1, 0.5, 0.5)" fill-opacity="1">80%</text><text fill="rgb(68,68,68)" stroke="none" font-family="helvetica" font-size="11px" font-style="normal" font-weight="normal" text-decoration="normal" x="26" y="49" text-anchor="start" dominant-baseline="alphabetic" transform="matrix(1, 0, 0, 1, 0.5, 0.5)" fill-opacity="1">100%</text><text fill="rgb(68,68,68)" stroke="none" font-family="helvetica" font-size="13px" font-style="italic" font-weight="normal" text-decoration="normal" x="-40.5" y="187.5" text-anchor="start" dominant-baseline="alphabetic" transform="matrix(6.123233995736766e-17, -1, 1, 6.123233995736766e-17, -172, 209)" fill-opacity="1">True Positive Rate</text><path fill="rgb(255,255,255)" stroke="rgb(229,229,229)" paint-order="fill" d="M 424.5 300.5 L 560.5 300.5 L 560.5 340.5 L 424.5 340.5 L 424.5 300.5" fill-opacity="0.9490196078431372" clip-path="url(#cmqOyDPFaoRl)" stroke-opacity="0.5019607843137255" stroke-linejoin="bevel" stroke-miterlimit="10" stroke-dasharray=""/><g clip-path="url(#cmqOyDPFaoRl)"><text fill="rgb(68,68,68)" stroke="none" font-family="helvetica" font-size="8pt" font-style="normal" font-weight="normal" text-decoration="normal" x="459" y="320" text-anchor="start" dominant-baseline="central" transform="matrix(1, 0, 0, 1, 0.5, 0.5)" fill-opacity="1">AUROC: 92.96%</text></g><path fill="none" stroke="rgb(255,127,80)" paint-order="fill" d="M 434.5 320.5 L 454.5 320.5" stroke-opacity="1" stroke-linejoin="bevel" stroke-miterlimit="10" stroke-width="1.5" stroke-dasharray="" clip-path="url(#cmqOyDPFaoRl)"/><text fill="rgb(68,68,68)" stroke="none" font-family="helvetica" font-size="12pt" font-style="normal" font-weight="bold" text-decoration="normal" x="208" y="22" text-anchor="start" dominant-baseline="alphabetic" transform="matrix(1, 0, 0, 1, 0.5, 0.5)" fill-opacity="1">AutoEncoder: ROC Curve</text></svg>