<?xml version="1.0" encoding="utf-8" standalone="no"?>
<!DOCTYPE svg PUBLIC "-//W3C//DTD SVG 1.1//EN"
  "http://www.w3.org/Graphics/SVG/1.1/DTD/svg11.dtd">
<svg xmlns:xlink="http://www.w3.org/1999/xlink" width="864pt" height="432pt" viewBox="0 0 864 432" xmlns="http://www.w3.org/2000/svg" version="1.1">
 <metadata>
  <rdf:RDF xmlns:dc="http://purl.org/dc/elements/1.1/" xmlns:cc="http://creativecommons.org/ns#" xmlns:rdf="http://www.w3.org/1999/02/22-rdf-syntax-ns#">
   <cc:Work>
    <dc:type rdf:resource="http://purl.org/dc/dcmitype/StillImage"/>
    <dc:date>2022-04-10T14:03:04.961987</dc:date>
    <dc:format>image/svg+xml</dc:format>
    <dc:creator>
     <cc:Agent>
      <dc:title>Matplotlib v3.5.1, https://matplotlib.org/</dc:title>
     </cc:Agent>
    </dc:creator>
   </cc:Work>
  </rdf:RDF>
 </metadata>
 <defs>
  <style type="text/css">*{stroke-linejoin: round; stroke-linecap: butt}</style>
 </defs>
 <g id="figure_1">
  <g id="patch_1">
   <path d="M 0 432 
L 864 432 
L 864 0 
L 0 0 
z
" style="fill: #fdf6e3"/>
  </g>
  <g id="axes_1">
   <g id="patch_2">
    <path d="M 108 378 
L 777.6 378 
L 777.6 51.84 
L 108 51.84 
z
" style="fill: #eee8d5"/>
   </g>
   <g id="matplotlib.axis_1">
    <g id="xtick_1">
     <g id="line2d_1">
      <path d="M 108 378 
L 108 51.84 
" clip-path="url(#peebd9b5abf)" style="fill: none; stroke: #fdf6e3"/>
     </g>
     <g id="line2d_2">
      <defs>
       <path id="m8678cd0b7b" d="M 0 0 
L 0 3.5 
" style="stroke: #657b83; stroke-width: 0.8"/>
      </defs>
      <g>
       <use xlink:href="#m8678cd0b7b" x="108" y="378" style="fill: #657b83; stroke: #657b83; stroke-width: 0.8"/>
      </g>
     </g>
     <g id="text_1">
      <!-- 0 -->
      <g style="fill: #657b83" transform="translate(104.81875 392.598437)scale(0.1 -0.1)">
       <defs>
        <path id="DejaVuSans-30" d="M 2034 4250 
Q 1547 4250 1301 3770 
Q 1056 3291 1056 2328 
Q 1056 1369 1301 889 
Q 1547 409 2034 409 
Q 2525 409 2770 889 
Q 3016 1369 3016 2328 
Q 3016 3291 2770 3770 
Q 2525 4250 2034 4250 
z
M 2034 4750 
Q 2819 4750 3233 4129 
Q 3647 3509 3647 2328 
Q 3647 1150 3233 529 
Q 2819 -91 2034 -91 
Q 1250 -91 836 529 
Q 422 1150 422 2328 
Q 422 3509 836 4129 
Q 1250 4750 2034 4750 
z
" transform="scale(0.015625)"/>
       </defs>
       <use xlink:href="#DejaVuSans-30"/>
      </g>
     </g>
    </g>
    <g id="xtick_2">
     <g id="line2d_3">
      <path d="M 191.7 378 
L 191.7 51.84 
" clip-path="url(#peebd9b5abf)" style="fill: none; stroke: #fdf6e3"/>
     </g>
     <g id="line2d_4">
      <g>
       <use xlink:href="#m8678cd0b7b" x="191.7" y="378" style="fill: #657b83; stroke: #657b83; stroke-width: 0.8"/>
      </g>
     </g>
     <g id="text_2">
      <!-- 25 -->
      <g style="fill: #657b83" transform="translate(185.3375 392.598437)scale(0.1 -0.1)">
       <defs>
        <path id="DejaVuSans-32" d="M 1228 531 
L 3431 531 
L 3431 0 
L 469 0 
L 469 531 
Q 828 903 1448 1529 
Q 2069 2156 2228 2338 
Q 2531 2678 2651 2914 
Q 2772 3150 2772 3378 
Q 2772 3750 2511 3984 
Q 2250 4219 1831 4219 
Q 1534 4219 1204 4116 
Q 875 4013 500 3803 
L 500 4441 
Q 881 4594 1212 4672 
Q 1544 4750 1819 4750 
Q 2544 4750 2975 4387 
Q 3406 4025 3406 3419 
Q 3406 3131 3298 2873 
Q 3191 2616 2906 2266 
Q 2828 2175 2409 1742 
Q 1991 1309 1228 531 
z
" transform="scale(0.015625)"/>
        <path id="DejaVuSans-35" d="M 691 4666 
L 3169 4666 
L 3169 4134 
L 1269 4134 
L 1269 2991 
Q 1406 3038 1543 3061 
Q 1681 3084 1819 3084 
Q 2600 3084 3056 2656 
Q 3513 2228 3513 1497 
Q 3513 744 3044 326 
Q 2575 -91 1722 -91 
Q 1428 -91 1123 -41 
Q 819 9 494 109 
L 494 744 
Q 775 591 1075 516 
Q 1375 441 1709 441 
Q 2250 441 2565 725 
Q 2881 1009 2881 1497 
Q 2881 1984 2565 2268 
Q 2250 2553 1709 2553 
Q 1456 2553 1204 2497 
Q 953 2441 691 2322 
L 691 4666 
z
" transform="scale(0.015625)"/>
       </defs>
       <use xlink:href="#DejaVuSans-32"/>
       <use xlink:href="#DejaVuSans-35" x="63.623047"/>
      </g>
     </g>
    </g>
    <g id="xtick_3">
     <g id="line2d_5">
      <path d="M 275.4 378 
L 275.4 51.84 
" clip-path="url(#peebd9b5abf)" style="fill: none; stroke: #fdf6e3"/>
     </g>
     <g id="line2d_6">
      <g>
       <use xlink:href="#m8678cd0b7b" x="275.4" y="378" style="fill: #657b83; stroke: #657b83; stroke-width: 0.8"/>
      </g>
     </g>
     <g id="text_3">
      <!-- 50 -->
      <g style="fill: #657b83" transform="translate(269.0375 392.598437)scale(0.1 -0.1)">
       <use xlink:href="#DejaVuSans-35"/>
       <use xlink:href="#DejaVuSans-30" x="63.623047"/>
      </g>
     </g>
    </g>
    <g id="xtick_4">
     <g id="line2d_7">
      <path d="M 359.1 378 
L 359.1 51.84 
" clip-path="url(#peebd9b5abf)" style="fill: none; stroke: #fdf6e3"/>
     </g>
     <g id="line2d_8">
      <g>
       <use xlink:href="#m8678cd0b7b" x="359.1" y="378" style="fill: #657b83; stroke: #657b83; stroke-width: 0.8"/>
      </g>
     </g>
     <g id="text_4">
      <!-- 75 -->
      <g style="fill: #657b83" transform="translate(352.7375 392.598437)scale(0.1 -0.1)">
       <defs>
        <path id="DejaVuSans-37" d="M 525 4666 
L 3525 4666 
L 3525 4397 
L 1831 0 
L 1172 0 
L 2766 4134 
L 525 4134 
L 525 4666 
z
" transform="scale(0.015625)"/>
       </defs>
       <use xlink:href="#DejaVuSans-37"/>
       <use xlink:href="#DejaVuSans-35" x="63.623047"/>
      </g>
     </g>
    </g>
    <g id="xtick_5">
     <g id="line2d_9">
      <path d="M 442.8 378 
L 442.8 51.84 
" clip-path="url(#peebd9b5abf)" style="fill: none; stroke: #fdf6e3"/>
     </g>
     <g id="line2d_10">
      <g>
       <use xlink:href="#m8678cd0b7b" x="442.8" y="378" style="fill: #657b83; stroke: #657b83; stroke-width: 0.8"/>
      </g>
     </g>
     <g id="text_5">
      <!-- 100 -->
      <g style="fill: #657b83" transform="translate(433.25625 392.598437)scale(0.1 -0.1)">
       <defs>
        <path id="DejaVuSans-31" d="M 794 531 
L 1825 531 
L 1825 4091 
L 703 3866 
L 703 4441 
L 1819 4666 
L 2450 4666 
L 2450 531 
L 3481 531 
L 3481 0 
L 794 0 
L 794 531 
z
" transform="scale(0.015625)"/>
       </defs>
       <use xlink:href="#DejaVuSans-31"/>
       <use xlink:href="#DejaVuSans-30" x="63.623047"/>
       <use xlink:href="#DejaVuSans-30" x="127.246094"/>
      </g>
     </g>
    </g>
    <g id="xtick_6">
     <g id="line2d_11">
      <path d="M 526.5 378 
L 526.5 51.84 
" clip-path="url(#peebd9b5abf)" style="fill: none; stroke: #fdf6e3"/>
     </g>
     <g id="line2d_12">
      <g>
       <use xlink:href="#m8678cd0b7b" x="526.5" y="378" style="fill: #657b83; stroke: #657b83; stroke-width: 0.8"/>
      </g>
     </g>
     <g id="text_6">
      <!-- 125 -->
      <g style="fill: #657b83" transform="translate(516.95625 392.598437)scale(0.1 -0.1)">
       <use xlink:href="#DejaVuSans-31"/>
       <use xlink:href="#DejaVuSans-32" x="63.623047"/>
       <use xlink:href="#DejaVuSans-35" x="127.246094"/>
      </g>
     </g>
    </g>
    <g id="xtick_7">
     <g id="line2d_13">
      <path d="M 610.2 378 
L 610.2 51.84 
" clip-path="url(#peebd9b5abf)" style="fill: none; stroke: #fdf6e3"/>
     </g>
     <g id="line2d_14">
      <g>
       <use xlink:href="#m8678cd0b7b" x="610.2" y="378" style="fill: #657b83; stroke: #657b83; stroke-width: 0.8"/>
      </g>
     </g>
     <g id="text_7">
      <!-- 150 -->
      <g style="fill: #657b83" transform="translate(600.65625 392.598437)scale(0.1 -0.1)">
       <use xlink:href="#DejaVuSans-31"/>
       <use xlink:href="#DejaVuSans-35" x="63.623047"/>
       <use xlink:href="#DejaVuSans-30" x="127.246094"/>
      </g>
     </g>
    </g>
    <g id="xtick_8">
     <g id="line2d_15">
      <path d="M 693.9 378 
L 693.9 51.84 
" clip-path="url(#peebd9b5abf)" style="fill: none; stroke: #fdf6e3"/>
     </g>
     <g id="line2d_16">
      <g>
       <use xlink:href="#m8678cd0b7b" x="693.9" y="378" style="fill: #657b83; stroke: #657b83; stroke-width: 0.8"/>
      </g>
     </g>
     <g id="text_8">
      <!-- 175 -->
      <g style="fill: #657b83" transform="translate(684.35625 392.598437)scale(0.1 -0.1)">
       <use xlink:href="#DejaVuSans-31"/>
       <use xlink:href="#DejaVuSans-37" x="63.623047"/>
       <use xlink:href="#DejaVuSans-35" x="127.246094"/>
      </g>
     </g>
    </g>
    <g id="xtick_9">
     <g id="line2d_17">
      <path d="M 777.6 378 
L 777.6 51.84 
" clip-path="url(#peebd9b5abf)" style="fill: none; stroke: #fdf6e3"/>
     </g>
     <g id="line2d_18">
      <g>
       <use xlink:href="#m8678cd0b7b" x="777.6" y="378" style="fill: #657b83; stroke: #657b83; stroke-width: 0.8"/>
      </g>
     </g>
     <g id="text_9">
      <!-- 200 -->
      <g style="fill: #657b83" transform="translate(768.05625 392.598437)scale(0.1 -0.1)">
       <use xlink:href="#DejaVuSans-32"/>
       <use xlink:href="#DejaVuSans-30" x="63.623047"/>
       <use xlink:href="#DejaVuSans-30" x="127.246094"/>
      </g>
     </g>
    </g>
    <g id="text_10">
     <!-- Frequency (Hz) -->
     <g style="fill: #657b83" transform="translate(397.554375 407.79625)scale(0.12 -0.12)">
      <defs>
       <path id="DejaVuSans-46" d="M 628 4666 
L 3309 4666 
L 3309 4134 
L 1259 4134 
L 1259 2759 
L 3109 2759 
L 3109 2228 
L 1259 2228 
L 1259 0 
L 628 0 
L 628 4666 
z
" transform="scale(0.015625)"/>
       <path id="DejaVuSans-72" d="M 2631 2963 
Q 2534 3019 2420 3045 
Q 2306 3072 2169 3072 
Q 1681 3072 1420 2755 
Q 1159 2438 1159 1844 
L 1159 0 
L 581 0 
L 581 3500 
L 1159 3500 
L 1159 2956 
Q 1341 3275 1631 3429 
Q 1922 3584 2338 3584 
Q 2397 3584 2469 3576 
Q 2541 3569 2628 3553 
L 2631 2963 
z
" transform="scale(0.015625)"/>
       <path id="DejaVuSans-65" d="M 3597 1894 
L 3597 1613 
L 953 1613 
Q 991 1019 1311 708 
Q 1631 397 2203 397 
Q 2534 397 2845 478 
Q 3156 559 3463 722 
L 3463 178 
Q 3153 47 2828 -22 
Q 2503 -91 2169 -91 
Q 1331 -91 842 396 
Q 353 884 353 1716 
Q 353 2575 817 3079 
Q 1281 3584 2069 3584 
Q 2775 3584 3186 3129 
Q 3597 2675 3597 1894 
z
M 3022 2063 
Q 3016 2534 2758 2815 
Q 2500 3097 2075 3097 
Q 1594 3097 1305 2825 
Q 1016 2553 972 2059 
L 3022 2063 
z
" transform="scale(0.015625)"/>
       <path id="DejaVuSans-71" d="M 947 1747 
Q 947 1113 1208 752 
Q 1469 391 1925 391 
Q 2381 391 2643 752 
Q 2906 1113 2906 1747 
Q 2906 2381 2643 2742 
Q 2381 3103 1925 3103 
Q 1469 3103 1208 2742 
Q 947 2381 947 1747 
z
M 2906 525 
Q 2725 213 2448 61 
Q 2172 -91 1784 -91 
Q 1150 -91 751 415 
Q 353 922 353 1747 
Q 353 2572 751 3078 
Q 1150 3584 1784 3584 
Q 2172 3584 2448 3432 
Q 2725 3281 2906 2969 
L 2906 3500 
L 3481 3500 
L 3481 -1331 
L 2906 -1331 
L 2906 525 
z
" transform="scale(0.015625)"/>
       <path id="DejaVuSans-75" d="M 544 1381 
L 544 3500 
L 1119 3500 
L 1119 1403 
Q 1119 906 1312 657 
Q 1506 409 1894 409 
Q 2359 409 2629 706 
Q 2900 1003 2900 1516 
L 2900 3500 
L 3475 3500 
L 3475 0 
L 2900 0 
L 2900 538 
Q 2691 219 2414 64 
Q 2138 -91 1772 -91 
Q 1169 -91 856 284 
Q 544 659 544 1381 
z
M 1991 3584 
L 1991 3584 
z
" transform="scale(0.015625)"/>
       <path id="DejaVuSans-6e" d="M 3513 2113 
L 3513 0 
L 2938 0 
L 2938 2094 
Q 2938 2591 2744 2837 
Q 2550 3084 2163 3084 
Q 1697 3084 1428 2787 
Q 1159 2491 1159 1978 
L 1159 0 
L 581 0 
L 581 3500 
L 1159 3500 
L 1159 2956 
Q 1366 3272 1645 3428 
Q 1925 3584 2291 3584 
Q 2894 3584 3203 3211 
Q 3513 2838 3513 2113 
z
" transform="scale(0.015625)"/>
       <path id="DejaVuSans-63" d="M 3122 3366 
L 3122 2828 
Q 2878 2963 2633 3030 
Q 2388 3097 2138 3097 
Q 1578 3097 1268 2742 
Q 959 2388 959 1747 
Q 959 1106 1268 751 
Q 1578 397 2138 397 
Q 2388 397 2633 464 
Q 2878 531 3122 666 
L 3122 134 
Q 2881 22 2623 -34 
Q 2366 -91 2075 -91 
Q 1284 -91 818 406 
Q 353 903 353 1747 
Q 353 2603 823 3093 
Q 1294 3584 2113 3584 
Q 2378 3584 2631 3529 
Q 2884 3475 3122 3366 
z
" transform="scale(0.015625)"/>
       <path id="DejaVuSans-79" d="M 2059 -325 
Q 1816 -950 1584 -1140 
Q 1353 -1331 966 -1331 
L 506 -1331 
L 506 -850 
L 844 -850 
Q 1081 -850 1212 -737 
Q 1344 -625 1503 -206 
L 1606 56 
L 191 3500 
L 800 3500 
L 1894 763 
L 2988 3500 
L 3597 3500 
L 2059 -325 
z
" transform="scale(0.015625)"/>
       <path id="DejaVuSans-20" transform="scale(0.015625)"/>
       <path id="DejaVuSans-28" d="M 1984 4856 
Q 1566 4138 1362 3434 
Q 1159 2731 1159 2009 
Q 1159 1288 1364 580 
Q 1569 -128 1984 -844 
L 1484 -844 
Q 1016 -109 783 600 
Q 550 1309 550 2009 
Q 550 2706 781 3412 
Q 1013 4119 1484 4856 
L 1984 4856 
z
" transform="scale(0.015625)"/>
       <path id="DejaVuSans-48" d="M 628 4666 
L 1259 4666 
L 1259 2753 
L 3553 2753 
L 3553 4666 
L 4184 4666 
L 4184 0 
L 3553 0 
L 3553 2222 
L 1259 2222 
L 1259 0 
L 628 0 
L 628 4666 
z
" transform="scale(0.015625)"/>
       <path id="DejaVuSans-7a" d="M 353 3500 
L 3084 3500 
L 3084 2975 
L 922 459 
L 3084 459 
L 3084 0 
L 275 0 
L 275 525 
L 2438 3041 
L 353 3041 
L 353 3500 
z
" transform="scale(0.015625)"/>
       <path id="DejaVuSans-29" d="M 513 4856 
L 1013 4856 
Q 1481 4119 1714 3412 
Q 1947 2706 1947 2009 
Q 1947 1309 1714 600 
Q 1481 -109 1013 -844 
L 513 -844 
Q 928 -128 1133 580 
Q 1338 1288 1338 2009 
Q 1338 2731 1133 3434 
Q 928 4138 513 4856 
z
" transform="scale(0.015625)"/>
      </defs>
      <use xlink:href="#DejaVuSans-46"/>
      <use xlink:href="#DejaVuSans-72" x="50.269531"/>
      <use xlink:href="#DejaVuSans-65" x="89.132812"/>
      <use xlink:href="#DejaVuSans-71" x="150.65625"/>
      <use xlink:href="#DejaVuSans-75" x="214.132812"/>
      <use xlink:href="#DejaVuSans-65" x="277.511719"/>
      <use xlink:href="#DejaVuSans-6e" x="339.035156"/>
      <use xlink:href="#DejaVuSans-63" x="402.414062"/>
      <use xlink:href="#DejaVuSans-79" x="457.394531"/>
      <use xlink:href="#DejaVuSans-20" x="516.574219"/>
      <use xlink:href="#DejaVuSans-28" x="548.361328"/>
      <use xlink:href="#DejaVuSans-48" x="587.375"/>
      <use xlink:href="#DejaVuSans-7a" x="662.570312"/>
      <use xlink:href="#DejaVuSans-29" x="715.060547"/>
     </g>
    </g>
   </g>
   <g id="matplotlib.axis_2">
    <g id="ytick_1">
     <g id="line2d_19">
      <path d="M 108 363.175031 
L 777.6 363.175031 
" clip-path="url(#peebd9b5abf)" style="fill: none; stroke: #fdf6e3"/>
     </g>
     <g id="line2d_20">
      <defs>
       <path id="m0c049eb858" d="M 0 0 
L -3.5 0 
" style="stroke: #657b83; stroke-width: 0.8"/>
      </defs>
      <g>
       <use xlink:href="#m0c049eb858" x="108" y="363.175031" style="fill: #657b83; stroke: #657b83; stroke-width: 0.8"/>
      </g>
     </g>
     <g id="text_11">
      <!-- 0 -->
      <g style="fill: #657b83" transform="translate(94.6375 366.97425)scale(0.1 -0.1)">
       <use xlink:href="#DejaVuSans-30"/>
      </g>
     </g>
    </g>
    <g id="ytick_2">
     <g id="line2d_21">
      <path d="M 108 312.622492 
L 777.6 312.622492 
" clip-path="url(#peebd9b5abf)" style="fill: none; stroke: #fdf6e3"/>
     </g>
     <g id="line2d_22">
      <g>
       <use xlink:href="#m0c049eb858" x="108" y="312.622492" style="fill: #657b83; stroke: #657b83; stroke-width: 0.8"/>
      </g>
     </g>
     <g id="text_12">
      <!-- 1 -->
      <g style="fill: #657b83" transform="translate(94.6375 316.421711)scale(0.1 -0.1)">
       <use xlink:href="#DejaVuSans-31"/>
      </g>
     </g>
    </g>
    <g id="ytick_3">
     <g id="line2d_23">
      <path d="M 108 262.069953 
L 777.6 262.069953 
" clip-path="url(#peebd9b5abf)" style="fill: none; stroke: #fdf6e3"/>
     </g>
     <g id="line2d_24">
      <g>
       <use xlink:href="#m0c049eb858" x="108" y="262.069953" style="fill: #657b83; stroke: #657b83; stroke-width: 0.8"/>
      </g>
     </g>
     <g id="text_13">
      <!-- 2 -->
      <g style="fill: #657b83" transform="translate(94.6375 265.869172)scale(0.1 -0.1)">
       <use xlink:href="#DejaVuSans-32"/>
      </g>
     </g>
    </g>
    <g id="ytick_4">
     <g id="line2d_25">
      <path d="M 108 211.517414 
L 777.6 211.517414 
" clip-path="url(#peebd9b5abf)" style="fill: none; stroke: #fdf6e3"/>
     </g>
     <g id="line2d_26">
      <g>
       <use xlink:href="#m0c049eb858" x="108" y="211.517414" style="fill: #657b83; stroke: #657b83; stroke-width: 0.8"/>
      </g>
     </g>
     <g id="text_14">
      <!-- 3 -->
      <g style="fill: #657b83" transform="translate(94.6375 215.316633)scale(0.1 -0.1)">
       <defs>
        <path id="DejaVuSans-33" d="M 2597 2516 
Q 3050 2419 3304 2112 
Q 3559 1806 3559 1356 
Q 3559 666 3084 287 
Q 2609 -91 1734 -91 
Q 1441 -91 1130 -33 
Q 819 25 488 141 
L 488 750 
Q 750 597 1062 519 
Q 1375 441 1716 441 
Q 2309 441 2620 675 
Q 2931 909 2931 1356 
Q 2931 1769 2642 2001 
Q 2353 2234 1838 2234 
L 1294 2234 
L 1294 2753 
L 1863 2753 
Q 2328 2753 2575 2939 
Q 2822 3125 2822 3475 
Q 2822 3834 2567 4026 
Q 2313 4219 1838 4219 
Q 1578 4219 1281 4162 
Q 984 4106 628 3988 
L 628 4550 
Q 988 4650 1302 4700 
Q 1616 4750 1894 4750 
Q 2613 4750 3031 4423 
Q 3450 4097 3450 3541 
Q 3450 3153 3228 2886 
Q 3006 2619 2597 2516 
z
" transform="scale(0.015625)"/>
       </defs>
       <use xlink:href="#DejaVuSans-33"/>
      </g>
     </g>
    </g>
    <g id="ytick_5">
     <g id="line2d_27">
      <path d="M 108 160.964875 
L 777.6 160.964875 
" clip-path="url(#peebd9b5abf)" style="fill: none; stroke: #fdf6e3"/>
     </g>
     <g id="line2d_28">
      <g>
       <use xlink:href="#m0c049eb858" x="108" y="160.964875" style="fill: #657b83; stroke: #657b83; stroke-width: 0.8"/>
      </g>
     </g>
     <g id="text_15">
      <!-- 4 -->
      <g style="fill: #657b83" transform="translate(94.6375 164.764094)scale(0.1 -0.1)">
       <defs>
        <path id="DejaVuSans-34" d="M 2419 4116 
L 825 1625 
L 2419 1625 
L 2419 4116 
z
M 2253 4666 
L 3047 4666 
L 3047 1625 
L 3713 1625 
L 3713 1100 
L 3047 1100 
L 3047 0 
L 2419 0 
L 2419 1100 
L 313 1100 
L 313 1709 
L 2253 4666 
z
" transform="scale(0.015625)"/>
       </defs>
       <use xlink:href="#DejaVuSans-34"/>
      </g>
     </g>
    </g>
    <g id="ytick_6">
     <g id="line2d_29">
      <path d="M 108 110.412336 
L 777.6 110.412336 
" clip-path="url(#peebd9b5abf)" style="fill: none; stroke: #fdf6e3"/>
     </g>
     <g id="line2d_30">
      <g>
       <use xlink:href="#m0c049eb858" x="108" y="110.412336" style="fill: #657b83; stroke: #657b83; stroke-width: 0.8"/>
      </g>
     </g>
     <g id="text_16">
      <!-- 5 -->
      <g style="fill: #657b83" transform="translate(94.6375 114.211555)scale(0.1 -0.1)">
       <use xlink:href="#DejaVuSans-35"/>
      </g>
     </g>
    </g>
    <g id="ytick_7">
     <g id="line2d_31">
      <path d="M 108 59.859797 
L 777.6 59.859797 
" clip-path="url(#peebd9b5abf)" style="fill: none; stroke: #fdf6e3"/>
     </g>
     <g id="line2d_32">
      <g>
       <use xlink:href="#m0c049eb858" x="108" y="59.859797" style="fill: #657b83; stroke: #657b83; stroke-width: 0.8"/>
      </g>
     </g>
     <g id="text_17">
      <!-- 6 -->
      <g style="fill: #657b83" transform="translate(94.6375 63.659016)scale(0.1 -0.1)">
       <defs>
        <path id="DejaVuSans-36" d="M 2113 2584 
Q 1688 2584 1439 2293 
Q 1191 2003 1191 1497 
Q 1191 994 1439 701 
Q 1688 409 2113 409 
Q 2538 409 2786 701 
Q 3034 994 3034 1497 
Q 3034 2003 2786 2293 
Q 2538 2584 2113 2584 
z
M 3366 4563 
L 3366 3988 
Q 3128 4100 2886 4159 
Q 2644 4219 2406 4219 
Q 1781 4219 1451 3797 
Q 1122 3375 1075 2522 
Q 1259 2794 1537 2939 
Q 1816 3084 2150 3084 
Q 2853 3084 3261 2657 
Q 3669 2231 3669 1497 
Q 3669 778 3244 343 
Q 2819 -91 2113 -91 
Q 1303 -91 875 529 
Q 447 1150 447 2328 
Q 447 3434 972 4092 
Q 1497 4750 2381 4750 
Q 2619 4750 2861 4703 
Q 3103 4656 3366 4563 
z
" transform="scale(0.015625)"/>
       </defs>
       <use xlink:href="#DejaVuSans-36"/>
      </g>
     </g>
    </g>
    <g id="text_18">
     <!-- Amplitude -->
     <g style="fill: #657b83" transform="translate(88.141875 245.667187)rotate(-90)scale(0.12 -0.12)">
      <defs>
       <path id="DejaVuSans-41" d="M 2188 4044 
L 1331 1722 
L 3047 1722 
L 2188 4044 
z
M 1831 4666 
L 2547 4666 
L 4325 0 
L 3669 0 
L 3244 1197 
L 1141 1197 
L 716 0 
L 50 0 
L 1831 4666 
z
" transform="scale(0.015625)"/>
       <path id="DejaVuSans-6d" d="M 3328 2828 
Q 3544 3216 3844 3400 
Q 4144 3584 4550 3584 
Q 5097 3584 5394 3201 
Q 5691 2819 5691 2113 
L 5691 0 
L 5113 0 
L 5113 2094 
Q 5113 2597 4934 2840 
Q 4756 3084 4391 3084 
Q 3944 3084 3684 2787 
Q 3425 2491 3425 1978 
L 3425 0 
L 2847 0 
L 2847 2094 
Q 2847 2600 2669 2842 
Q 2491 3084 2119 3084 
Q 1678 3084 1418 2786 
Q 1159 2488 1159 1978 
L 1159 0 
L 581 0 
L 581 3500 
L 1159 3500 
L 1159 2956 
Q 1356 3278 1631 3431 
Q 1906 3584 2284 3584 
Q 2666 3584 2933 3390 
Q 3200 3197 3328 2828 
z
" transform="scale(0.015625)"/>
       <path id="DejaVuSans-70" d="M 1159 525 
L 1159 -1331 
L 581 -1331 
L 581 3500 
L 1159 3500 
L 1159 2969 
Q 1341 3281 1617 3432 
Q 1894 3584 2278 3584 
Q 2916 3584 3314 3078 
Q 3713 2572 3713 1747 
Q 3713 922 3314 415 
Q 2916 -91 2278 -91 
Q 1894 -91 1617 61 
Q 1341 213 1159 525 
z
M 3116 1747 
Q 3116 2381 2855 2742 
Q 2594 3103 2138 3103 
Q 1681 3103 1420 2742 
Q 1159 2381 1159 1747 
Q 1159 1113 1420 752 
Q 1681 391 2138 391 
Q 2594 391 2855 752 
Q 3116 1113 3116 1747 
z
" transform="scale(0.015625)"/>
       <path id="DejaVuSans-6c" d="M 603 4863 
L 1178 4863 
L 1178 0 
L 603 0 
L 603 4863 
z
" transform="scale(0.015625)"/>
       <path id="DejaVuSans-69" d="M 603 3500 
L 1178 3500 
L 1178 0 
L 603 0 
L 603 3500 
z
M 603 4863 
L 1178 4863 
L 1178 4134 
L 603 4134 
L 603 4863 
z
" transform="scale(0.015625)"/>
       <path id="DejaVuSans-74" d="M 1172 4494 
L 1172 3500 
L 2356 3500 
L 2356 3053 
L 1172 3053 
L 1172 1153 
Q 1172 725 1289 603 
Q 1406 481 1766 481 
L 2356 481 
L 2356 0 
L 1766 0 
Q 1100 0 847 248 
Q 594 497 594 1153 
L 594 3053 
L 172 3053 
L 172 3500 
L 594 3500 
L 594 4494 
L 1172 4494 
z
" transform="scale(0.015625)"/>
       <path id="DejaVuSans-64" d="M 2906 2969 
L 2906 4863 
L 3481 4863 
L 3481 0 
L 2906 0 
L 2906 525 
Q 2725 213 2448 61 
Q 2172 -91 1784 -91 
Q 1150 -91 751 415 
Q 353 922 353 1747 
Q 353 2572 751 3078 
Q 1150 3584 1784 3584 
Q 2172 3584 2448 3432 
Q 2725 3281 2906 2969 
z
M 947 1747 
Q 947 1113 1208 752 
Q 1469 391 1925 391 
Q 2381 391 2643 752 
Q 2906 1113 2906 1747 
Q 2906 2381 2643 2742 
Q 2381 3103 1925 3103 
Q 1469 3103 1208 2742 
Q 947 2381 947 1747 
z
" transform="scale(0.015625)"/>
      </defs>
      <use xlink:href="#DejaVuSans-41"/>
      <use xlink:href="#DejaVuSans-6d" x="68.408203"/>
      <use xlink:href="#DejaVuSans-70" x="165.820312"/>
      <use xlink:href="#DejaVuSans-6c" x="229.296875"/>
      <use xlink:href="#DejaVuSans-69" x="257.080078"/>
      <use xlink:href="#DejaVuSans-74" x="284.863281"/>
      <use xlink:href="#DejaVuSans-75" x="324.072266"/>
      <use xlink:href="#DejaVuSans-64" x="387.451172"/>
      <use xlink:href="#DejaVuSans-65" x="450.927734"/>
     </g>
    </g>
   </g>
   <g id="line2d_33">
    <path d="M 108 341.569263 
L 111.348 335.62189 
L 114.696 351.337041 
L 118.044 335.858459 
L 121.392 334.532024 
L 124.74 341.285528 
L 128.088 338.631321 
L 131.436 346.471793 
L 134.784 353.059219 
L 138.132 321.778585 
L 141.48 336.209192 
L 144.828 358.392048 
L 148.176 360.031774 
L 151.524 357.615563 
L 154.872 339.65024 
L 158.22 326.499131 
L 164.916 348.472089 
L 168.264 309.065817 
L 171.612 318.37578 
L 174.96 353.869241 
L 178.308 358.268245 
L 181.656 356.806633 
L 185.004 343.000811 
L 188.352 357.330763 
L 191.7 355.689657 
L 195.048 347.518333 
L 198.396 337.680545 
L 201.744 357.531976 
L 205.092 362.601885 
L 208.44 353.027147 
L 211.788 344.893506 
L 215.136 336.139166 
L 218.484 343.865748 
L 221.832 357.050544 
L 225.18 351.299895 
L 228.528 359.494447 
L 231.876 361.679661 
L 235.224 351.469771 
L 238.572 361.654439 
L 241.92 347.682809 
L 245.268 342.695041 
L 248.616 338.87077 
L 251.964 356.205393 
L 255.312 357.174405 
L 258.66 360.305064 
L 262.008 361.370752 
L 265.356 353.505962 
L 268.704 347.245351 
L 272.052 354.571532 
L 275.4 353.264371 
L 278.748 346.592983 
L 282.096 361.267722 
L 285.444 357.889637 
L 288.792 350.496286 
L 292.14 351.315927 
L 295.488 358.881923 
L 298.836 348.856699 
L 302.184 352.798539 
L 305.532 362.554586 
L 308.88 347.443366 
L 312.228 333.738453 
L 315.576 338.17903 
L 318.924 341.141062 
L 322.272 361.386773 
L 325.62 349.909135 
L 328.968 360.484207 
L 332.316 361.716219 
L 335.664 359.416422 
L 339.012 355.078277 
L 342.36 349.554642 
L 345.708 356.254081 
L 349.056 353.104108 
L 352.404 343.328324 
L 355.752 345.134542 
L 359.1 352.436599 
L 362.448 332.465342 
L 365.796 340.41656 
L 369.144 352.300047 
L 372.492 359.971099 
L 375.84 359.782743 
L 379.188 356.691976 
L 382.536 356.88789 
L 385.884 353.701985 
L 389.232 358.806427 
L 392.58 359.129064 
L 395.928 356.234628 
L 399.276 354.558213 
L 402.624 358.883917 
L 405.972 361.037682 
L 409.32 359.413619 
L 412.668 358.456354 
L 416.016 358.332419 
L 419.364 357.098996 
L 422.712 358.201568 
L 426.06 361.410049 
L 429.408 358.668638 
L 432.756 361.087888 
L 436.104 361.901933 
L 439.452 361.83057 
L 442.8 362.783643 
L 446.148 360.647819 
L 452.844 361.559016 
L 456.192 358.997191 
L 459.54 355.011089 
L 462.888 359.740465 
L 466.236 362.944358 
L 469.584 359.165091 
L 472.932 359.291642 
L 476.28 362.828627 
L 482.976 357.323015 
L 486.324 360.343215 
L 489.672 361.737108 
L 493.02 359.416885 
L 496.368 357.888962 
L 499.716 359.595048 
L 503.064 363.050525 
L 506.412 358.321599 
L 509.76 355.916598 
L 513.108 360.811841 
L 516.456 352.25452 
L 519.804 362.922147 
L 523.152 362.913629 
L 526.5 361.418578 
L 529.848 362.620523 
L 533.196 362.024529 
L 536.544 362.662891 
L 539.892 362.541445 
L 543.24 357.71803 
L 546.588 354.538037 
L 549.936 354.999709 
L 553.284 358.366162 
L 556.632 355.183276 
L 559.98 354.084047 
L 563.328 357.723698 
L 566.676 355.696147 
L 570.024 358.296527 
L 573.372 361.657378 
L 576.72 361.92788 
L 580.068 361.327123 
L 583.416 360.219922 
L 586.764 360.630022 
L 590.112 361.986738 
L 593.46 362.824739 
L 596.808 362.747947 
L 600.156 359.319377 
L 603.504 355.723064 
L 606.852 359.186722 
L 610.2 363.166513 
L 613.548 360.795942 
L 616.896 357.46345 
L 620.244 355.311291 
L 623.592 359.568106 
L 630.288 356.76156 
L 633.636 362.696894 
L 636.984 357.515964 
L 640.332 358.274688 
L 643.68 360.345146 
L 650.376 360.287605 
L 653.724 360.748157 
L 657.072 359.000695 
L 660.42 358.676004 
L 663.768 360.77393 
L 667.116 362.298209 
L 670.464 363.147188 
L 673.812 363.147015 
L 677.16 361.878521 
L 680.508 362.160423 
L 683.856 360.089272 
L 687.204 359.389245 
L 690.552 362.140771 
L 693.9 357.967869 
L 697.248 355.715028 
L 703.944 357.677356 
L 710.64 362.255439 
L 713.988 362.166015 
L 717.336 361.08597 
L 720.684 362.363592 
L 724.032 361.611589 
L 727.38 361.979638 
L 730.728 361.586143 
L 734.076 361.971173 
L 737.424 361.398884 
L 740.772 359.199225 
L 744.12 360.461702 
L 747.468 362.071675 
L 754.164 362.535815 
L 757.512 360.758795 
L 760.86 358.672562 
L 767.556 358.784288 
L 770.904 359.165422 
L 774.252 360.120357 
L 777.6 360.397411 
L 780.948 361.043817 
L 780.948 361.043817 
" clip-path="url(#peebd9b5abf)" style="fill: none; stroke: #2aa198; stroke-opacity: 0.6; stroke-width: 2"/>
   </g>
   <g id="line2d_34">
    <path d="M 108 356.302808 
L 111.348 361.917972 
L 114.696 351.546219 
L 118.044 322.672196 
L 121.392 323.319325 
L 124.74 333.965094 
L 128.088 326.365054 
L 131.436 171.762688 
L 134.784 66.665455 
L 138.132 274.558978 
L 141.48 319.717663 
L 144.828 352.896592 
L 148.176 343.814846 
L 151.524 338.080204 
L 154.872 350.974916 
L 158.22 342.427259 
L 161.568 321.103156 
L 164.916 345.524562 
L 168.264 358.507774 
L 171.612 348.676477 
L 174.96 344.396986 
L 178.308 356.445885 
L 181.656 360.27367 
L 185.004 361.395114 
L 188.352 352.342617 
L 191.7 339.475568 
L 195.048 339.041707 
L 201.744 361.513095 
L 205.092 342.087743 
L 208.44 355.089194 
L 211.788 333.710584 
L 215.136 349.474143 
L 218.484 342.917711 
L 221.832 352.634563 
L 225.18 312.18962 
L 228.528 328.937922 
L 231.876 354.506719 
L 235.224 347.539469 
L 238.572 349.249712 
L 241.92 356.189243 
L 245.268 350.720844 
L 248.616 361.906993 
L 251.964 351.597365 
L 255.312 344.441706 
L 258.66 345.517764 
L 262.008 355.215856 
L 265.356 358.052863 
L 268.704 357.694891 
L 272.052 362.436214 
L 275.4 360.176321 
L 278.748 351.922304 
L 282.096 352.599296 
L 285.444 362.812984 
L 288.792 351.496669 
L 292.14 351.156585 
L 295.488 353.534452 
L 298.836 344.564299 
L 302.184 353.177059 
L 305.532 353.809042 
L 308.88 348.353271 
L 312.228 348.995086 
L 315.576 362.996184 
L 318.924 352.192076 
L 322.272 356.248577 
L 325.62 362.81442 
L 328.968 356.754146 
L 332.316 355.732423 
L 335.664 356.519242 
L 339.012 357.725068 
L 342.36 361.923199 
L 345.708 355.415728 
L 349.056 353.408335 
L 352.404 355.721326 
L 355.752 362.670039 
L 359.1 362.95909 
L 362.448 361.606247 
L 365.796 351.349723 
L 369.144 349.389544 
L 372.492 356.110438 
L 375.84 360.879599 
L 379.188 356.558183 
L 382.536 359.973476 
L 385.884 358.90353 
L 389.232 346.723728 
L 392.58 347.083124 
L 395.928 357.226193 
L 399.276 358.138044 
L 402.624 360.373671 
L 405.972 353.607776 
L 409.32 360.608971 
L 412.668 357.260407 
L 416.016 361.803905 
L 419.364 362.009927 
L 422.712 362.800855 
L 426.06 361.465814 
L 429.408 353.373291 
L 432.756 353.741573 
L 436.104 361.766497 
L 439.452 358.720325 
L 442.8 358.448695 
L 446.148 362.229108 
L 449.496 359.962347 
L 452.844 362.970082 
L 456.192 356.899118 
L 459.54 355.149819 
L 462.888 355.788078 
L 466.236 358.286183 
L 469.584 361.713937 
L 472.932 360.975126 
L 476.28 357.823111 
L 479.628 359.555682 
L 482.976 363.067752 
L 486.324 361.983565 
L 489.672 363.094926 
L 493.02 357.916726 
L 496.368 359.041633 
L 499.716 361.97621 
L 503.064 362.105097 
L 506.412 360.28506 
L 509.76 358.675532 
L 513.108 359.042436 
L 516.456 361.07265 
L 519.804 361.856771 
L 523.152 361.611376 
L 526.5 361.763256 
L 529.848 358.491848 
L 533.196 361.493356 
L 536.544 357.385989 
L 539.892 356.52668 
L 543.24 355.803403 
L 546.588 356.154302 
L 549.936 358.653385 
L 553.284 359.735559 
L 556.632 363.051001 
L 559.98 362.051225 
L 563.328 362.319358 
L 566.676 359.998542 
L 570.024 360.296235 
L 573.372 360.966782 
L 576.72 362.808357 
L 580.068 361.775627 
L 583.416 363.065872 
L 586.764 361.654773 
L 590.112 361.858231 
L 593.46 362.780762 
L 596.808 362.538107 
L 600.156 362.727039 
L 603.504 361.250912 
L 606.852 360.582317 
L 610.2 362.51558 
L 613.548 359.970065 
L 616.896 361.18467 
L 620.244 360.147978 
L 623.592 357.068477 
L 626.94 358.33167 
L 630.288 362.274398 
L 633.636 360.386754 
L 636.984 358.749425 
L 640.332 355.219014 
L 643.68 358.248706 
L 647.028 358.697437 
L 650.376 356.536572 
L 653.724 359.742134 
L 657.072 361.034371 
L 660.42 354.434675 
L 663.768 356.321359 
L 667.116 362.986124 
L 670.464 362.000434 
L 673.812 359.849672 
L 677.16 358.692142 
L 680.508 362.544575 
L 683.856 360.312908 
L 687.204 361.330388 
L 690.552 362.200934 
L 693.9 362.898345 
L 697.248 362.458439 
L 700.596 362.497574 
L 703.944 359.239041 
L 707.292 355.786943 
L 710.64 359.159738 
L 713.988 361.86069 
L 717.336 359.403027 
L 720.684 359.185474 
L 724.032 363.068478 
L 727.38 360.992813 
L 730.728 361.717453 
L 734.076 363.069699 
L 737.424 361.688515 
L 740.772 361.945692 
L 744.12 361.792701 
L 747.468 360.098369 
L 750.816 358.885022 
L 754.164 361.635948 
L 757.512 361.184557 
L 760.86 362.663372 
L 764.208 361.205224 
L 767.556 359.61347 
L 770.904 357.826919 
L 774.252 362.529771 
L 777.6 357.318966 
L 780.948 358.344585 
L 780.948 358.344585 
" clip-path="url(#peebd9b5abf)" style="fill: none; stroke: #dc322f; stroke-opacity: 0.6; stroke-width: 2"/>
   </g>
   <g id="patch_3">
    <path d="M 108 378 
L 108 51.84 
" style="fill: none; stroke: #eee8d5; stroke-width: 0.8; stroke-linejoin: miter; stroke-linecap: square"/>
   </g>
   <g id="patch_4">
    <path d="M 777.6 378 
L 777.6 51.84 
" style="fill: none; stroke: #eee8d5; stroke-width: 0.8; stroke-linejoin: miter; stroke-linecap: square"/>
   </g>
   <g id="patch_5">
    <path d="M 108 378 
L 777.6 378 
" style="fill: none; stroke: #eee8d5; stroke-width: 0.8; stroke-linejoin: miter; stroke-linecap: square"/>
   </g>
   <g id="patch_6">
    <path d="M 108 51.84 
L 777.6 51.84 
" style="fill: none; stroke: #eee8d5; stroke-width: 0.8; stroke-linejoin: miter; stroke-linecap: square"/>
   </g>
   <g id="text_19">
    <!-- Short Time Fourier Transform for the first 128ms Window -->
    <g transform="translate(215.1025 45.84)scale(0.16 -0.16)">
     <defs>
      <path id="DejaVuSans-53" d="M 3425 4513 
L 3425 3897 
Q 3066 4069 2747 4153 
Q 2428 4238 2131 4238 
Q 1616 4238 1336 4038 
Q 1056 3838 1056 3469 
Q 1056 3159 1242 3001 
Q 1428 2844 1947 2747 
L 2328 2669 
Q 3034 2534 3370 2195 
Q 3706 1856 3706 1288 
Q 3706 609 3251 259 
Q 2797 -91 1919 -91 
Q 1588 -91 1214 -16 
Q 841 59 441 206 
L 441 856 
Q 825 641 1194 531 
Q 1563 422 1919 422 
Q 2459 422 2753 634 
Q 3047 847 3047 1241 
Q 3047 1584 2836 1778 
Q 2625 1972 2144 2069 
L 1759 2144 
Q 1053 2284 737 2584 
Q 422 2884 422 3419 
Q 422 4038 858 4394 
Q 1294 4750 2059 4750 
Q 2388 4750 2728 4690 
Q 3069 4631 3425 4513 
z
" transform="scale(0.015625)"/>
      <path id="DejaVuSans-68" d="M 3513 2113 
L 3513 0 
L 2938 0 
L 2938 2094 
Q 2938 2591 2744 2837 
Q 2550 3084 2163 3084 
Q 1697 3084 1428 2787 
Q 1159 2491 1159 1978 
L 1159 0 
L 581 0 
L 581 4863 
L 1159 4863 
L 1159 2956 
Q 1366 3272 1645 3428 
Q 1925 3584 2291 3584 
Q 2894 3584 3203 3211 
Q 3513 2838 3513 2113 
z
" transform="scale(0.015625)"/>
      <path id="DejaVuSans-6f" d="M 1959 3097 
Q 1497 3097 1228 2736 
Q 959 2375 959 1747 
Q 959 1119 1226 758 
Q 1494 397 1959 397 
Q 2419 397 2687 759 
Q 2956 1122 2956 1747 
Q 2956 2369 2687 2733 
Q 2419 3097 1959 3097 
z
M 1959 3584 
Q 2709 3584 3137 3096 
Q 3566 2609 3566 1747 
Q 3566 888 3137 398 
Q 2709 -91 1959 -91 
Q 1206 -91 779 398 
Q 353 888 353 1747 
Q 353 2609 779 3096 
Q 1206 3584 1959 3584 
z
" transform="scale(0.015625)"/>
      <path id="DejaVuSans-54" d="M -19 4666 
L 3928 4666 
L 3928 4134 
L 2272 4134 
L 2272 0 
L 1638 0 
L 1638 4134 
L -19 4134 
L -19 4666 
z
" transform="scale(0.015625)"/>
      <path id="DejaVuSans-61" d="M 2194 1759 
Q 1497 1759 1228 1600 
Q 959 1441 959 1056 
Q 959 750 1161 570 
Q 1363 391 1709 391 
Q 2188 391 2477 730 
Q 2766 1069 2766 1631 
L 2766 1759 
L 2194 1759 
z
M 3341 1997 
L 3341 0 
L 2766 0 
L 2766 531 
Q 2569 213 2275 61 
Q 1981 -91 1556 -91 
Q 1019 -91 701 211 
Q 384 513 384 1019 
Q 384 1609 779 1909 
Q 1175 2209 1959 2209 
L 2766 2209 
L 2766 2266 
Q 2766 2663 2505 2880 
Q 2244 3097 1772 3097 
Q 1472 3097 1187 3025 
Q 903 2953 641 2809 
L 641 3341 
Q 956 3463 1253 3523 
Q 1550 3584 1831 3584 
Q 2591 3584 2966 3190 
Q 3341 2797 3341 1997 
z
" transform="scale(0.015625)"/>
      <path id="DejaVuSans-73" d="M 2834 3397 
L 2834 2853 
Q 2591 2978 2328 3040 
Q 2066 3103 1784 3103 
Q 1356 3103 1142 2972 
Q 928 2841 928 2578 
Q 928 2378 1081 2264 
Q 1234 2150 1697 2047 
L 1894 2003 
Q 2506 1872 2764 1633 
Q 3022 1394 3022 966 
Q 3022 478 2636 193 
Q 2250 -91 1575 -91 
Q 1294 -91 989 -36 
Q 684 19 347 128 
L 347 722 
Q 666 556 975 473 
Q 1284 391 1588 391 
Q 1994 391 2212 530 
Q 2431 669 2431 922 
Q 2431 1156 2273 1281 
Q 2116 1406 1581 1522 
L 1381 1569 
Q 847 1681 609 1914 
Q 372 2147 372 2553 
Q 372 3047 722 3315 
Q 1072 3584 1716 3584 
Q 2034 3584 2315 3537 
Q 2597 3491 2834 3397 
z
" transform="scale(0.015625)"/>
      <path id="DejaVuSans-66" d="M 2375 4863 
L 2375 4384 
L 1825 4384 
Q 1516 4384 1395 4259 
Q 1275 4134 1275 3809 
L 1275 3500 
L 2222 3500 
L 2222 3053 
L 1275 3053 
L 1275 0 
L 697 0 
L 697 3053 
L 147 3053 
L 147 3500 
L 697 3500 
L 697 3744 
Q 697 4328 969 4595 
Q 1241 4863 1831 4863 
L 2375 4863 
z
" transform="scale(0.015625)"/>
      <path id="DejaVuSans-38" d="M 2034 2216 
Q 1584 2216 1326 1975 
Q 1069 1734 1069 1313 
Q 1069 891 1326 650 
Q 1584 409 2034 409 
Q 2484 409 2743 651 
Q 3003 894 3003 1313 
Q 3003 1734 2745 1975 
Q 2488 2216 2034 2216 
z
M 1403 2484 
Q 997 2584 770 2862 
Q 544 3141 544 3541 
Q 544 4100 942 4425 
Q 1341 4750 2034 4750 
Q 2731 4750 3128 4425 
Q 3525 4100 3525 3541 
Q 3525 3141 3298 2862 
Q 3072 2584 2669 2484 
Q 3125 2378 3379 2068 
Q 3634 1759 3634 1313 
Q 3634 634 3220 271 
Q 2806 -91 2034 -91 
Q 1263 -91 848 271 
Q 434 634 434 1313 
Q 434 1759 690 2068 
Q 947 2378 1403 2484 
z
M 1172 3481 
Q 1172 3119 1398 2916 
Q 1625 2713 2034 2713 
Q 2441 2713 2670 2916 
Q 2900 3119 2900 3481 
Q 2900 3844 2670 4047 
Q 2441 4250 2034 4250 
Q 1625 4250 1398 4047 
Q 1172 3844 1172 3481 
z
" transform="scale(0.015625)"/>
      <path id="DejaVuSans-57" d="M 213 4666 
L 850 4666 
L 1831 722 
L 2809 4666 
L 3519 4666 
L 4500 722 
L 5478 4666 
L 6119 4666 
L 4947 0 
L 4153 0 
L 3169 4050 
L 2175 0 
L 1381 0 
L 213 4666 
z
" transform="scale(0.015625)"/>
      <path id="DejaVuSans-77" d="M 269 3500 
L 844 3500 
L 1563 769 
L 2278 3500 
L 2956 3500 
L 3675 769 
L 4391 3500 
L 4966 3500 
L 4050 0 
L 3372 0 
L 2619 2869 
L 1863 0 
L 1184 0 
L 269 3500 
z
" transform="scale(0.015625)"/>
     </defs>
     <use xlink:href="#DejaVuSans-53"/>
     <use xlink:href="#DejaVuSans-68" x="63.476562"/>
     <use xlink:href="#DejaVuSans-6f" x="126.855469"/>
     <use xlink:href="#DejaVuSans-72" x="188.037109"/>
     <use xlink:href="#DejaVuSans-74" x="229.150391"/>
     <use xlink:href="#DejaVuSans-20" x="268.359375"/>
     <use xlink:href="#DejaVuSans-54" x="300.146484"/>
     <use xlink:href="#DejaVuSans-69" x="358.105469"/>
     <use xlink:href="#DejaVuSans-6d" x="385.888672"/>
     <use xlink:href="#DejaVuSans-65" x="483.300781"/>
     <use xlink:href="#DejaVuSans-20" x="544.824219"/>
     <use xlink:href="#DejaVuSans-46" x="576.611328"/>
     <use xlink:href="#DejaVuSans-6f" x="630.505859"/>
     <use xlink:href="#DejaVuSans-75" x="691.6875"/>
     <use xlink:href="#DejaVuSans-72" x="755.066406"/>
     <use xlink:href="#DejaVuSans-69" x="796.179688"/>
     <use xlink:href="#DejaVuSans-65" x="823.962891"/>
     <use xlink:href="#DejaVuSans-72" x="885.486328"/>
     <use xlink:href="#DejaVuSans-20" x="926.599609"/>
     <use xlink:href="#DejaVuSans-54" x="958.386719"/>
     <use xlink:href="#DejaVuSans-72" x="1004.720703"/>
     <use xlink:href="#DejaVuSans-61" x="1045.833984"/>
     <use xlink:href="#DejaVuSans-6e" x="1107.113281"/>
     <use xlink:href="#DejaVuSans-73" x="1170.492188"/>
     <use xlink:href="#DejaVuSans-66" x="1222.591797"/>
     <use xlink:href="#DejaVuSans-6f" x="1257.796875"/>
     <use xlink:href="#DejaVuSans-72" x="1318.978516"/>
     <use xlink:href="#DejaVuSans-6d" x="1358.341797"/>
     <use xlink:href="#DejaVuSans-20" x="1455.753906"/>
     <use xlink:href="#DejaVuSans-66" x="1487.541016"/>
     <use xlink:href="#DejaVuSans-6f" x="1522.746094"/>
     <use xlink:href="#DejaVuSans-72" x="1583.927734"/>
     <use xlink:href="#DejaVuSans-20" x="1625.041016"/>
     <use xlink:href="#DejaVuSans-74" x="1656.828125"/>
     <use xlink:href="#DejaVuSans-68" x="1696.037109"/>
     <use xlink:href="#DejaVuSans-65" x="1759.416016"/>
     <use xlink:href="#DejaVuSans-20" x="1820.939453"/>
     <use xlink:href="#DejaVuSans-66" x="1852.726562"/>
     <use xlink:href="#DejaVuSans-69" x="1887.931641"/>
     <use xlink:href="#DejaVuSans-72" x="1915.714844"/>
     <use xlink:href="#DejaVuSans-73" x="1956.828125"/>
     <use xlink:href="#DejaVuSans-74" x="2008.927734"/>
     <use xlink:href="#DejaVuSans-20" x="2048.136719"/>
     <use xlink:href="#DejaVuSans-31" x="2079.923828"/>
     <use xlink:href="#DejaVuSans-32" x="2143.546875"/>
     <use xlink:href="#DejaVuSans-38" x="2207.169922"/>
     <use xlink:href="#DejaVuSans-6d" x="2270.792969"/>
     <use xlink:href="#DejaVuSans-73" x="2368.205078"/>
     <use xlink:href="#DejaVuSans-20" x="2420.304688"/>
     <use xlink:href="#DejaVuSans-57" x="2452.091797"/>
     <use xlink:href="#DejaVuSans-69" x="2548.71875"/>
     <use xlink:href="#DejaVuSans-6e" x="2576.501953"/>
     <use xlink:href="#DejaVuSans-64" x="2639.880859"/>
     <use xlink:href="#DejaVuSans-6f" x="2703.357422"/>
     <use xlink:href="#DejaVuSans-77" x="2764.539062"/>
    </g>
   </g>
   <g id="legend_1">
    <g id="patch_7">
     <path d="M 566.240625 89.7525 
L 770.6 89.7525 
Q 772.6 89.7525 772.6 87.7525 
L 772.6 58.84 
Q 772.6 56.84 770.6 56.84 
L 566.240625 56.84 
Q 564.240625 56.84 564.240625 58.84 
L 564.240625 87.7525 
Q 564.240625 89.7525 566.240625 89.7525 
z
" style="fill: #eee8d5; opacity: 0.8; stroke: #cccccc; stroke-linejoin: miter"/>
    </g>
    <g id="line2d_35">
     <path d="M 568.240625 64.938438 
L 578.240625 64.938438 
L 588.240625 64.938438 
" style="fill: none; stroke: #2aa198; stroke-opacity: 0.6; stroke-width: 2"/>
    </g>
    <g id="text_20">
     <!-- Machine #id_00 - Normal Signal -->
     <g transform="translate(596.240625 68.438438)scale(0.1 -0.1)">
      <defs>
       <path id="DejaVuSans-4d" d="M 628 4666 
L 1569 4666 
L 2759 1491 
L 3956 4666 
L 4897 4666 
L 4897 0 
L 4281 0 
L 4281 4097 
L 3078 897 
L 2444 897 
L 1241 4097 
L 1241 0 
L 628 0 
L 628 4666 
z
" transform="scale(0.015625)"/>
       <path id="DejaVuSans-23" d="M 3272 2816 
L 2363 2816 
L 2100 1772 
L 3016 1772 
L 3272 2816 
z
M 2803 4594 
L 2478 3297 
L 3391 3297 
L 3719 4594 
L 4219 4594 
L 3897 3297 
L 4872 3297 
L 4872 2816 
L 3775 2816 
L 3519 1772 
L 4513 1772 
L 4513 1294 
L 3397 1294 
L 3072 0 
L 2572 0 
L 2894 1294 
L 1978 1294 
L 1656 0 
L 1153 0 
L 1478 1294 
L 494 1294 
L 494 1772 
L 1594 1772 
L 1856 2816 
L 850 2816 
L 850 3297 
L 1978 3297 
L 2297 4594 
L 2803 4594 
z
" transform="scale(0.015625)"/>
       <path id="DejaVuSans-5f" d="M 3263 -1063 
L 3263 -1509 
L -63 -1509 
L -63 -1063 
L 3263 -1063 
z
" transform="scale(0.015625)"/>
       <path id="DejaVuSans-2d" d="M 313 2009 
L 1997 2009 
L 1997 1497 
L 313 1497 
L 313 2009 
z
" transform="scale(0.015625)"/>
       <path id="DejaVuSans-4e" d="M 628 4666 
L 1478 4666 
L 3547 763 
L 3547 4666 
L 4159 4666 
L 4159 0 
L 3309 0 
L 1241 3903 
L 1241 0 
L 628 0 
L 628 4666 
z
" transform="scale(0.015625)"/>
       <path id="DejaVuSans-67" d="M 2906 1791 
Q 2906 2416 2648 2759 
Q 2391 3103 1925 3103 
Q 1463 3103 1205 2759 
Q 947 2416 947 1791 
Q 947 1169 1205 825 
Q 1463 481 1925 481 
Q 2391 481 2648 825 
Q 2906 1169 2906 1791 
z
M 3481 434 
Q 3481 -459 3084 -895 
Q 2688 -1331 1869 -1331 
Q 1566 -1331 1297 -1286 
Q 1028 -1241 775 -1147 
L 775 -588 
Q 1028 -725 1275 -790 
Q 1522 -856 1778 -856 
Q 2344 -856 2625 -561 
Q 2906 -266 2906 331 
L 2906 616 
Q 2728 306 2450 153 
Q 2172 0 1784 0 
Q 1141 0 747 490 
Q 353 981 353 1791 
Q 353 2603 747 3093 
Q 1141 3584 1784 3584 
Q 2172 3584 2450 3431 
Q 2728 3278 2906 2969 
L 2906 3500 
L 3481 3500 
L 3481 434 
z
" transform="scale(0.015625)"/>
      </defs>
      <use xlink:href="#DejaVuSans-4d"/>
      <use xlink:href="#DejaVuSans-61" x="86.279297"/>
      <use xlink:href="#DejaVuSans-63" x="147.558594"/>
      <use xlink:href="#DejaVuSans-68" x="202.539062"/>
      <use xlink:href="#DejaVuSans-69" x="265.917969"/>
      <use xlink:href="#DejaVuSans-6e" x="293.701172"/>
      <use xlink:href="#DejaVuSans-65" x="357.080078"/>
      <use xlink:href="#DejaVuSans-20" x="418.603516"/>
      <use xlink:href="#DejaVuSans-23" x="450.390625"/>
      <use xlink:href="#DejaVuSans-69" x="534.179688"/>
      <use xlink:href="#DejaVuSans-64" x="561.962891"/>
      <use xlink:href="#DejaVuSans-5f" x="625.439453"/>
      <use xlink:href="#DejaVuSans-30" x="675.439453"/>
      <use xlink:href="#DejaVuSans-30" x="739.0625"/>
      <use xlink:href="#DejaVuSans-20" x="802.685547"/>
      <use xlink:href="#DejaVuSans-2d" x="834.472656"/>
      <use xlink:href="#DejaVuSans-20" x="870.556641"/>
      <use xlink:href="#DejaVuSans-4e" x="902.34375"/>
      <use xlink:href="#DejaVuSans-6f" x="977.148438"/>
      <use xlink:href="#DejaVuSans-72" x="1038.330078"/>
      <use xlink:href="#DejaVuSans-6d" x="1077.693359"/>
      <use xlink:href="#DejaVuSans-61" x="1175.105469"/>
      <use xlink:href="#DejaVuSans-6c" x="1236.384766"/>
      <use xlink:href="#DejaVuSans-20" x="1264.167969"/>
      <use xlink:href="#DejaVuSans-53" x="1295.955078"/>
      <use xlink:href="#DejaVuSans-69" x="1359.431641"/>
      <use xlink:href="#DejaVuSans-67" x="1387.214844"/>
      <use xlink:href="#DejaVuSans-6e" x="1450.691406"/>
      <use xlink:href="#DejaVuSans-61" x="1514.070312"/>
      <use xlink:href="#DejaVuSans-6c" x="1575.349609"/>
     </g>
    </g>
    <g id="line2d_36">
     <path d="M 568.240625 79.894688 
L 578.240625 79.894688 
L 588.240625 79.894688 
" style="fill: none; stroke: #dc322f; stroke-opacity: 0.6; stroke-width: 2"/>
    </g>
    <g id="text_21">
     <!-- Machine #id_00 - Abnormal Signal -->
     <g transform="translate(596.240625 83.394688)scale(0.1 -0.1)">
      <defs>
       <path id="DejaVuSans-62" d="M 3116 1747 
Q 3116 2381 2855 2742 
Q 2594 3103 2138 3103 
Q 1681 3103 1420 2742 
Q 1159 2381 1159 1747 
Q 1159 1113 1420 752 
Q 1681 391 2138 391 
Q 2594 391 2855 752 
Q 3116 1113 3116 1747 
z
M 1159 2969 
Q 1341 3281 1617 3432 
Q 1894 3584 2278 3584 
Q 2916 3584 3314 3078 
Q 3713 2572 3713 1747 
Q 3713 922 3314 415 
Q 2916 -91 2278 -91 
Q 1894 -91 1617 61 
Q 1341 213 1159 525 
L 1159 0 
L 581 0 
L 581 4863 
L 1159 4863 
L 1159 2969 
z
" transform="scale(0.015625)"/>
      </defs>
      <use xlink:href="#DejaVuSans-4d"/>
      <use xlink:href="#DejaVuSans-61" x="86.279297"/>
      <use xlink:href="#DejaVuSans-63" x="147.558594"/>
      <use xlink:href="#DejaVuSans-68" x="202.539062"/>
      <use xlink:href="#DejaVuSans-69" x="265.917969"/>
      <use xlink:href="#DejaVuSans-6e" x="293.701172"/>
      <use xlink:href="#DejaVuSans-65" x="357.080078"/>
      <use xlink:href="#DejaVuSans-20" x="418.603516"/>
      <use xlink:href="#DejaVuSans-23" x="450.390625"/>
      <use xlink:href="#DejaVuSans-69" x="534.179688"/>
      <use xlink:href="#DejaVuSans-64" x="561.962891"/>
      <use xlink:href="#DejaVuSans-5f" x="625.439453"/>
      <use xlink:href="#DejaVuSans-30" x="675.439453"/>
      <use xlink:href="#DejaVuSans-30" x="739.0625"/>
      <use xlink:href="#DejaVuSans-20" x="802.685547"/>
      <use xlink:href="#DejaVuSans-2d" x="834.472656"/>
      <use xlink:href="#DejaVuSans-20" x="870.556641"/>
      <use xlink:href="#DejaVuSans-41" x="902.34375"/>
      <use xlink:href="#DejaVuSans-62" x="970.751953"/>
      <use xlink:href="#DejaVuSans-6e" x="1034.228516"/>
      <use xlink:href="#DejaVuSans-6f" x="1097.607422"/>
      <use xlink:href="#DejaVuSans-72" x="1158.789062"/>
      <use xlink:href="#DejaVuSans-6d" x="1198.152344"/>
      <use xlink:href="#DejaVuSans-61" x="1295.564453"/>
      <use xlink:href="#DejaVuSans-6c" x="1356.84375"/>
      <use xlink:href="#DejaVuSans-20" x="1384.626953"/>
      <use xlink:href="#DejaVuSans-53" x="1416.414062"/>
      <use xlink:href="#DejaVuSans-69" x="1479.890625"/>
      <use xlink:href="#DejaVuSans-67" x="1507.673828"/>
      <use xlink:href="#DejaVuSans-6e" x="1571.150391"/>
      <use xlink:href="#DejaVuSans-61" x="1634.529297"/>
      <use xlink:href="#DejaVuSans-6c" x="1695.808594"/>
     </g>
    </g>
   </g>
  </g>
 </g>
 <defs>
  <clipPath id="peebd9b5abf">
   <rect x="108" y="51.84" width="669.6" height="326.16"/>
  </clipPath>
 </defs>
</svg>
